<ttFont>
    <TTGlyph name=".ttfautohint" xMin="0" yMin="0" xMax="0" yMax="0">
      <contour>
        <pt x="0" y="0" on="1"/>
      </contour>
    </TTGlyph>
    <TTGlyph name="A" xMin="-57" yMin="0" xMax="549" yMax="655">
      <contour>
        <pt x="8" y="72" on="1"/>
        <pt x="274" y="655" on="1"/>
        <pt x="367" y="655" on="1"/>
        <pt x="483" y="72" on="1"/>
        <pt x="549" y="58" on="1"/>
        <pt x="545" y="0" on="1"/>
        <pt x="273" y="0" on="1"/>
        <pt x="278" y="58" on="1"/>
        <pt x="342" y="68" on="1"/>
        <pt x="342" y="77" on="1"/>
        <pt x="325" y="178" on="1"/>
        <pt x="138" y="178" on="1"/>
        <pt x="92" y="75" on="1"/>
        <pt x="92" y="69" on="1"/>
        <pt x="169" y="58" on="1"/>
        <pt x="162" y="0" on="1"/>
        <pt x="-57" y="0" on="1"/>
        <pt x="-49" y="58" on="1"/>
      </contour>
      <contour>
        <pt x="278" y="464" on="1"/>
        <pt x="278" y="488" on="1"/>
        <pt x="274" y="488" on="1"/>
        <pt x="267" y="464" on="1"/>
        <pt x="167" y="243" on="1"/>
        <pt x="314" y="243" on="1"/>
      </contour>
    </TTGlyph>
    <TTGlyph name="AE" xMin="-80" yMin="0" xMax="790" yMax="648">
      <contour>
        <pt x="-15" y="72" on="1"/>
        <pt x="354" y="648" on="1"/>
        <pt x="790" y="648" on="1"/>
        <pt x="762" y="464" on="1"/>
        <pt x="696" y="464" on="1"/>
        <pt x="696" y="579" on="1"/>
        <pt x="588" y="579" on="1"/>
        <pt x="530" y="572" on="1"/>
        <pt x="496" y="338" on="1"/>
        <pt x="610" y="338" on="1"/>
        <pt x="632" y="402" on="1"/>
        <pt x="692" y="402" on="1"/>
        <pt x="666" y="206" on="1"/>
        <pt x="608" y="206" on="1"/>
        <pt x="608" y="273" on="1"/>
        <pt x="487" y="273" on="1"/>
        <pt x="460" y="76" on="1"/>
        <pt x="539" y="69" on="1"/>
        <pt x="633" y="69" on="1"/>
        <pt x="673" y="180" on="1"/>
        <pt x="734" y="180" on="1"/>
        <pt x="712" y="0" on="1"/>
        <pt x="244" y="0" on="1"/>
        <pt x="253" y="58" on="1"/>
        <pt x="324" y="72" on="1"/>
        <pt x="352" y="273" on="1"/>
        <pt x="195" y="273" on="1"/>
        <pt x="69" y="75" on="1"/>
        <pt x="69" y="69" on="1"/>
        <pt x="146" y="58" on="1"/>
        <pt x="139" y="0" on="1"/>
        <pt x="-80" y="0" on="1"/>
        <pt x="-72" y="58" on="1"/>
      </contour>
      <contour>
        <pt x="395" y="579" on="1"/>
        <pt x="389" y="579" on="1"/>
        <pt x="236" y="338" on="1"/>
        <pt x="361" y="338" on="1"/>
      </contour>
    </TTGlyph>
    <TTGlyph name="AEacute" xMin="-80" yMin="0" xMax="790" yMax="840">
      <component glyphName=".ttfautohint" x="0" y="0" flags="0x0"/>
      <component glyphName="AE" x="0" y="0" flags="0x0"/>
      <component glyphName="acutecomb.case" x="550" y="0" flags="0x0"/>
    </TTGlyph>
    <TTGlyph name="Aacute" xMin="-57" yMin="0" xMax="549" yMax="840">
      <contour>
        <pt x="212" y="722" on="1"/>
        <pt x="400" y="840" on="1"/>
        <pt x="438" y="819" on="0"/>
        <pt x="438" y="775" on="1"/>
        <pt x="438" y="760" on="0"/>
        <pt x="420" y="739" on="0"/>
        <pt x="393" y="729" on="1"/>
        <pt x="236" y="674" on="1"/>
      </contour>
      <contour>
        <pt x="8" y="72" on="1"/>
        <pt x="274" y="655" on="1"/>
        <pt x="367" y="655" on="1"/>
        <pt x="483" y="72" on="1"/>
        <pt x="549" y="58" on="1"/>
        <pt x="545" y="0" on="1"/>
        <pt x="273" y="0" on="1"/>
        <pt x="278" y="58" on="1"/>
        <pt x="342" y="68" on="1"/>
        <pt x="342" y="77" on="1"/>
        <pt x="325" y="178" on="1"/>
        <pt x="138" y="178" on="1"/>
        <pt x="92" y="75" on="1"/>
        <pt x="92" y="69" on="1"/>
        <pt x="169" y="58" on="1"/>
        <pt x="162" y="0" on="1"/>
        <pt x="-57" y="0" on="1"/>
        <pt x="-49" y="58" on="1"/>
      </contour>
      <contour>
        <pt x="278" y="464" on="1"/>
        <pt x="278" y="488" on="1"/>
        <pt x="274" y="488" on="1"/>
        <pt x="267" y="464" on="1"/>
        <pt x="167" y="243" on="1"/>
        <pt x="314" y="243" on="1"/>
      </contour>
    </TTGlyph>
    <TTGlyph name="Abreve" xMin="-57" yMin="0" xMax="549" yMax="839">
      <contour>
        <pt x="484" y="763" on="0"/>
        <pt x="396" y="679" on="0"/>
        <pt x="320" y="679" on="1"/>
        <pt x="288" y="679" on="0"/>
        <pt x="224" y="706" on="0"/>
        <pt x="183" y="752" on="0"/>
        <pt x="183" y="779" on="1"/>
        <pt x="183" y="794" on="0"/>
        <pt x="221" y="825" on="0"/>
        <pt x="251" y="836" on="1"/>
        <pt x="268" y="802" on="0"/>
        <pt x="310" y="776" on="0"/>
        <pt x="339" y="776" on="1"/>
        <pt x="385" y="776" on="0"/>
        <pt x="449" y="807" on="0"/>
        <pt x="481" y="839" on="1"/>
        <pt x="513" y="814" on="1"/>
      </contour>
      <contour>
        <pt x="8" y="72" on="1"/>
        <pt x="274" y="655" on="1"/>
        <pt x="367" y="655" on="1"/>
        <pt x="483" y="72" on="1"/>
        <pt x="549" y="58" on="1"/>
        <pt x="545" y="0" on="1"/>
        <pt x="273" y="0" on="1"/>
        <pt x="278" y="58" on="1"/>
        <pt x="342" y="68" on="1"/>
        <pt x="342" y="77" on="1"/>
        <pt x="325" y="178" on="1"/>
        <pt x="138" y="178" on="1"/>
        <pt x="92" y="75" on="1"/>
        <pt x="92" y="69" on="1"/>
        <pt x="169" y="58" on="1"/>
        <pt x="162" y="0" on="1"/>
        <pt x="-57" y="0" on="1"/>
        <pt x="-49" y="58" on="1"/>
      </contour>
      <contour>
        <pt x="278" y="464" on="1"/>
        <pt x="278" y="488" on="1"/>
        <pt x="274" y="488" on="1"/>
        <pt x="267" y="464" on="1"/>
        <pt x="167" y="243" on="1"/>
        <pt x="314" y="243" on="1"/>
      </contour>
    </TTGlyph>
    <TTGlyph name="Acircumflex" xMin="-57" yMin="0" xMax="549" yMax="839">
      <contour>
        <pt x="264" y="789" on="1"/>
        <pt x="270" y="794" on="0"/>
        <pt x="309" y="826" on="0"/>
        <pt x="330" y="839" on="0"/>
        <pt x="336" y="839" on="1"/>
        <pt x="344" y="839" on="0"/>
        <pt x="363" y="825" on="0"/>
        <pt x="384" y="806" on="0"/>
        <pt x="389" y="801" on="1"/>
        <pt x="476" y="722" on="1"/>
        <pt x="437" y="674" on="1"/>
        <pt x="324" y="735" on="1"/>
        <pt x="200" y="676" on="1"/>
        <pt x="174" y="715" on="1"/>
      </contour>
      <contour>
        <pt x="8" y="72" on="1"/>
        <pt x="274" y="655" on="1"/>
        <pt x="367" y="655" on="1"/>
        <pt x="483" y="72" on="1"/>
        <pt x="549" y="58" on="1"/>
        <pt x="545" y="0" on="1"/>
        <pt x="273" y="0" on="1"/>
        <pt x="278" y="58" on="1"/>
        <pt x="342" y="68" on="1"/>
        <pt x="342" y="77" on="1"/>
        <pt x="325" y="178" on="1"/>
        <pt x="138" y="178" on="1"/>
        <pt x="92" y="75" on="1"/>
        <pt x="92" y="69" on="1"/>
        <pt x="169" y="58" on="1"/>
        <pt x="162" y="0" on="1"/>
        <pt x="-57" y="0" on="1"/>
        <pt x="-49" y="58" on="1"/>
      </contour>
      <contour>
        <pt x="278" y="464" on="1"/>
        <pt x="278" y="488" on="1"/>
        <pt x="274" y="488" on="1"/>
        <pt x="267" y="464" on="1"/>
        <pt x="167" y="243" on="1"/>
        <pt x="314" y="243" on="1"/>
      </contour>
    </TTGlyph>
    <TTGlyph name="Adieresis" xMin="-57" yMin="0" xMax="549" yMax="832">
      <contour>
        <pt x="183" y="687" on="0"/>
        <pt x="148" y="724" on="0"/>
        <pt x="148" y="751" on="1"/>
        <pt x="148" y="783" on="0"/>
        <pt x="187" y="832" on="0"/>
        <pt x="222" y="832" on="1"/>
        <pt x="249" y="832" on="0"/>
        <pt x="285" y="796" on="0"/>
        <pt x="285" y="766" on="1"/>
        <pt x="285" y="734" on="0"/>
        <pt x="245" y="687" on="0"/>
        <pt x="210" y="687" on="1"/>
      </contour>
      <contour>
        <pt x="406" y="687" on="0"/>
        <pt x="371" y="724" on="0"/>
        <pt x="371" y="751" on="1"/>
        <pt x="371" y="783" on="0"/>
        <pt x="410" y="832" on="0"/>
        <pt x="445" y="832" on="1"/>
        <pt x="472" y="832" on="0"/>
        <pt x="508" y="796" on="0"/>
        <pt x="508" y="766" on="1"/>
        <pt x="508" y="734" on="0"/>
        <pt x="468" y="687" on="0"/>
        <pt x="433" y="687" on="1"/>
      </contour>
      <contour>
        <pt x="8" y="72" on="1"/>
        <pt x="274" y="655" on="1"/>
        <pt x="367" y="655" on="1"/>
        <pt x="483" y="72" on="1"/>
        <pt x="549" y="58" on="1"/>
        <pt x="545" y="0" on="1"/>
        <pt x="273" y="0" on="1"/>
        <pt x="278" y="58" on="1"/>
        <pt x="342" y="68" on="1"/>
        <pt x="342" y="77" on="1"/>
        <pt x="325" y="178" on="1"/>
        <pt x="138" y="178" on="1"/>
        <pt x="92" y="75" on="1"/>
        <pt x="92" y="69" on="1"/>
        <pt x="169" y="58" on="1"/>
        <pt x="162" y="0" on="1"/>
        <pt x="-57" y="0" on="1"/>
        <pt x="-49" y="58" on="1"/>
      </contour>
      <contour>
        <pt x="278" y="464" on="1"/>
        <pt x="278" y="488" on="1"/>
        <pt x="274" y="488" on="1"/>
        <pt x="267" y="464" on="1"/>
        <pt x="167" y="243" on="1"/>
        <pt x="314" y="243" on="1"/>
      </contour>
    </TTGlyph>
    <TTGlyph name="Agrave" xMin="-57" yMin="0" xMax="549" yMax="840">
      <contour>
        <pt x="221" y="738" on="0"/>
        <pt x="203" y="759" on="0"/>
        <pt x="203" y="774" on="1"/>
        <pt x="203" y="800" on="0"/>
        <pt x="224" y="830" on="0"/>
        <pt x="241" y="840" on="1"/>
        <pt x="429" y="722" on="1"/>
        <pt x="405" y="674" on="1"/>
        <pt x="248" y="729" on="1"/>
      </contour>
      <contour>
        <pt x="8" y="72" on="1"/>
        <pt x="274" y="655" on="1"/>
        <pt x="367" y="655" on="1"/>
        <pt x="483" y="72" on="1"/>
        <pt x="549" y="58" on="1"/>
        <pt x="545" y="0" on="1"/>
        <pt x="273" y="0" on="1"/>
        <pt x="278" y="58" on="1"/>
        <pt x="342" y="68" on="1"/>
        <pt x="342" y="77" on="1"/>
        <pt x="325" y="178" on="1"/>
        <pt x="138" y="178" on="1"/>
        <pt x="92" y="75" on="1"/>
        <pt x="92" y="69" on="1"/>
        <pt x="169" y="58" on="1"/>
        <pt x="162" y="0" on="1"/>
        <pt x="-57" y="0" on="1"/>
        <pt x="-49" y="58" on="1"/>
      </contour>
      <contour>
        <pt x="278" y="464" on="1"/>
        <pt x="278" y="488" on="1"/>
        <pt x="274" y="488" on="1"/>
        <pt x="267" y="464" on="1"/>
        <pt x="167" y="243" on="1"/>
        <pt x="314" y="243" on="1"/>
      </contour>
    </TTGlyph>
    <TTGlyph name="Amacron" xMin="-57" yMin="0" xMax="549" yMax="798">
      <contour>
        <pt x="509" y="798" on="1"/>
        <pt x="499" y="716" on="1"/>
        <pt x="149" y="716" on="1"/>
        <pt x="159" y="798" on="1"/>
      </contour>
      <contour>
        <pt x="8" y="72" on="1"/>
        <pt x="274" y="655" on="1"/>
        <pt x="367" y="655" on="1"/>
        <pt x="483" y="72" on="1"/>
        <pt x="549" y="58" on="1"/>
        <pt x="545" y="0" on="1"/>
        <pt x="273" y="0" on="1"/>
        <pt x="278" y="58" on="1"/>
        <pt x="342" y="68" on="1"/>
        <pt x="342" y="77" on="1"/>
        <pt x="325" y="178" on="1"/>
        <pt x="138" y="178" on="1"/>
        <pt x="92" y="75" on="1"/>
        <pt x="92" y="69" on="1"/>
        <pt x="169" y="58" on="1"/>
        <pt x="162" y="0" on="1"/>
        <pt x="-57" y="0" on="1"/>
        <pt x="-49" y="58" on="1"/>
      </contour>
      <contour>
        <pt x="278" y="464" on="1"/>
        <pt x="278" y="488" on="1"/>
        <pt x="274" y="488" on="1"/>
        <pt x="267" y="464" on="1"/>
        <pt x="167" y="243" on="1"/>
        <pt x="314" y="243" on="1"/>
      </contour>
    </TTGlyph>
    <TTGlyph name="Aogonek" xMin="-57" yMin="-187" xMax="549" yMax="655">
      <contour>
        <pt x="8" y="72" on="1"/>
        <pt x="274" y="655" on="1"/>
        <pt x="367" y="655" on="1"/>
        <pt x="483" y="72" on="1"/>
        <pt x="549" y="58" on="1"/>
        <pt x="545" y="0" on="1"/>
        <pt x="442" y="0" on="1"/>
        <pt x="389" y="-39" on="0"/>
        <pt x="389" y="-84" on="1"/>
        <pt x="389" y="-103" on="0"/>
        <pt x="406" y="-118" on="0"/>
        <pt x="424" y="-118" on="1"/>
        <pt x="445" y="-118" on="0"/>
        <pt x="476" y="-99" on="1"/>
        <pt x="500" y="-134" on="1"/>
        <pt x="500" y="-136" on="0"/>
        <pt x="469" y="-163" on="0"/>
        <pt x="420" y="-187" on="0"/>
        <pt x="391" y="-187" on="1"/>
        <pt x="347" y="-187" on="0"/>
        <pt x="294" y="-151" on="0"/>
        <pt x="294" y="-116" on="1"/>
        <pt x="294" y="-48" on="0"/>
        <pt x="376" y="0" on="1"/>
        <pt x="273" y="0" on="1"/>
        <pt x="278" y="58" on="1"/>
        <pt x="342" y="68" on="1"/>
        <pt x="342" y="77" on="1"/>
        <pt x="325" y="178" on="1"/>
        <pt x="138" y="178" on="1"/>
        <pt x="92" y="75" on="1"/>
        <pt x="92" y="69" on="1"/>
        <pt x="169" y="58" on="1"/>
        <pt x="162" y="0" on="1"/>
        <pt x="-57" y="0" on="1"/>
        <pt x="-49" y="58" on="1"/>
      </contour>
      <contour>
        <pt x="278" y="464" on="1"/>
        <pt x="278" y="488" on="1"/>
        <pt x="274" y="488" on="1"/>
        <pt x="267" y="464" on="1"/>
        <pt x="167" y="243" on="1"/>
        <pt x="314" y="243" on="1"/>
      </contour>
    </TTGlyph>
    <TTGlyph name="Aring" xMin="-57" yMin="0" xMax="549" yMax="839">
      <contour>
        <pt x="218" y="765" on="0"/>
        <pt x="247" y="810" on="0"/>
        <pt x="301" y="839" on="0"/>
        <pt x="337" y="839" on="1"/>
        <pt x="433" y="839" on="0"/>
        <pt x="433" y="758" on="1"/>
        <pt x="433" y="720" on="0"/>
        <pt x="372" y="663" on="0"/>
        <pt x="316" y="663" on="1"/>
        <pt x="264" y="663" on="0"/>
        <pt x="218" y="702" on="0"/>
        <pt x="218" y="742" on="1"/>
      </contour>
      <contour>
        <pt x="341" y="710" on="0"/>
        <pt x="356" y="729" on="0"/>
        <pt x="356" y="759" on="1"/>
        <pt x="356" y="792" on="0"/>
        <pt x="328" y="792" on="1"/>
        <pt x="309" y="792" on="0"/>
        <pt x="294" y="771" on="0"/>
        <pt x="294" y="741" on="1"/>
        <pt x="294" y="710" on="0"/>
        <pt x="322" y="710" on="1"/>
      </contour>
      <contour>
        <pt x="8" y="72" on="1"/>
        <pt x="274" y="655" on="1"/>
        <pt x="367" y="655" on="1"/>
        <pt x="483" y="72" on="1"/>
        <pt x="549" y="58" on="1"/>
        <pt x="545" y="0" on="1"/>
        <pt x="273" y="0" on="1"/>
        <pt x="278" y="58" on="1"/>
        <pt x="342" y="68" on="1"/>
        <pt x="342" y="77" on="1"/>
        <pt x="325" y="178" on="1"/>
        <pt x="138" y="178" on="1"/>
        <pt x="92" y="75" on="1"/>
        <pt x="92" y="69" on="1"/>
        <pt x="169" y="58" on="1"/>
        <pt x="162" y="0" on="1"/>
        <pt x="-57" y="0" on="1"/>
        <pt x="-49" y="58" on="1"/>
      </contour>
      <contour>
        <pt x="278" y="464" on="1"/>
        <pt x="278" y="488" on="1"/>
        <pt x="274" y="488" on="1"/>
        <pt x="267" y="464" on="1"/>
        <pt x="167" y="243" on="1"/>
        <pt x="314" y="243" on="1"/>
      </contour>
    </TTGlyph>
    <TTGlyph name="Aringacute" xMin="-57" yMin="0" xMax="549" yMax="1031">
      <component glyphName=".ttfautohint" x="0" y="0" flags="0x0"/>
      <component glyphName="A" x="0" y="0" flags="0x0"/>
      <component glyphName="uni030A.case" x="380" y="0" flags="0x0"/>
      <component glyphName="acutecomb.case" x="451" y="191" flags="0x4"/>
    </TTGlyph>
    <TTGlyph name="Atilde" xMin="-57" yMin="0" xMax="549" yMax="825">
      <contour>
        <pt x="179" y="782" on="1"/>
        <pt x="195" y="803" on="0"/>
        <pt x="231" y="825" on="0"/>
        <pt x="246" y="825" on="1"/>
        <pt x="263" y="825" on="0"/>
        <pt x="292" y="818" on="0"/>
        <pt x="313" y="811" on="1"/>
        <pt x="418" y="776" on="1"/>
        <pt x="500" y="814" on="1"/>
        <pt x="529" y="781" on="1"/>
        <pt x="479" y="725" on="1"/>
        <pt x="441" y="682" on="0"/>
        <pt x="412" y="682" on="1"/>
        <pt x="395" y="682" on="0"/>
        <pt x="366" y="689" on="0"/>
        <pt x="345" y="696" on="1"/>
        <pt x="240" y="732" on="1"/>
        <pt x="158" y="694" on="1"/>
        <pt x="129" y="727" on="1"/>
      </contour>
      <contour>
        <pt x="8" y="72" on="1"/>
        <pt x="274" y="655" on="1"/>
        <pt x="367" y="655" on="1"/>
        <pt x="483" y="72" on="1"/>
        <pt x="549" y="58" on="1"/>
        <pt x="545" y="0" on="1"/>
        <pt x="273" y="0" on="1"/>
        <pt x="278" y="58" on="1"/>
        <pt x="342" y="68" on="1"/>
        <pt x="342" y="77" on="1"/>
        <pt x="325" y="178" on="1"/>
        <pt x="138" y="178" on="1"/>
        <pt x="92" y="75" on="1"/>
        <pt x="92" y="69" on="1"/>
        <pt x="169" y="58" on="1"/>
        <pt x="162" y="0" on="1"/>
        <pt x="-57" y="0" on="1"/>
        <pt x="-49" y="58" on="1"/>
      </contour>
      <contour>
        <pt x="278" y="464" on="1"/>
        <pt x="278" y="488" on="1"/>
        <pt x="274" y="488" on="1"/>
        <pt x="267" y="464" on="1"/>
        <pt x="167" y="243" on="1"/>
        <pt x="314" y="243" on="1"/>
      </contour>
    </TTGlyph>
    <TTGlyph name="B" xMin="-13" yMin="0" xMax="530" yMax="648">
      <contour>
        <pt x="67" y="72" on="1"/>
        <pt x="138" y="576" on="1"/>
        <pt x="68" y="590" on="1"/>
        <pt x="76" y="648" on="1"/>
        <pt x="328" y="648" on="1"/>
        <pt x="427" y="648" on="0"/>
        <pt x="530" y="586" on="0"/>
        <pt x="530" y="514" on="1"/>
        <pt x="530" y="449" on="0"/>
        <pt x="429" y="358" on="0"/>
        <pt x="361" y="340" on="1"/>
        <pt x="420" y="331" on="0"/>
        <pt x="505" y="266" on="0"/>
        <pt x="505" y="206" on="1"/>
        <pt x="505" y="139" on="0"/>
        <pt x="433" y="46" on="0"/>
        <pt x="315" y="0" on="0"/>
        <pt x="247" y="0" on="1"/>
        <pt x="-13" y="0" on="1"/>
        <pt x="-4" y="58" on="1"/>
      </contour>
      <contour>
        <pt x="323" y="374" on="0"/>
        <pt x="390" y="445" on="0"/>
        <pt x="390" y="504" on="1"/>
        <pt x="390" y="579" on="0"/>
        <pt x="301" y="579" on="1"/>
        <pt x="290" y="579" on="0"/>
        <pt x="275" y="577" on="0"/>
        <pt x="273" y="576" on="1"/>
        <pt x="240" y="360" on="1"/>
      </contour>
      <contour>
        <pt x="219" y="62" on="0"/>
        <pt x="241" y="62" on="1"/>
        <pt x="304" y="62" on="0"/>
        <pt x="360" y="135" on="0"/>
        <pt x="360" y="190" on="1"/>
        <pt x="360" y="246" on="0"/>
        <pt x="297" y="300" on="0"/>
        <pt x="233" y="303" on="1"/>
        <pt x="201" y="67" on="1"/>
      </contour>
    </TTGlyph>
    <TTGlyph name="C" xMin="30" yMin="-11" xMax="560" yMax="660">
      <contour>
        <pt x="505" y="206" on="1"/>
        <pt x="489" y="26" on="1"/>
        <pt x="442" y="8" on="0"/>
        <pt x="333" y="-11" on="0"/>
        <pt x="281" y="-11" on="1"/>
        <pt x="155" y="-11" on="0"/>
        <pt x="30" y="129" on="0"/>
        <pt x="30" y="244" on="1"/>
        <pt x="30" y="361" on="0"/>
        <pt x="110" y="550" on="0"/>
        <pt x="265" y="660" on="0"/>
        <pt x="373" y="660" on="1"/>
        <pt x="483" y="660" on="0"/>
        <pt x="560" y="640" on="1"/>
        <pt x="532" y="464" on="1"/>
        <pt x="463" y="464" on="1"/>
        <pt x="459" y="562" on="1"/>
        <pt x="410" y="595" on="0"/>
        <pt x="345" y="595" on="1"/>
        <pt x="265" y="595" on="0"/>
        <pt x="179" y="428" on="0"/>
        <pt x="179" y="253" on="1"/>
        <pt x="179" y="175" on="0"/>
        <pt x="204" y="90" on="0"/>
        <pt x="260" y="56" on="0"/>
        <pt x="310" y="56" on="1"/>
        <pt x="337" y="56" on="0"/>
        <pt x="388" y="70" on="0"/>
        <pt x="403" y="82" on="1"/>
        <pt x="436" y="206" on="1"/>
      </contour>
    </TTGlyph>
    <TTGlyph name="Cacute" xMin="30" yMin="-11" xMax="560" yMax="840">
      <contour>
        <pt x="254" y="722" on="1"/>
        <pt x="442" y="840" on="1"/>
        <pt x="480" y="819" on="0"/>
        <pt x="480" y="775" on="1"/>
        <pt x="480" y="760" on="0"/>
        <pt x="462" y="738" on="0"/>
        <pt x="435" y="729" on="1"/>
        <pt x="278" y="674" on="1"/>
      </contour>
      <contour>
        <pt x="505" y="206" on="1"/>
        <pt x="489" y="26" on="1"/>
        <pt x="442" y="8" on="0"/>
        <pt x="333" y="-11" on="0"/>
        <pt x="281" y="-11" on="1"/>
        <pt x="155" y="-11" on="0"/>
        <pt x="30" y="129" on="0"/>
        <pt x="30" y="244" on="1"/>
        <pt x="30" y="361" on="0"/>
        <pt x="110" y="550" on="0"/>
        <pt x="265" y="660" on="0"/>
        <pt x="373" y="660" on="1"/>
        <pt x="483" y="660" on="0"/>
        <pt x="560" y="640" on="1"/>
        <pt x="532" y="464" on="1"/>
        <pt x="463" y="464" on="1"/>
        <pt x="459" y="562" on="1"/>
        <pt x="410" y="595" on="0"/>
        <pt x="345" y="595" on="1"/>
        <pt x="265" y="595" on="0"/>
        <pt x="179" y="428" on="0"/>
        <pt x="179" y="253" on="1"/>
        <pt x="179" y="175" on="0"/>
        <pt x="204" y="90" on="0"/>
        <pt x="260" y="56" on="0"/>
        <pt x="310" y="56" on="1"/>
        <pt x="337" y="56" on="0"/>
        <pt x="388" y="70" on="0"/>
        <pt x="403" y="82" on="1"/>
        <pt x="436" y="206" on="1"/>
      </contour>
    </TTGlyph>
    <TTGlyph name="Cacute.loclPLK" xMin="30" yMin="-11" xMax="560" yMax="862">
      <contour>
        <pt x="496" y="862" on="1"/>
        <pt x="521" y="858" on="0"/>
        <pt x="556" y="819" on="0"/>
        <pt x="556" y="799" on="1"/>
        <pt x="556" y="779" on="0"/>
        <pt x="525" y="755" on="1"/>
        <pt x="406" y="663" on="1"/>
        <pt x="367" y="705" on="1"/>
      </contour>
      <contour>
        <pt x="505" y="206" on="1"/>
        <pt x="489" y="26" on="1"/>
        <pt x="442" y="8" on="0"/>
        <pt x="333" y="-11" on="0"/>
        <pt x="281" y="-11" on="1"/>
        <pt x="155" y="-11" on="0"/>
        <pt x="30" y="129" on="0"/>
        <pt x="30" y="244" on="1"/>
        <pt x="30" y="361" on="0"/>
        <pt x="110" y="550" on="0"/>
        <pt x="265" y="660" on="0"/>
        <pt x="373" y="660" on="1"/>
        <pt x="483" y="660" on="0"/>
        <pt x="560" y="640" on="1"/>
        <pt x="532" y="464" on="1"/>
        <pt x="463" y="464" on="1"/>
        <pt x="459" y="562" on="1"/>
        <pt x="410" y="595" on="0"/>
        <pt x="345" y="595" on="1"/>
        <pt x="265" y="595" on="0"/>
        <pt x="179" y="428" on="0"/>
        <pt x="179" y="253" on="1"/>
        <pt x="179" y="175" on="0"/>
        <pt x="204" y="90" on="0"/>
        <pt x="260" y="56" on="0"/>
        <pt x="310" y="56" on="1"/>
        <pt x="337" y="56" on="0"/>
        <pt x="388" y="70" on="0"/>
        <pt x="403" y="82" on="1"/>
        <pt x="436" y="206" on="1"/>
      </contour>
    </TTGlyph>
    <TTGlyph name="Ccaron" xMin="30" yMin="-11" xMax="560" yMax="839">
      <contour>
        <pt x="367" y="778" on="1"/>
        <pt x="491" y="837" on="1"/>
        <pt x="517" y="798" on="1"/>
        <pt x="427" y="724" on="1"/>
        <pt x="421" y="719" on="0"/>
        <pt x="382" y="687" on="0"/>
        <pt x="361" y="674" on="0"/>
        <pt x="355" y="674" on="1"/>
        <pt x="346" y="674" on="0"/>
        <pt x="325" y="690" on="0"/>
        <pt x="305" y="709" on="0"/>
        <pt x="302" y="712" on="1"/>
        <pt x="215" y="791" on="1"/>
        <pt x="254" y="839" on="1"/>
      </contour>
      <contour>
        <pt x="505" y="206" on="1"/>
        <pt x="489" y="26" on="1"/>
        <pt x="442" y="8" on="0"/>
        <pt x="333" y="-11" on="0"/>
        <pt x="281" y="-11" on="1"/>
        <pt x="155" y="-11" on="0"/>
        <pt x="30" y="129" on="0"/>
        <pt x="30" y="244" on="1"/>
        <pt x="30" y="361" on="0"/>
        <pt x="110" y="550" on="0"/>
        <pt x="265" y="660" on="0"/>
        <pt x="373" y="660" on="1"/>
        <pt x="483" y="660" on="0"/>
        <pt x="560" y="640" on="1"/>
        <pt x="532" y="464" on="1"/>
        <pt x="463" y="464" on="1"/>
        <pt x="459" y="562" on="1"/>
        <pt x="410" y="595" on="0"/>
        <pt x="345" y="595" on="1"/>
        <pt x="265" y="595" on="0"/>
        <pt x="179" y="428" on="0"/>
        <pt x="179" y="253" on="1"/>
        <pt x="179" y="175" on="0"/>
        <pt x="204" y="90" on="0"/>
        <pt x="260" y="56" on="0"/>
        <pt x="310" y="56" on="1"/>
        <pt x="337" y="56" on="0"/>
        <pt x="388" y="70" on="0"/>
        <pt x="403" y="82" on="1"/>
        <pt x="436" y="206" on="1"/>
      </contour>
    </TTGlyph>
    <TTGlyph name="Ccedilla" xMin="30" yMin="-194" xMax="560" yMax="660">
      <contour>
        <pt x="215" y="-121" on="0"/>
        <pt x="240" y="-131" on="0"/>
        <pt x="270" y="-136" on="0"/>
        <pt x="288" y="-136" on="1"/>
        <pt x="297" y="-136" on="0"/>
        <pt x="306" y="-128" on="0"/>
        <pt x="306" y="-122" on="1"/>
        <pt x="306" y="-115" on="0"/>
        <pt x="297" y="-106" on="0"/>
        <pt x="283" y="-99" on="1"/>
        <pt x="236" y="-76" on="1"/>
        <pt x="236" y="-51" on="1"/>
        <pt x="261" y="-10" on="1"/>
        <pt x="145" y="-4" on="0"/>
        <pt x="30" y="134" on="0"/>
        <pt x="30" y="244" on="1"/>
        <pt x="30" y="361" on="0"/>
        <pt x="110" y="550" on="0"/>
        <pt x="265" y="660" on="0"/>
        <pt x="373" y="660" on="1"/>
        <pt x="483" y="660" on="0"/>
        <pt x="560" y="640" on="1"/>
        <pt x="532" y="464" on="1"/>
        <pt x="463" y="464" on="1"/>
        <pt x="459" y="562" on="1"/>
        <pt x="410" y="595" on="0"/>
        <pt x="345" y="595" on="1"/>
        <pt x="265" y="595" on="0"/>
        <pt x="179" y="428" on="0"/>
        <pt x="179" y="253" on="1"/>
        <pt x="179" y="175" on="0"/>
        <pt x="204" y="90" on="0"/>
        <pt x="260" y="56" on="0"/>
        <pt x="310" y="56" on="1"/>
        <pt x="337" y="56" on="0"/>
        <pt x="388" y="70" on="0"/>
        <pt x="403" y="82" on="1"/>
        <pt x="436" y="206" on="1"/>
        <pt x="505" y="206" on="1"/>
        <pt x="489" y="26" on="1"/>
        <pt x="411" y="-4" on="0"/>
        <pt x="317" y="-10" on="1"/>
        <pt x="317" y="-28" on="1"/>
        <pt x="351" y="-46" on="1"/>
        <pt x="376" y="-59" on="0"/>
        <pt x="403" y="-89" on="0"/>
        <pt x="403" y="-112" on="1"/>
        <pt x="403" y="-152" on="0"/>
        <pt x="346" y="-194" on="0"/>
        <pt x="303" y="-194" on="1"/>
        <pt x="228" y="-194" on="0"/>
        <pt x="186" y="-167" on="1"/>
        <pt x="212" y="-120" on="1"/>
      </contour>
    </TTGlyph>
    <TTGlyph name="Ccircumflex" xMin="30" yMin="-11" xMax="560" yMax="839">
      <component glyphName=".ttfautohint" x="30" y="0" flags="0x0"/>
      <component glyphName="C" x="0" y="0" flags="0x0"/>
      <component glyphName="uni0302.case" x="492" y="0" flags="0x0"/>
    </TTGlyph>
    <TTGlyph name="Cdotaccent" xMin="30" yMin="-11" xMax="560" yMax="832">
      <component glyphName=".ttfautohint" x="30" y="0" flags="0x0"/>
      <component glyphName="C" x="0" y="0" flags="0x0"/>
      <component glyphName="uni0307.case" x="407" y="0" flags="0x0"/>
    </TTGlyph>
    <TTGlyph name="D" xMin="-13" yMin="0" xMax="622" yMax="648">
      <contour>
        <pt x="67" y="72" on="1"/>
        <pt x="138" y="576" on="1"/>
        <pt x="68" y="590" on="1"/>
        <pt x="76" y="648" on="1"/>
        <pt x="346" y="648" on="1"/>
        <pt x="483" y="648" on="0"/>
        <pt x="622" y="528" on="0"/>
        <pt x="622" y="408" on="1"/>
        <pt x="622" y="288" on="0"/>
        <pt x="531" y="102" on="0"/>
        <pt x="365" y="0" on="0"/>
        <pt x="257" y="0" on="1"/>
        <pt x="-13" y="0" on="1"/>
        <pt x="-4" y="58" on="1"/>
      </contour>
      <contour>
        <pt x="359" y="69" on="0"/>
        <pt x="473" y="223" on="0"/>
        <pt x="473" y="377" on="1"/>
        <pt x="473" y="462" on="0"/>
        <pt x="431" y="550" on="0"/>
        <pt x="356" y="579" on="0"/>
        <pt x="296" y="579" on="1"/>
        <pt x="273" y="579" on="1"/>
        <pt x="202" y="69" on="1"/>
        <pt x="260" y="69" on="1"/>
      </contour>
    </TTGlyph>
    <TTGlyph name="Dcaron" xMin="-13" yMin="0" xMax="622" yMax="839">
      <contour>
        <pt x="352" y="778" on="1"/>
        <pt x="476" y="837" on="1"/>
        <pt x="502" y="798" on="1"/>
        <pt x="412" y="724" on="1"/>
        <pt x="406" y="719" on="0"/>
        <pt x="367" y="687" on="0"/>
        <pt x="346" y="674" on="0"/>
        <pt x="340" y="674" on="1"/>
        <pt x="331" y="674" on="0"/>
        <pt x="310" y="690" on="0"/>
        <pt x="290" y="709" on="0"/>
        <pt x="287" y="712" on="1"/>
        <pt x="200" y="791" on="1"/>
        <pt x="239" y="839" on="1"/>
      </contour>
      <contour>
        <pt x="67" y="72" on="1"/>
        <pt x="138" y="576" on="1"/>
        <pt x="68" y="590" on="1"/>
        <pt x="76" y="648" on="1"/>
        <pt x="346" y="648" on="1"/>
        <pt x="483" y="648" on="0"/>
        <pt x="622" y="528" on="0"/>
        <pt x="622" y="408" on="1"/>
        <pt x="622" y="288" on="0"/>
        <pt x="531" y="102" on="0"/>
        <pt x="365" y="0" on="0"/>
        <pt x="257" y="0" on="1"/>
        <pt x="-13" y="0" on="1"/>
        <pt x="-4" y="58" on="1"/>
      </contour>
      <contour>
        <pt x="359" y="69" on="0"/>
        <pt x="473" y="223" on="0"/>
        <pt x="473" y="377" on="1"/>
        <pt x="473" y="462" on="0"/>
        <pt x="431" y="550" on="0"/>
        <pt x="356" y="579" on="0"/>
        <pt x="296" y="579" on="1"/>
        <pt x="273" y="579" on="1"/>
        <pt x="202" y="69" on="1"/>
        <pt x="260" y="69" on="1"/>
      </contour>
    </TTGlyph>
    <TTGlyph name="Dcroat" xMin="-13" yMin="0" xMax="622" yMax="648">
      <contour>
        <pt x="67" y="72" on="1"/>
        <pt x="99" y="299" on="1"/>
        <pt x="26" y="299" on="1"/>
        <pt x="36" y="366" on="1"/>
        <pt x="108" y="366" on="1"/>
        <pt x="138" y="576" on="1"/>
        <pt x="68" y="590" on="1"/>
        <pt x="76" y="648" on="1"/>
        <pt x="346" y="648" on="1"/>
        <pt x="483" y="648" on="0"/>
        <pt x="622" y="528" on="0"/>
        <pt x="622" y="408" on="1"/>
        <pt x="622" y="288" on="0"/>
        <pt x="531" y="102" on="0"/>
        <pt x="365" y="0" on="0"/>
        <pt x="257" y="0" on="1"/>
        <pt x="-13" y="0" on="1"/>
        <pt x="-4" y="58" on="1"/>
      </contour>
      <contour>
        <pt x="359" y="69" on="0"/>
        <pt x="473" y="223" on="0"/>
        <pt x="473" y="377" on="1"/>
        <pt x="473" y="462" on="0"/>
        <pt x="431" y="550" on="0"/>
        <pt x="356" y="579" on="0"/>
        <pt x="296" y="579" on="1"/>
        <pt x="273" y="579" on="1"/>
        <pt x="243" y="366" on="1"/>
        <pt x="368" y="366" on="1"/>
        <pt x="358" y="299" on="1"/>
        <pt x="234" y="299" on="1"/>
        <pt x="202" y="69" on="1"/>
        <pt x="260" y="69" on="1"/>
      </contour>
    </TTGlyph>
    <TTGlyph name="E" xMin="-13" yMin="0" xMax="533" yMax="648">
      <contour>
        <pt x="67" y="72" on="1"/>
        <pt x="138" y="576" on="1"/>
        <pt x="68" y="590" on="1"/>
        <pt x="76" y="648" on="1"/>
        <pt x="533" y="648" on="1"/>
        <pt x="505" y="464" on="1"/>
        <pt x="439" y="464" on="1"/>
        <pt x="439" y="579" on="1"/>
        <pt x="331" y="579" on="1"/>
        <pt x="273" y="572" on="1"/>
        <pt x="243" y="366" on="1"/>
        <pt x="357" y="366" on="1"/>
        <pt x="379" y="430" on="1"/>
        <pt x="439" y="430" on="1"/>
        <pt x="413" y="234" on="1"/>
        <pt x="355" y="234" on="1"/>
        <pt x="355" y="301" on="1"/>
        <pt x="234" y="301" on="1"/>
        <pt x="203" y="76" on="1"/>
        <pt x="282" y="69" on="1"/>
        <pt x="376" y="69" on="1"/>
        <pt x="416" y="180" on="1"/>
        <pt x="477" y="180" on="1"/>
        <pt x="455" y="0" on="1"/>
        <pt x="-13" y="0" on="1"/>
        <pt x="-4" y="58" on="1"/>
      </contour>
    </TTGlyph>
    <TTGlyph name="Eacute" xMin="-13" yMin="0" xMax="533" yMax="840">
      <contour>
        <pt x="225" y="722" on="1"/>
        <pt x="413" y="840" on="1"/>
        <pt x="451" y="819" on="0"/>
        <pt x="451" y="775" on="1"/>
        <pt x="451" y="760" on="0"/>
        <pt x="433" y="738" on="0"/>
        <pt x="406" y="729" on="1"/>
        <pt x="249" y="674" on="1"/>
      </contour>
      <contour>
        <pt x="67" y="72" on="1"/>
        <pt x="138" y="576" on="1"/>
        <pt x="68" y="590" on="1"/>
        <pt x="76" y="648" on="1"/>
        <pt x="533" y="648" on="1"/>
        <pt x="505" y="464" on="1"/>
        <pt x="439" y="464" on="1"/>
        <pt x="439" y="579" on="1"/>
        <pt x="331" y="579" on="1"/>
        <pt x="273" y="572" on="1"/>
        <pt x="243" y="366" on="1"/>
        <pt x="357" y="366" on="1"/>
        <pt x="379" y="430" on="1"/>
        <pt x="439" y="430" on="1"/>
        <pt x="413" y="234" on="1"/>
        <pt x="355" y="234" on="1"/>
        <pt x="355" y="301" on="1"/>
        <pt x="234" y="301" on="1"/>
        <pt x="203" y="76" on="1"/>
        <pt x="282" y="69" on="1"/>
        <pt x="376" y="69" on="1"/>
        <pt x="416" y="180" on="1"/>
        <pt x="477" y="180" on="1"/>
        <pt x="455" y="0" on="1"/>
        <pt x="-13" y="0" on="1"/>
        <pt x="-4" y="58" on="1"/>
      </contour>
    </TTGlyph>
    <TTGlyph name="Ebreve" xMin="-13" yMin="0" xMax="533" yMax="839">
      <component glyphName=".ttfautohint" x="0" y="0" flags="0x0"/>
      <component glyphName="E" x="0" y="0" flags="0x0"/>
      <component glyphName="uni0306.case" x="422" y="0" flags="0x0"/>
    </TTGlyph>
    <TTGlyph name="Ecaron" xMin="-13" yMin="0" xMax="533" yMax="839">
      <contour>
        <pt x="336" y="778" on="1"/>
        <pt x="460" y="837" on="1"/>
        <pt x="486" y="798" on="1"/>
        <pt x="396" y="724" on="1"/>
        <pt x="390" y="719" on="0"/>
        <pt x="351" y="687" on="0"/>
        <pt x="330" y="674" on="0"/>
        <pt x="324" y="674" on="1"/>
        <pt x="315" y="674" on="0"/>
        <pt x="294" y="690" on="0"/>
        <pt x="274" y="709" on="0"/>
        <pt x="271" y="712" on="1"/>
        <pt x="184" y="791" on="1"/>
        <pt x="223" y="839" on="1"/>
      </contour>
      <contour>
        <pt x="67" y="72" on="1"/>
        <pt x="138" y="576" on="1"/>
        <pt x="68" y="590" on="1"/>
        <pt x="76" y="648" on="1"/>
        <pt x="533" y="648" on="1"/>
        <pt x="505" y="464" on="1"/>
        <pt x="439" y="464" on="1"/>
        <pt x="439" y="579" on="1"/>
        <pt x="331" y="579" on="1"/>
        <pt x="273" y="572" on="1"/>
        <pt x="243" y="366" on="1"/>
        <pt x="357" y="366" on="1"/>
        <pt x="379" y="430" on="1"/>
        <pt x="439" y="430" on="1"/>
        <pt x="413" y="234" on="1"/>
        <pt x="355" y="234" on="1"/>
        <pt x="355" y="301" on="1"/>
        <pt x="234" y="301" on="1"/>
        <pt x="203" y="76" on="1"/>
        <pt x="282" y="69" on="1"/>
        <pt x="376" y="69" on="1"/>
        <pt x="416" y="180" on="1"/>
        <pt x="477" y="180" on="1"/>
        <pt x="455" y="0" on="1"/>
        <pt x="-13" y="0" on="1"/>
        <pt x="-4" y="58" on="1"/>
      </contour>
    </TTGlyph>
    <TTGlyph name="Ecircumflex" xMin="-13" yMin="0" xMax="533" yMax="839">
      <contour>
        <pt x="273" y="789" on="1"/>
        <pt x="279" y="794" on="0"/>
        <pt x="318" y="826" on="0"/>
        <pt x="339" y="839" on="0"/>
        <pt x="345" y="839" on="1"/>
        <pt x="353" y="839" on="0"/>
        <pt x="372" y="825" on="0"/>
        <pt x="393" y="806" on="0"/>
        <pt x="398" y="801" on="1"/>
        <pt x="485" y="722" on="1"/>
        <pt x="446" y="674" on="1"/>
        <pt x="333" y="735" on="1"/>
        <pt x="209" y="676" on="1"/>
        <pt x="183" y="715" on="1"/>
      </contour>
      <contour>
        <pt x="67" y="72" on="1"/>
        <pt x="138" y="576" on="1"/>
        <pt x="68" y="590" on="1"/>
        <pt x="76" y="648" on="1"/>
        <pt x="533" y="648" on="1"/>
        <pt x="505" y="464" on="1"/>
        <pt x="439" y="464" on="1"/>
        <pt x="439" y="579" on="1"/>
        <pt x="331" y="579" on="1"/>
        <pt x="273" y="572" on="1"/>
        <pt x="243" y="366" on="1"/>
        <pt x="357" y="366" on="1"/>
        <pt x="379" y="430" on="1"/>
        <pt x="439" y="430" on="1"/>
        <pt x="413" y="234" on="1"/>
        <pt x="355" y="234" on="1"/>
        <pt x="355" y="301" on="1"/>
        <pt x="234" y="301" on="1"/>
        <pt x="203" y="76" on="1"/>
        <pt x="282" y="69" on="1"/>
        <pt x="376" y="69" on="1"/>
        <pt x="416" y="180" on="1"/>
        <pt x="477" y="180" on="1"/>
        <pt x="455" y="0" on="1"/>
        <pt x="-13" y="0" on="1"/>
        <pt x="-4" y="58" on="1"/>
      </contour>
    </TTGlyph>
    <TTGlyph name="Edieresis" xMin="-13" yMin="0" xMax="533" yMax="832">
      <contour>
        <pt x="190" y="687" on="0"/>
        <pt x="155" y="724" on="0"/>
        <pt x="155" y="751" on="1"/>
        <pt x="155" y="783" on="0"/>
        <pt x="194" y="832" on="0"/>
        <pt x="229" y="832" on="1"/>
        <pt x="256" y="832" on="0"/>
        <pt x="292" y="796" on="0"/>
        <pt x="292" y="766" on="1"/>
        <pt x="292" y="734" on="0"/>
        <pt x="252" y="687" on="0"/>
        <pt x="217" y="687" on="1"/>
      </contour>
      <contour>
        <pt x="413" y="687" on="0"/>
        <pt x="378" y="724" on="0"/>
        <pt x="378" y="751" on="1"/>
        <pt x="378" y="783" on="0"/>
        <pt x="417" y="832" on="0"/>
        <pt x="452" y="832" on="1"/>
        <pt x="479" y="832" on="0"/>
        <pt x="515" y="796" on="0"/>
        <pt x="515" y="766" on="1"/>
        <pt x="515" y="734" on="0"/>
        <pt x="475" y="687" on="0"/>
        <pt x="440" y="687" on="1"/>
      </contour>
      <contour>
        <pt x="67" y="72" on="1"/>
        <pt x="138" y="576" on="1"/>
        <pt x="68" y="590" on="1"/>
        <pt x="76" y="648" on="1"/>
        <pt x="533" y="648" on="1"/>
        <pt x="505" y="464" on="1"/>
        <pt x="439" y="464" on="1"/>
        <pt x="439" y="579" on="1"/>
        <pt x="331" y="579" on="1"/>
        <pt x="273" y="572" on="1"/>
        <pt x="243" y="366" on="1"/>
        <pt x="357" y="366" on="1"/>
        <pt x="379" y="430" on="1"/>
        <pt x="439" y="430" on="1"/>
        <pt x="413" y="234" on="1"/>
        <pt x="355" y="234" on="1"/>
        <pt x="355" y="301" on="1"/>
        <pt x="234" y="301" on="1"/>
        <pt x="203" y="76" on="1"/>
        <pt x="282" y="69" on="1"/>
        <pt x="376" y="69" on="1"/>
        <pt x="416" y="180" on="1"/>
        <pt x="477" y="180" on="1"/>
        <pt x="455" y="0" on="1"/>
        <pt x="-13" y="0" on="1"/>
        <pt x="-4" y="58" on="1"/>
      </contour>
    </TTGlyph>
    <TTGlyph name="Edotaccent" xMin="-13" yMin="0" xMax="533" yMax="832">
      <contour>
        <pt x="298" y="681" on="0"/>
        <pt x="262" y="720" on="0"/>
        <pt x="262" y="748" on="1"/>
        <pt x="262" y="781" on="0"/>
        <pt x="303" y="832" on="0"/>
        <pt x="339" y="832" on="1"/>
        <pt x="368" y="832" on="0"/>
        <pt x="405" y="794" on="0"/>
        <pt x="405" y="763" on="1"/>
        <pt x="405" y="730" on="0"/>
        <pt x="364" y="681" on="0"/>
        <pt x="327" y="681" on="1"/>
      </contour>
      <contour>
        <pt x="67" y="72" on="1"/>
        <pt x="138" y="576" on="1"/>
        <pt x="68" y="590" on="1"/>
        <pt x="76" y="648" on="1"/>
        <pt x="533" y="648" on="1"/>
        <pt x="505" y="464" on="1"/>
        <pt x="439" y="464" on="1"/>
        <pt x="439" y="579" on="1"/>
        <pt x="331" y="579" on="1"/>
        <pt x="273" y="572" on="1"/>
        <pt x="243" y="366" on="1"/>
        <pt x="357" y="366" on="1"/>
        <pt x="379" y="430" on="1"/>
        <pt x="439" y="430" on="1"/>
        <pt x="413" y="234" on="1"/>
        <pt x="355" y="234" on="1"/>
        <pt x="355" y="301" on="1"/>
        <pt x="234" y="301" on="1"/>
        <pt x="203" y="76" on="1"/>
        <pt x="282" y="69" on="1"/>
        <pt x="376" y="69" on="1"/>
        <pt x="416" y="180" on="1"/>
        <pt x="477" y="180" on="1"/>
        <pt x="455" y="0" on="1"/>
        <pt x="-13" y="0" on="1"/>
        <pt x="-4" y="58" on="1"/>
      </contour>
    </TTGlyph>
    <TTGlyph name="Egrave" xMin="-13" yMin="0" xMax="533" yMax="840">
      <contour>
        <pt x="227" y="738" on="0"/>
        <pt x="209" y="759" on="0"/>
        <pt x="209" y="774" on="1"/>
        <pt x="209" y="800" on="0"/>
        <pt x="230" y="830" on="0"/>
        <pt x="247" y="840" on="1"/>
        <pt x="435" y="722" on="1"/>
        <pt x="411" y="674" on="1"/>
        <pt x="254" y="729" on="1"/>
      </contour>
      <contour>
        <pt x="67" y="72" on="1"/>
        <pt x="138" y="576" on="1"/>
        <pt x="68" y="590" on="1"/>
        <pt x="76" y="648" on="1"/>
        <pt x="533" y="648" on="1"/>
        <pt x="505" y="464" on="1"/>
        <pt x="439" y="464" on="1"/>
        <pt x="439" y="579" on="1"/>
        <pt x="331" y="579" on="1"/>
        <pt x="273" y="572" on="1"/>
        <pt x="243" y="366" on="1"/>
        <pt x="357" y="366" on="1"/>
        <pt x="379" y="430" on="1"/>
        <pt x="439" y="430" on="1"/>
        <pt x="413" y="234" on="1"/>
        <pt x="355" y="234" on="1"/>
        <pt x="355" y="301" on="1"/>
        <pt x="234" y="301" on="1"/>
        <pt x="203" y="76" on="1"/>
        <pt x="282" y="69" on="1"/>
        <pt x="376" y="69" on="1"/>
        <pt x="416" y="180" on="1"/>
        <pt x="477" y="180" on="1"/>
        <pt x="455" y="0" on="1"/>
        <pt x="-13" y="0" on="1"/>
        <pt x="-4" y="58" on="1"/>
      </contour>
    </TTGlyph>
    <TTGlyph name="Emacron" xMin="-13" yMin="0" xMax="533" yMax="798">
      <contour>
        <pt x="512" y="798" on="1"/>
        <pt x="502" y="716" on="1"/>
        <pt x="152" y="716" on="1"/>
        <pt x="162" y="798" on="1"/>
      </contour>
      <contour>
        <pt x="67" y="72" on="1"/>
        <pt x="138" y="576" on="1"/>
        <pt x="68" y="590" on="1"/>
        <pt x="76" y="648" on="1"/>
        <pt x="533" y="648" on="1"/>
        <pt x="505" y="464" on="1"/>
        <pt x="439" y="464" on="1"/>
        <pt x="439" y="579" on="1"/>
        <pt x="331" y="579" on="1"/>
        <pt x="273" y="572" on="1"/>
        <pt x="243" y="366" on="1"/>
        <pt x="357" y="366" on="1"/>
        <pt x="379" y="430" on="1"/>
        <pt x="439" y="430" on="1"/>
        <pt x="413" y="234" on="1"/>
        <pt x="355" y="234" on="1"/>
        <pt x="355" y="301" on="1"/>
        <pt x="234" y="301" on="1"/>
        <pt x="203" y="76" on="1"/>
        <pt x="282" y="69" on="1"/>
        <pt x="376" y="69" on="1"/>
        <pt x="416" y="180" on="1"/>
        <pt x="477" y="180" on="1"/>
        <pt x="455" y="0" on="1"/>
        <pt x="-13" y="0" on="1"/>
        <pt x="-4" y="58" on="1"/>
      </contour>
    </TTGlyph>
    <TTGlyph name="Eng" xMin="-16" yMin="-172" xMax="670" yMax="648">
      <contour>
        <pt x="670" y="648" on="1"/>
        <pt x="663" y="590" on="1"/>
        <pt x="592" y="576" on="1"/>
        <pt x="519" y="43" on="1"/>
        <pt x="511" y="-16" on="0"/>
        <pt x="450" y="-114" on="0"/>
        <pt x="352" y="-172" on="0"/>
        <pt x="292" y="-172" on="1"/>
        <pt x="254" y="-172" on="0"/>
        <pt x="220" y="-147" on="0"/>
        <pt x="220" y="-118" on="1"/>
        <pt x="220" y="-101" on="0"/>
        <pt x="232" y="-75" on="0"/>
        <pt x="235" y="-72" on="1"/>
        <pt x="316" y="-72" on="1"/>
        <pt x="335" y="-72" on="0"/>
        <pt x="364" y="-65" on="0"/>
        <pt x="366" y="-62" on="1"/>
        <pt x="380" y="-36" on="0"/>
        <pt x="390" y="22" on="1"/>
        <pt x="212" y="448" on="1"/>
        <pt x="211" y="463" on="1"/>
        <pt x="207" y="463" on="1"/>
        <pt x="151" y="72" on="1"/>
        <pt x="222" y="58" on="1"/>
        <pt x="215" y="0" on="1"/>
        <pt x="-16" y="0" on="1"/>
        <pt x="-7" y="58" on="1"/>
        <pt x="64" y="72" on="1"/>
        <pt x="135" y="576" on="1"/>
        <pt x="65" y="590" on="1"/>
        <pt x="73" y="648" on="1"/>
        <pt x="266" y="648" on="1"/>
        <pt x="448" y="213" on="1"/>
        <pt x="450" y="197" on="1"/>
        <pt x="454" y="197" on="1"/>
        <pt x="454" y="213" on="1"/>
        <pt x="506" y="576" on="1"/>
        <pt x="436" y="590" on="1"/>
        <pt x="443" y="648" on="1"/>
      </contour>
    </TTGlyph>
    <TTGlyph name="Eogonek" xMin="-13" yMin="-187" xMax="533" yMax="648">
      <contour>
        <pt x="67" y="72" on="1"/>
        <pt x="138" y="576" on="1"/>
        <pt x="68" y="590" on="1"/>
        <pt x="76" y="648" on="1"/>
        <pt x="533" y="648" on="1"/>
        <pt x="505" y="464" on="1"/>
        <pt x="439" y="464" on="1"/>
        <pt x="439" y="579" on="1"/>
        <pt x="331" y="579" on="1"/>
        <pt x="273" y="572" on="1"/>
        <pt x="243" y="366" on="1"/>
        <pt x="357" y="366" on="1"/>
        <pt x="379" y="430" on="1"/>
        <pt x="439" y="430" on="1"/>
        <pt x="413" y="234" on="1"/>
        <pt x="355" y="234" on="1"/>
        <pt x="355" y="301" on="1"/>
        <pt x="234" y="301" on="1"/>
        <pt x="203" y="76" on="1"/>
        <pt x="282" y="69" on="1"/>
        <pt x="376" y="69" on="1"/>
        <pt x="416" y="180" on="1"/>
        <pt x="477" y="180" on="1"/>
        <pt x="455" y="0" on="1"/>
        <pt x="426" y="0" on="1"/>
        <pt x="373" y="-39" on="0"/>
        <pt x="373" y="-84" on="1"/>
        <pt x="373" y="-103" on="0"/>
        <pt x="390" y="-118" on="0"/>
        <pt x="408" y="-118" on="1"/>
        <pt x="429" y="-118" on="0"/>
        <pt x="460" y="-99" on="1"/>
        <pt x="484" y="-134" on="1"/>
        <pt x="484" y="-136" on="0"/>
        <pt x="453" y="-163" on="0"/>
        <pt x="404" y="-187" on="0"/>
        <pt x="375" y="-187" on="1"/>
        <pt x="331" y="-187" on="0"/>
        <pt x="278" y="-151" on="0"/>
        <pt x="278" y="-116" on="1"/>
        <pt x="278" y="-48" on="0"/>
        <pt x="360" y="0" on="1"/>
        <pt x="-13" y="0" on="1"/>
        <pt x="-4" y="58" on="1"/>
      </contour>
    </TTGlyph>
    <TTGlyph name="Eth" xMin="-16" yMin="0" xMax="619" yMax="648">
      <contour>
        <pt x="64" y="72" on="1"/>
        <pt x="96" y="299" on="1"/>
        <pt x="23" y="299" on="1"/>
        <pt x="33" y="366" on="1"/>
        <pt x="105" y="366" on="1"/>
        <pt x="135" y="576" on="1"/>
        <pt x="65" y="590" on="1"/>
        <pt x="73" y="648" on="1"/>
        <pt x="343" y="648" on="1"/>
        <pt x="480" y="648" on="0"/>
        <pt x="619" y="528" on="0"/>
        <pt x="619" y="408" on="1"/>
        <pt x="619" y="288" on="0"/>
        <pt x="528" y="102" on="0"/>
        <pt x="362" y="0" on="0"/>
        <pt x="254" y="0" on="1"/>
        <pt x="-16" y="0" on="1"/>
        <pt x="-7" y="58" on="1"/>
      </contour>
      <contour>
        <pt x="356" y="69" on="0"/>
        <pt x="470" y="223" on="0"/>
        <pt x="470" y="377" on="1"/>
        <pt x="470" y="462" on="0"/>
        <pt x="428" y="550" on="0"/>
        <pt x="353" y="579" on="0"/>
        <pt x="293" y="579" on="1"/>
        <pt x="270" y="579" on="1"/>
        <pt x="240" y="366" on="1"/>
        <pt x="365" y="366" on="1"/>
        <pt x="355" y="299" on="1"/>
        <pt x="231" y="299" on="1"/>
        <pt x="199" y="69" on="1"/>
        <pt x="257" y="69" on="1"/>
      </contour>
    </TTGlyph>
    <TTGlyph name="Euro" xMin="-7" yMin="-11" xMax="560" yMax="660">
      <contour>
        <pt x="434" y="660" on="0"/>
        <pt x="527" y="650" on="0"/>
        <pt x="560" y="640" on="1"/>
        <pt x="532" y="464" on="1"/>
        <pt x="463" y="464" on="1"/>
        <pt x="459" y="562" on="1"/>
        <pt x="439" y="578" on="0"/>
        <pt x="391" y="595" on="0"/>
        <pt x="367" y="595" on="1"/>
        <pt x="307" y="595" on="0"/>
        <pt x="239" y="494" on="0"/>
        <pt x="225" y="415" on="1"/>
        <pt x="396" y="415" on="1"/>
        <pt x="363" y="338" on="1"/>
        <pt x="9" y="338" on="1"/>
        <pt x="41" y="415" on="1"/>
        <pt x="93" y="415" on="1"/>
        <pt x="125" y="524" on="0"/>
        <pt x="279" y="660" on="0"/>
        <pt x="399" y="660" on="1"/>
      </contour>
      <contour>
        <pt x="426" y="206" on="1"/>
        <pt x="495" y="206" on="1"/>
        <pt x="479" y="26" on="1"/>
        <pt x="436" y="9" on="0"/>
        <pt x="330" y="-11" on="0"/>
        <pt x="289" y="-11" on="1"/>
        <pt x="188" y="-11" on="0"/>
        <pt x="75" y="110" on="0"/>
        <pt x="63" y="214" on="1"/>
        <pt x="-7" y="214" on="1"/>
        <pt x="27" y="291" on="1"/>
        <pt x="343" y="291" on="1"/>
        <pt x="309" y="214" on="1"/>
        <pt x="202" y="214" on="1"/>
        <pt x="207" y="142" on="0"/>
        <pt x="252" y="56" on="0"/>
        <pt x="309" y="56" on="1"/>
        <pt x="331" y="56" on="0"/>
        <pt x="379" y="69" on="0"/>
        <pt x="393" y="82" on="1"/>
      </contour>
    </TTGlyph>
    <TTGlyph name="Euro.osf" xMin="-17" yMin="-11" xMax="524" yMax="533">
      <contour>
        <pt x="103" y="355" on="1"/>
        <pt x="135" y="442" on="0"/>
        <pt x="275" y="533" on="0"/>
        <pt x="367" y="533" on="1"/>
        <pt x="425" y="533" on="0"/>
        <pt x="492" y="523" on="0"/>
        <pt x="524" y="514" on="1"/>
        <pt x="506" y="359" on="1"/>
        <pt x="444" y="359" on="1"/>
        <pt x="439" y="444" on="1"/>
        <pt x="407" y="454" on="0"/>
        <pt x="364" y="454" on="1"/>
        <pt x="311" y="454" on="0"/>
        <pt x="246" y="409" on="0"/>
        <pt x="236" y="355" on="1"/>
        <pt x="386" y="355" on="1"/>
        <pt x="353" y="278" on="1"/>
        <pt x="37" y="278" on="1"/>
        <pt x="69" y="355" on="1"/>
      </contour>
      <contour>
        <pt x="333" y="231" on="1"/>
        <pt x="299" y="154" on="1"/>
        <pt x="218" y="154" on="1"/>
        <pt x="218" y="99" on="0"/>
        <pt x="277" y="62" on="0"/>
        <pt x="324" y="62" on="1"/>
        <pt x="368" y="62" on="0"/>
        <pt x="402" y="79" on="1"/>
        <pt x="430" y="176" on="1"/>
        <pt x="491" y="176" on="1"/>
        <pt x="477" y="24" on="1"/>
        <pt x="446" y="10" on="0"/>
        <pt x="353" y="-11" on="0"/>
        <pt x="298" y="-11" on="1"/>
        <pt x="191" y="-11" on="0"/>
        <pt x="75" y="63" on="0"/>
        <pt x="75" y="154" on="1"/>
        <pt x="-17" y="154" on="1"/>
        <pt x="17" y="231" on="1"/>
      </contour>
    </TTGlyph>
    <TTGlyph name="F" xMin="-13" yMin="0" xMax="537" yMax="648">
      <contour>
        <pt x="67" y="72" on="1"/>
        <pt x="138" y="576" on="1"/>
        <pt x="68" y="590" on="1"/>
        <pt x="76" y="648" on="1"/>
        <pt x="537" y="648" on="1"/>
        <pt x="508" y="464" on="1"/>
        <pt x="442" y="464" on="1"/>
        <pt x="442" y="579" on="1"/>
        <pt x="330" y="579" on="1"/>
        <pt x="272" y="572" on="1"/>
        <pt x="240" y="347" on="1"/>
        <pt x="366" y="347" on="1"/>
        <pt x="385" y="411" on="1"/>
        <pt x="443" y="411" on="1"/>
        <pt x="414" y="211" on="1"/>
        <pt x="358" y="211" on="1"/>
        <pt x="358" y="278" on="1"/>
        <pt x="231" y="278" on="1"/>
        <pt x="201" y="67" on="1"/>
        <pt x="298" y="54" on="1"/>
        <pt x="292" y="0" on="1"/>
        <pt x="-13" y="0" on="1"/>
        <pt x="-4" y="58" on="1"/>
      </contour>
    </TTGlyph>
    <TTGlyph name="G" xMin="30" yMin="-11" xMax="569" yMax="660">
      <contour>
        <pt x="394" y="23" on="1"/>
        <pt x="386" y="18" on="0"/>
        <pt x="353" y="-1" on="0"/>
        <pt x="309" y="-11" on="0"/>
        <pt x="273" y="-11" on="1"/>
        <pt x="160" y="-11" on="0"/>
        <pt x="30" y="112" on="0"/>
        <pt x="30" y="240" on="1"/>
        <pt x="30" y="356" on="0"/>
        <pt x="109" y="547" on="0"/>
        <pt x="265" y="660" on="0"/>
        <pt x="377" y="660" on="1"/>
        <pt x="439" y="660" on="0"/>
        <pt x="539" y="648" on="0"/>
        <pt x="569" y="640" on="1"/>
        <pt x="541" y="463" on="1"/>
        <pt x="472" y="463" on="1"/>
        <pt x="466" y="564" on="1"/>
        <pt x="414" y="595" on="0"/>
        <pt x="350" y="595" on="1"/>
        <pt x="263" y="595" on="0"/>
        <pt x="179" y="424" on="0"/>
        <pt x="179" y="241" on="1"/>
        <pt x="179" y="175" on="0"/>
        <pt x="201" y="96" on="0"/>
        <pt x="257" y="55" on="0"/>
        <pt x="309" y="55" on="1"/>
        <pt x="329" y="55" on="0"/>
        <pt x="365" y="66" on="0"/>
        <pt x="385" y="77" on="0"/>
        <pt x="388" y="79" on="1"/>
        <pt x="413" y="261" on="1"/>
        <pt x="306" y="278" on="1"/>
        <pt x="311" y="334" on="1"/>
        <pt x="549" y="334" on="1"/>
        <pt x="506" y="0" on="1"/>
        <pt x="417" y="0" on="1"/>
        <pt x="401" y="23" on="1"/>
      </contour>
    </TTGlyph>
    <TTGlyph name="G_tilde.loclGUA" xMin="30" yMin="-11" xMax="598" yMax="825">
      <component glyphName=".ttfautohint" x="30" y="0" flags="0x0"/>
      <component glyphName="G" x="0" y="0" flags="0x0"/>
      <component glyphName="tildecomb.case" x="524" y="0" flags="0x0"/>
    </TTGlyph>
    <TTGlyph name="Gbreve" xMin="30" yMin="-11" xMax="569" yMax="839">
      <contour>
        <pt x="522" y="763" on="0"/>
        <pt x="434" y="679" on="0"/>
        <pt x="358" y="679" on="1"/>
        <pt x="326" y="679" on="0"/>
        <pt x="262" y="706" on="0"/>
        <pt x="221" y="752" on="0"/>
        <pt x="221" y="779" on="1"/>
        <pt x="221" y="794" on="0"/>
        <pt x="259" y="825" on="0"/>
        <pt x="289" y="836" on="1"/>
        <pt x="306" y="802" on="0"/>
        <pt x="348" y="776" on="0"/>
        <pt x="377" y="776" on="1"/>
        <pt x="423" y="776" on="0"/>
        <pt x="487" y="807" on="0"/>
        <pt x="519" y="839" on="1"/>
        <pt x="551" y="814" on="1"/>
      </contour>
      <contour>
        <pt x="394" y="23" on="1"/>
        <pt x="386" y="18" on="0"/>
        <pt x="353" y="-1" on="0"/>
        <pt x="309" y="-11" on="0"/>
        <pt x="273" y="-11" on="1"/>
        <pt x="160" y="-11" on="0"/>
        <pt x="30" y="112" on="0"/>
        <pt x="30" y="240" on="1"/>
        <pt x="30" y="356" on="0"/>
        <pt x="109" y="547" on="0"/>
        <pt x="265" y="660" on="0"/>
        <pt x="377" y="660" on="1"/>
        <pt x="439" y="660" on="0"/>
        <pt x="539" y="648" on="0"/>
        <pt x="569" y="640" on="1"/>
        <pt x="541" y="463" on="1"/>
        <pt x="472" y="463" on="1"/>
        <pt x="466" y="564" on="1"/>
        <pt x="414" y="595" on="0"/>
        <pt x="350" y="595" on="1"/>
        <pt x="263" y="595" on="0"/>
        <pt x="179" y="424" on="0"/>
        <pt x="179" y="241" on="1"/>
        <pt x="179" y="175" on="0"/>
        <pt x="201" y="96" on="0"/>
        <pt x="257" y="55" on="0"/>
        <pt x="309" y="55" on="1"/>
        <pt x="329" y="55" on="0"/>
        <pt x="365" y="66" on="0"/>
        <pt x="385" y="77" on="0"/>
        <pt x="388" y="79" on="1"/>
        <pt x="413" y="261" on="1"/>
        <pt x="306" y="278" on="1"/>
        <pt x="311" y="334" on="1"/>
        <pt x="549" y="334" on="1"/>
        <pt x="506" y="0" on="1"/>
        <pt x="417" y="0" on="1"/>
        <pt x="401" y="23" on="1"/>
      </contour>
    </TTGlyph>
    <TTGlyph name="Gcaron" xMin="30" yMin="-11" xMax="569" yMax="839">
      <component glyphName=".ttfautohint" x="30" y="0" flags="0x0"/>
      <component glyphName="G" x="0" y="0" flags="0x0"/>
      <component glyphName="uni030C.case" x="473" y="0" flags="0x0"/>
    </TTGlyph>
    <TTGlyph name="Gcircumflex" xMin="30" yMin="-11" xMax="569" yMax="839">
      <component glyphName=".ttfautohint" x="30" y="0" flags="0x0"/>
      <component glyphName="G" x="0" y="0" flags="0x0"/>
      <component glyphName="uni0302.case" x="484" y="0" flags="0x0"/>
    </TTGlyph>
    <TTGlyph name="Gcommaaccent" xMin="30" yMin="-217" xMax="569" yMax="660">
      <contour>
        <pt x="394" y="23" on="1"/>
        <pt x="386" y="18" on="0"/>
        <pt x="353" y="-1" on="0"/>
        <pt x="309" y="-11" on="0"/>
        <pt x="273" y="-11" on="1"/>
        <pt x="160" y="-11" on="0"/>
        <pt x="30" y="112" on="0"/>
        <pt x="30" y="240" on="1"/>
        <pt x="30" y="356" on="0"/>
        <pt x="109" y="547" on="0"/>
        <pt x="265" y="660" on="0"/>
        <pt x="377" y="660" on="1"/>
        <pt x="439" y="660" on="0"/>
        <pt x="539" y="648" on="0"/>
        <pt x="569" y="640" on="1"/>
        <pt x="541" y="463" on="1"/>
        <pt x="472" y="463" on="1"/>
        <pt x="466" y="564" on="1"/>
        <pt x="414" y="595" on="0"/>
        <pt x="350" y="595" on="1"/>
        <pt x="263" y="595" on="0"/>
        <pt x="179" y="424" on="0"/>
        <pt x="179" y="241" on="1"/>
        <pt x="179" y="175" on="0"/>
        <pt x="201" y="96" on="0"/>
        <pt x="257" y="55" on="0"/>
        <pt x="309" y="55" on="1"/>
        <pt x="329" y="55" on="0"/>
        <pt x="365" y="66" on="0"/>
        <pt x="385" y="77" on="0"/>
        <pt x="388" y="79" on="1"/>
        <pt x="413" y="261" on="1"/>
        <pt x="306" y="278" on="1"/>
        <pt x="311" y="334" on="1"/>
        <pt x="549" y="334" on="1"/>
        <pt x="506" y="0" on="1"/>
        <pt x="417" y="0" on="1"/>
        <pt x="401" y="23" on="1"/>
      </contour>
      <contour>
        <pt x="217" y="-183" on="0"/>
        <pt x="234" y="-162" on="0"/>
        <pt x="250" y="-126" on="0"/>
        <pt x="250" y="-105" on="1"/>
        <pt x="250" y="-93" on="0"/>
        <pt x="242" y="-71" on="0"/>
        <pt x="232" y="-59" on="0"/>
        <pt x="231" y="-57" on="1"/>
        <pt x="239" y="-43" on="0"/>
        <pt x="270" y="-24" on="0"/>
        <pt x="288" y="-24" on="1"/>
        <pt x="319" y="-24" on="0"/>
        <pt x="350" y="-59" on="0"/>
        <pt x="350" y="-83" on="1"/>
        <pt x="350" y="-123" on="0"/>
        <pt x="300" y="-181" on="0"/>
        <pt x="238" y="-217" on="0"/>
        <pt x="238" y="-215" on="1"/>
        <pt x="214" y="-186" on="1"/>
      </contour>
    </TTGlyph>
    <TTGlyph name="Gdotaccent" xMin="30" yMin="-11" xMax="569" yMax="832">
      <component glyphName=".ttfautohint" x="30" y="0" flags="0x0"/>
      <component glyphName="G" x="0" y="0" flags="0x0"/>
      <component glyphName="uni0307.case" x="399" y="0" flags="0x0"/>
    </TTGlyph>
    <TTGlyph name="H" xMin="-13" yMin="0" xMax="690" yMax="648">
      <contour>
        <pt x="66" y="72" on="1"/>
        <pt x="137" y="576" on="1"/>
        <pt x="67" y="590" on="1"/>
        <pt x="75" y="648" on="1"/>
        <pt x="350" y="648" on="1"/>
        <pt x="342" y="590" on="1"/>
        <pt x="271" y="576" on="1"/>
        <pt x="241" y="362" on="1"/>
        <pt x="446" y="362" on="1"/>
        <pt x="477" y="576" on="1"/>
        <pt x="407" y="590" on="1"/>
        <pt x="415" y="648" on="1"/>
        <pt x="690" y="648" on="1"/>
        <pt x="682" y="590" on="1"/>
        <pt x="611" y="576" on="1"/>
        <pt x="539" y="72" on="1"/>
        <pt x="609" y="58" on="1"/>
        <pt x="601" y="0" on="1"/>
        <pt x="326" y="0" on="1"/>
        <pt x="334" y="58" on="1"/>
        <pt x="405" y="72" on="1"/>
        <pt x="436" y="295" on="1"/>
        <pt x="231" y="295" on="1"/>
        <pt x="200" y="72" on="1"/>
        <pt x="270" y="58" on="1"/>
        <pt x="262" y="0" on="1"/>
        <pt x="-13" y="0" on="1"/>
        <pt x="-5" y="58" on="1"/>
      </contour>
    </TTGlyph>
    <TTGlyph name="Hbar" xMin="-13" yMin="0" xMax="690" yMax="648">
      <contour>
        <pt x="611" y="576" on="1"/>
        <pt x="599" y="494" on="1"/>
        <pt x="669" y="494" on="1"/>
        <pt x="659" y="427" on="1"/>
        <pt x="590" y="427" on="1"/>
        <pt x="539" y="72" on="1"/>
        <pt x="609" y="58" on="1"/>
        <pt x="601" y="0" on="1"/>
        <pt x="326" y="0" on="1"/>
        <pt x="334" y="58" on="1"/>
        <pt x="405" y="72" on="1"/>
        <pt x="433" y="265" on="1"/>
        <pt x="227" y="265" on="1"/>
        <pt x="200" y="72" on="1"/>
        <pt x="270" y="58" on="1"/>
        <pt x="262" y="0" on="1"/>
        <pt x="-13" y="0" on="1"/>
        <pt x="-5" y="58" on="1"/>
        <pt x="66" y="72" on="1"/>
        <pt x="116" y="427" on="1"/>
        <pt x="47" y="427" on="1"/>
        <pt x="57" y="494" on="1"/>
        <pt x="125" y="494" on="1"/>
        <pt x="137" y="576" on="1"/>
        <pt x="67" y="590" on="1"/>
        <pt x="75" y="648" on="1"/>
        <pt x="350" y="648" on="1"/>
        <pt x="342" y="590" on="1"/>
        <pt x="271" y="576" on="1"/>
        <pt x="259" y="494" on="1"/>
        <pt x="465" y="494" on="1"/>
        <pt x="477" y="576" on="1"/>
        <pt x="407" y="590" on="1"/>
        <pt x="415" y="648" on="1"/>
        <pt x="690" y="648" on="1"/>
        <pt x="682" y="590" on="1"/>
      </contour>
      <contour>
        <pt x="456" y="427" on="1"/>
        <pt x="250" y="427" on="1"/>
        <pt x="237" y="332" on="1"/>
        <pt x="442" y="332" on="1"/>
      </contour>
    </TTGlyph>
    <TTGlyph name="Hcircumflex" xMin="-13" yMin="0" xMax="690" yMax="839">
      <component glyphName=".ttfautohint" x="0" y="0" flags="0x0"/>
      <component glyphName="H" x="0" y="0" flags="0x0"/>
      <component glyphName="uni0302.case" x="484" y="0" flags="0x0"/>
    </TTGlyph>
    <TTGlyph name="I" xMin="-13" yMin="0" xMax="351" yMax="648">
      <contour>
        <pt x="67" y="72" on="1"/>
        <pt x="138" y="576" on="1"/>
        <pt x="68" y="590" on="1"/>
        <pt x="76" y="648" on="1"/>
        <pt x="351" y="648" on="1"/>
        <pt x="343" y="590" on="1"/>
        <pt x="272" y="576" on="1"/>
        <pt x="201" y="72" on="1"/>
        <pt x="271" y="58" on="1"/>
        <pt x="262" y="0" on="1"/>
        <pt x="-13" y="0" on="1"/>
        <pt x="-4" y="58" on="1"/>
      </contour>
    </TTGlyph>
    <TTGlyph name="IJ" xMin="-13" yMin="-14" xMax="795" yMax="648">
      <component glyphName=".ttfautohint" x="0" y="0" flags="0x0"/>
      <component glyphName="I" x="0" y="0" flags="0x0"/>
      <component glyphName="J" x="334" y="0" flags="0x0"/>
    </TTGlyph>
    <TTGlyph name="Iacute" xMin="-13" yMin="0" xMax="351" yMax="840">
      <contour>
        <pt x="125" y="722" on="1"/>
        <pt x="313" y="840" on="1"/>
        <pt x="351" y="819" on="0"/>
        <pt x="351" y="775" on="1"/>
        <pt x="351" y="760" on="0"/>
        <pt x="333" y="738" on="0"/>
        <pt x="306" y="729" on="1"/>
        <pt x="149" y="674" on="1"/>
      </contour>
      <contour>
        <pt x="67" y="72" on="1"/>
        <pt x="138" y="576" on="1"/>
        <pt x="68" y="590" on="1"/>
        <pt x="76" y="648" on="1"/>
        <pt x="351" y="648" on="1"/>
        <pt x="343" y="590" on="1"/>
        <pt x="272" y="576" on="1"/>
        <pt x="201" y="72" on="1"/>
        <pt x="271" y="58" on="1"/>
        <pt x="262" y="0" on="1"/>
        <pt x="-13" y="0" on="1"/>
        <pt x="-4" y="58" on="1"/>
      </contour>
    </TTGlyph>
    <TTGlyph name="Iacute_J.loclNLD" xMin="-13" yMin="-14" xMax="838" yMax="840">
      <component glyphName=".ttfautohint" x="0" y="0" flags="0x0"/>
      <component glyphName="I" x="0" y="0" flags="0x0"/>
      <component glyphName="acutecomb.case" x="320" y="0" flags="0x0"/>
      <component glyphName="J" x="334" y="0" flags="0x0"/>
      <component glyphName="acutecomb.case" x="766" y="0" flags="0x0"/>
    </TTGlyph>
    <TTGlyph name="Ibreve" xMin="-13" yMin="0" xMax="395" yMax="839">
      <component glyphName=".ttfautohint" x="0" y="0" flags="0x0"/>
      <component glyphName="I" x="0" y="0" flags="0x0"/>
      <component glyphName="uni0306.case" x="316" y="0" flags="0x0"/>
    </TTGlyph>
    <TTGlyph name="Icircumflex" xMin="-13" yMin="0" xMax="383" yMax="839">
      <contour>
        <pt x="171" y="789" on="1"/>
        <pt x="177" y="794" on="0"/>
        <pt x="216" y="826" on="0"/>
        <pt x="237" y="839" on="0"/>
        <pt x="243" y="839" on="1"/>
        <pt x="251" y="839" on="0"/>
        <pt x="270" y="825" on="0"/>
        <pt x="291" y="806" on="0"/>
        <pt x="296" y="801" on="1"/>
        <pt x="383" y="722" on="1"/>
        <pt x="344" y="674" on="1"/>
        <pt x="231" y="735" on="1"/>
        <pt x="107" y="676" on="1"/>
        <pt x="81" y="715" on="1"/>
      </contour>
      <contour>
        <pt x="67" y="72" on="1"/>
        <pt x="138" y="576" on="1"/>
        <pt x="68" y="590" on="1"/>
        <pt x="76" y="648" on="1"/>
        <pt x="351" y="648" on="1"/>
        <pt x="343" y="590" on="1"/>
        <pt x="272" y="576" on="1"/>
        <pt x="201" y="72" on="1"/>
        <pt x="271" y="58" on="1"/>
        <pt x="262" y="0" on="1"/>
        <pt x="-13" y="0" on="1"/>
        <pt x="-4" y="58" on="1"/>
      </contour>
    </TTGlyph>
    <TTGlyph name="Idieresis" xMin="-13" yMin="0" xMax="408" yMax="832">
      <contour>
        <pt x="83" y="687" on="0"/>
        <pt x="48" y="724" on="0"/>
        <pt x="48" y="751" on="1"/>
        <pt x="48" y="783" on="0"/>
        <pt x="87" y="832" on="0"/>
        <pt x="122" y="832" on="1"/>
        <pt x="149" y="832" on="0"/>
        <pt x="185" y="796" on="0"/>
        <pt x="185" y="766" on="1"/>
        <pt x="185" y="734" on="0"/>
        <pt x="145" y="687" on="0"/>
        <pt x="110" y="687" on="1"/>
      </contour>
      <contour>
        <pt x="306" y="687" on="0"/>
        <pt x="271" y="724" on="0"/>
        <pt x="271" y="751" on="1"/>
        <pt x="271" y="783" on="0"/>
        <pt x="310" y="832" on="0"/>
        <pt x="345" y="832" on="1"/>
        <pt x="372" y="832" on="0"/>
        <pt x="408" y="796" on="0"/>
        <pt x="408" y="766" on="1"/>
        <pt x="408" y="734" on="0"/>
        <pt x="368" y="687" on="0"/>
        <pt x="333" y="687" on="1"/>
      </contour>
      <contour>
        <pt x="67" y="72" on="1"/>
        <pt x="138" y="576" on="1"/>
        <pt x="68" y="590" on="1"/>
        <pt x="76" y="648" on="1"/>
        <pt x="351" y="648" on="1"/>
        <pt x="343" y="590" on="1"/>
        <pt x="272" y="576" on="1"/>
        <pt x="201" y="72" on="1"/>
        <pt x="271" y="58" on="1"/>
        <pt x="262" y="0" on="1"/>
        <pt x="-13" y="0" on="1"/>
        <pt x="-4" y="58" on="1"/>
      </contour>
    </TTGlyph>
    <TTGlyph name="Idotaccent" xMin="-13" yMin="0" xMax="351" yMax="832">
      <contour>
        <pt x="200" y="681" on="0"/>
        <pt x="164" y="720" on="0"/>
        <pt x="164" y="748" on="1"/>
        <pt x="164" y="781" on="0"/>
        <pt x="205" y="832" on="0"/>
        <pt x="241" y="832" on="1"/>
        <pt x="270" y="832" on="0"/>
        <pt x="307" y="794" on="0"/>
        <pt x="307" y="763" on="1"/>
        <pt x="307" y="730" on="0"/>
        <pt x="266" y="681" on="0"/>
        <pt x="229" y="681" on="1"/>
      </contour>
      <contour>
        <pt x="67" y="72" on="1"/>
        <pt x="138" y="576" on="1"/>
        <pt x="68" y="590" on="1"/>
        <pt x="76" y="648" on="1"/>
        <pt x="351" y="648" on="1"/>
        <pt x="343" y="590" on="1"/>
        <pt x="272" y="576" on="1"/>
        <pt x="201" y="72" on="1"/>
        <pt x="271" y="58" on="1"/>
        <pt x="262" y="0" on="1"/>
        <pt x="-13" y="0" on="1"/>
        <pt x="-4" y="58" on="1"/>
      </contour>
    </TTGlyph>
    <TTGlyph name="Igrave" xMin="-13" yMin="0" xMax="351" yMax="840">
      <contour>
        <pt x="126" y="738" on="0"/>
        <pt x="108" y="759" on="0"/>
        <pt x="108" y="774" on="1"/>
        <pt x="108" y="800" on="0"/>
        <pt x="129" y="830" on="0"/>
        <pt x="146" y="840" on="1"/>
        <pt x="334" y="722" on="1"/>
        <pt x="310" y="674" on="1"/>
        <pt x="153" y="729" on="1"/>
      </contour>
      <contour>
        <pt x="67" y="72" on="1"/>
        <pt x="138" y="576" on="1"/>
        <pt x="68" y="590" on="1"/>
        <pt x="76" y="648" on="1"/>
        <pt x="351" y="648" on="1"/>
        <pt x="343" y="590" on="1"/>
        <pt x="272" y="576" on="1"/>
        <pt x="201" y="72" on="1"/>
        <pt x="271" y="58" on="1"/>
        <pt x="262" y="0" on="1"/>
        <pt x="-13" y="0" on="1"/>
        <pt x="-4" y="58" on="1"/>
      </contour>
    </TTGlyph>
    <TTGlyph name="Imacron" xMin="-13" yMin="0" xMax="392" yMax="798">
      <contour>
        <pt x="392" y="798" on="1"/>
        <pt x="382" y="716" on="1"/>
        <pt x="52" y="716" on="1"/>
        <pt x="62" y="798" on="1"/>
      </contour>
      <contour>
        <pt x="67" y="72" on="1"/>
        <pt x="138" y="576" on="1"/>
        <pt x="68" y="590" on="1"/>
        <pt x="76" y="648" on="1"/>
        <pt x="351" y="648" on="1"/>
        <pt x="343" y="590" on="1"/>
        <pt x="272" y="576" on="1"/>
        <pt x="201" y="72" on="1"/>
        <pt x="271" y="58" on="1"/>
        <pt x="262" y="0" on="1"/>
        <pt x="-13" y="0" on="1"/>
        <pt x="-4" y="58" on="1"/>
      </contour>
    </TTGlyph>
    <TTGlyph name="Iogonek" xMin="-13" yMin="-187" xMax="351" yMax="648">
      <contour>
        <pt x="67" y="72" on="1"/>
        <pt x="138" y="576" on="1"/>
        <pt x="68" y="590" on="1"/>
        <pt x="76" y="648" on="1"/>
        <pt x="351" y="648" on="1"/>
        <pt x="343" y="590" on="1"/>
        <pt x="272" y="576" on="1"/>
        <pt x="201" y="72" on="1"/>
        <pt x="271" y="58" on="1"/>
        <pt x="262" y="0" on="1"/>
        <pt x="180" y="0" on="1"/>
        <pt x="127" y="-39" on="0"/>
        <pt x="127" y="-84" on="1"/>
        <pt x="127" y="-103" on="0"/>
        <pt x="144" y="-118" on="0"/>
        <pt x="162" y="-118" on="1"/>
        <pt x="183" y="-118" on="0"/>
        <pt x="214" y="-99" on="1"/>
        <pt x="238" y="-134" on="1"/>
        <pt x="238" y="-136" on="0"/>
        <pt x="207" y="-163" on="0"/>
        <pt x="158" y="-187" on="0"/>
        <pt x="129" y="-187" on="1"/>
        <pt x="85" y="-187" on="0"/>
        <pt x="32" y="-151" on="0"/>
        <pt x="32" y="-116" on="1"/>
        <pt x="32" y="-48" on="0"/>
        <pt x="114" y="0" on="1"/>
        <pt x="-13" y="0" on="1"/>
        <pt x="-4" y="58" on="1"/>
      </contour>
    </TTGlyph>
    <TTGlyph name="Itilde" xMin="-13" yMin="0" xMax="429" yMax="825">
      <component glyphName=".ttfautohint" x="0" y="0" flags="0x0"/>
      <component glyphName="I" x="0" y="0" flags="0x0"/>
      <component glyphName="tildecomb.case" x="355" y="0" flags="0x0"/>
    </TTGlyph>
    <TTGlyph name="J" xMin="-21" yMin="-14" xMax="461" yMax="648">
      <contour>
        <pt x="74" y="193" on="1"/>
        <pt x="88" y="68" on="1"/>
        <pt x="89" y="67" on="0"/>
        <pt x="99" y="60" on="0"/>
        <pt x="118" y="54" on="0"/>
        <pt x="130" y="54" on="1"/>
        <pt x="156" y="54" on="0"/>
        <pt x="180" y="79" on="0"/>
        <pt x="186" y="120" on="1"/>
        <pt x="249" y="576" on="1"/>
        <pt x="179" y="590" on="1"/>
        <pt x="186" y="648" on="1"/>
        <pt x="461" y="648" on="1"/>
        <pt x="454" y="590" on="1"/>
        <pt x="383" y="576" on="1"/>
        <pt x="322" y="129" on="1"/>
        <pt x="315" y="79" on="0"/>
        <pt x="276" y="18" on="0"/>
        <pt x="192" y="-14" on="0"/>
        <pt x="120" y="-14" on="1"/>
        <pt x="86" y="-14" on="0"/>
        <pt x="0" y="3" on="0"/>
        <pt x="-21" y="13" on="1"/>
        <pt x="3" y="193" on="1"/>
      </contour>
    </TTGlyph>
    <TTGlyph name="Jcircumflex" xMin="-21" yMin="-14" xMax="492" yMax="839">
      <component glyphName=".ttfautohint" x="0" y="0" flags="0x0"/>
      <component glyphName="J" x="0" y="0" flags="0x0"/>
      <component glyphName="uni0302.case" x="427" y="0" flags="0x0"/>
    </TTGlyph>
    <TTGlyph name="K" xMin="-13" yMin="0" xMax="615" yMax="648">
      <contour>
        <pt x="67" y="72" on="1"/>
        <pt x="138" y="576" on="1"/>
        <pt x="68" y="590" on="1"/>
        <pt x="76" y="648" on="1"/>
        <pt x="351" y="648" on="1"/>
        <pt x="343" y="590" on="1"/>
        <pt x="272" y="576" on="1"/>
        <pt x="241" y="360" on="1"/>
        <pt x="249" y="360" on="1"/>
        <pt x="443" y="573" on="1"/>
        <pt x="443" y="579" on="1"/>
        <pt x="393" y="590" on="1"/>
        <pt x="400" y="648" on="1"/>
        <pt x="615" y="648" on="1"/>
        <pt x="606" y="590" on="1"/>
        <pt x="546" y="577" on="1"/>
        <pt x="347" y="360" on="1"/>
        <pt x="496" y="74" on="1"/>
        <pt x="573" y="58" on="1"/>
        <pt x="564" y="0" on="1"/>
        <pt x="418" y="0" on="1"/>
        <pt x="397" y="0" on="0"/>
        <pt x="376" y="21" on="0"/>
        <pt x="364" y="46" on="1"/>
        <pt x="241" y="300" on="1"/>
        <pt x="233" y="300" on="1"/>
        <pt x="201" y="72" on="1"/>
        <pt x="271" y="58" on="1"/>
        <pt x="262" y="0" on="1"/>
        <pt x="-13" y="0" on="1"/>
        <pt x="-4" y="58" on="1"/>
      </contour>
    </TTGlyph>
    <TTGlyph name="Kcommaaccent" xMin="-13" yMin="-217" xMax="615" yMax="648">
      <contour>
        <pt x="67" y="72" on="1"/>
        <pt x="138" y="576" on="1"/>
        <pt x="68" y="590" on="1"/>
        <pt x="76" y="648" on="1"/>
        <pt x="351" y="648" on="1"/>
        <pt x="343" y="590" on="1"/>
        <pt x="272" y="576" on="1"/>
        <pt x="241" y="360" on="1"/>
        <pt x="249" y="360" on="1"/>
        <pt x="443" y="573" on="1"/>
        <pt x="443" y="579" on="1"/>
        <pt x="393" y="590" on="1"/>
        <pt x="400" y="648" on="1"/>
        <pt x="615" y="648" on="1"/>
        <pt x="606" y="590" on="1"/>
        <pt x="546" y="577" on="1"/>
        <pt x="347" y="360" on="1"/>
        <pt x="496" y="74" on="1"/>
        <pt x="573" y="58" on="1"/>
        <pt x="564" y="0" on="1"/>
        <pt x="418" y="0" on="1"/>
        <pt x="397" y="0" on="0"/>
        <pt x="376" y="21" on="0"/>
        <pt x="364" y="46" on="1"/>
        <pt x="241" y="300" on="1"/>
        <pt x="233" y="300" on="1"/>
        <pt x="201" y="72" on="1"/>
        <pt x="271" y="58" on="1"/>
        <pt x="262" y="0" on="1"/>
        <pt x="-13" y="0" on="1"/>
        <pt x="-4" y="58" on="1"/>
      </contour>
      <contour>
        <pt x="213" y="-183" on="0"/>
        <pt x="230" y="-162" on="0"/>
        <pt x="246" y="-126" on="0"/>
        <pt x="246" y="-105" on="1"/>
        <pt x="246" y="-93" on="0"/>
        <pt x="238" y="-71" on="0"/>
        <pt x="228" y="-59" on="0"/>
        <pt x="227" y="-57" on="1"/>
        <pt x="235" y="-43" on="0"/>
        <pt x="266" y="-24" on="0"/>
        <pt x="284" y="-24" on="1"/>
        <pt x="315" y="-24" on="0"/>
        <pt x="346" y="-59" on="0"/>
        <pt x="346" y="-83" on="1"/>
        <pt x="346" y="-123" on="0"/>
        <pt x="296" y="-181" on="0"/>
        <pt x="234" y="-217" on="0"/>
        <pt x="234" y="-215" on="1"/>
        <pt x="210" y="-186" on="1"/>
      </contour>
    </TTGlyph>
    <TTGlyph name="L" xMin="-13" yMin="0" xMax="449" yMax="648">
      <contour>
        <pt x="67" y="72" on="1"/>
        <pt x="138" y="576" on="1"/>
        <pt x="68" y="590" on="1"/>
        <pt x="76" y="648" on="1"/>
        <pt x="351" y="648" on="1"/>
        <pt x="343" y="590" on="1"/>
        <pt x="272" y="576" on="1"/>
        <pt x="201" y="72" on="1"/>
        <pt x="244" y="65" on="1"/>
        <pt x="345" y="65" on="1"/>
        <pt x="387" y="180" on="1"/>
        <pt x="449" y="180" on="1"/>
        <pt x="428" y="0" on="1"/>
        <pt x="-13" y="0" on="1"/>
        <pt x="-4" y="58" on="1"/>
      </contour>
    </TTGlyph>
    <TTGlyph name="Lacute" xMin="-13" yMin="0" xMax="449" yMax="840">
      <contour>
        <pt x="126" y="722" on="1"/>
        <pt x="314" y="840" on="1"/>
        <pt x="352" y="819" on="0"/>
        <pt x="352" y="775" on="1"/>
        <pt x="352" y="760" on="0"/>
        <pt x="334" y="738" on="0"/>
        <pt x="307" y="729" on="1"/>
        <pt x="150" y="674" on="1"/>
      </contour>
      <contour>
        <pt x="67" y="72" on="1"/>
        <pt x="138" y="576" on="1"/>
        <pt x="68" y="590" on="1"/>
        <pt x="76" y="648" on="1"/>
        <pt x="351" y="648" on="1"/>
        <pt x="343" y="590" on="1"/>
        <pt x="272" y="576" on="1"/>
        <pt x="201" y="72" on="1"/>
        <pt x="244" y="65" on="1"/>
        <pt x="345" y="65" on="1"/>
        <pt x="387" y="180" on="1"/>
        <pt x="449" y="180" on="1"/>
        <pt x="428" y="0" on="1"/>
        <pt x="-13" y="0" on="1"/>
        <pt x="-4" y="58" on="1"/>
      </contour>
    </TTGlyph>
    <TTGlyph name="Lcaron" xMin="-13" yMin="0" xMax="522" yMax="734">
      <contour>
        <pt x="399" y="575" on="0"/>
        <pt x="414" y="596" on="0"/>
        <pt x="427" y="632" on="0"/>
        <pt x="427" y="653" on="1"/>
        <pt x="427" y="665" on="0"/>
        <pt x="422" y="688" on="0"/>
        <pt x="417" y="699" on="0"/>
        <pt x="416" y="701" on="1"/>
        <pt x="435" y="734" on="0"/>
        <pt x="467" y="734" on="1"/>
        <pt x="495" y="734" on="0"/>
        <pt x="522" y="705" on="0"/>
        <pt x="522" y="681" on="1"/>
        <pt x="522" y="641" on="0"/>
        <pt x="477" y="580" on="0"/>
        <pt x="421" y="541" on="0"/>
        <pt x="421" y="543" on="1"/>
        <pt x="397" y="572" on="1"/>
      </contour>
      <contour>
        <pt x="67" y="72" on="1"/>
        <pt x="138" y="576" on="1"/>
        <pt x="68" y="590" on="1"/>
        <pt x="76" y="648" on="1"/>
        <pt x="351" y="648" on="1"/>
        <pt x="343" y="590" on="1"/>
        <pt x="272" y="576" on="1"/>
        <pt x="201" y="72" on="1"/>
        <pt x="244" y="65" on="1"/>
        <pt x="345" y="65" on="1"/>
        <pt x="387" y="180" on="1"/>
        <pt x="449" y="180" on="1"/>
        <pt x="428" y="0" on="1"/>
        <pt x="-13" y="0" on="1"/>
        <pt x="-4" y="58" on="1"/>
      </contour>
    </TTGlyph>
    <TTGlyph name="Lcommaaccent" xMin="-13" yMin="-217" xMax="449" yMax="648">
      <contour>
        <pt x="67" y="72" on="1"/>
        <pt x="138" y="576" on="1"/>
        <pt x="68" y="590" on="1"/>
        <pt x="76" y="648" on="1"/>
        <pt x="351" y="648" on="1"/>
        <pt x="343" y="590" on="1"/>
        <pt x="272" y="576" on="1"/>
        <pt x="201" y="72" on="1"/>
        <pt x="244" y="65" on="1"/>
        <pt x="345" y="65" on="1"/>
        <pt x="387" y="180" on="1"/>
        <pt x="449" y="180" on="1"/>
        <pt x="428" y="0" on="1"/>
        <pt x="-13" y="0" on="1"/>
        <pt x="-4" y="58" on="1"/>
      </contour>
      <contour>
        <pt x="137" y="-183" on="0"/>
        <pt x="154" y="-162" on="0"/>
        <pt x="170" y="-126" on="0"/>
        <pt x="170" y="-105" on="1"/>
        <pt x="170" y="-93" on="0"/>
        <pt x="162" y="-71" on="0"/>
        <pt x="152" y="-59" on="0"/>
        <pt x="151" y="-57" on="1"/>
        <pt x="159" y="-43" on="0"/>
        <pt x="190" y="-24" on="0"/>
        <pt x="208" y="-24" on="1"/>
        <pt x="239" y="-24" on="0"/>
        <pt x="270" y="-59" on="0"/>
        <pt x="270" y="-83" on="1"/>
        <pt x="270" y="-123" on="0"/>
        <pt x="220" y="-181" on="0"/>
        <pt x="158" y="-217" on="0"/>
        <pt x="158" y="-215" on="1"/>
        <pt x="134" y="-186" on="1"/>
      </contour>
    </TTGlyph>
    <TTGlyph name="Ldot" xMin="-13" yMin="0" xMax="454" yMax="648">
      <component glyphName=".ttfautohint" x="0" y="0" flags="0x0"/>
      <component glyphName="L" x="0" y="0" flags="0x0"/>
      <component glyphName="periodcentered" x="277" y="111" flags="0x4"/>
    </TTGlyph>
    <TTGlyph name="Lslash" xMin="-13" yMin="0" xMax="449" yMax="648">
      <contour>
        <pt x="67" y="72" on="1"/>
        <pt x="92" y="251" on="1"/>
        <pt x="18" y="222" on="1"/>
        <pt x="18" y="291" on="1"/>
        <pt x="103" y="325" on="1"/>
        <pt x="138" y="576" on="1"/>
        <pt x="68" y="590" on="1"/>
        <pt x="76" y="648" on="1"/>
        <pt x="351" y="648" on="1"/>
        <pt x="343" y="590" on="1"/>
        <pt x="272" y="576" on="1"/>
        <pt x="244" y="382" on="1"/>
        <pt x="348" y="424" on="1"/>
        <pt x="348" y="352" on="1"/>
        <pt x="234" y="307" on="1"/>
        <pt x="201" y="72" on="1"/>
        <pt x="244" y="65" on="1"/>
        <pt x="345" y="65" on="1"/>
        <pt x="387" y="180" on="1"/>
        <pt x="449" y="180" on="1"/>
        <pt x="428" y="0" on="1"/>
        <pt x="-13" y="0" on="1"/>
        <pt x="-4" y="58" on="1"/>
      </contour>
    </TTGlyph>
    <TTGlyph name="M" xMin="-11" yMin="0" xMax="789" yMax="648">
      <contour>
        <pt x="69" y="72" on="1"/>
        <pt x="140" y="576" on="1"/>
        <pt x="70" y="590" on="1"/>
        <pt x="78" y="648" on="1"/>
        <pt x="302" y="648" on="1"/>
        <pt x="365" y="230" on="1"/>
        <pt x="365" y="208" on="1"/>
        <pt x="369" y="208" on="1"/>
        <pt x="373" y="230" on="1"/>
        <pt x="560" y="648" on="1"/>
        <pt x="789" y="648" on="1"/>
        <pt x="782" y="590" on="1"/>
        <pt x="711" y="576" on="1"/>
        <pt x="640" y="72" on="1"/>
        <pt x="710" y="58" on="1"/>
        <pt x="701" y="0" on="1"/>
        <pt x="426" y="0" on="1"/>
        <pt x="435" y="58" on="1"/>
        <pt x="506" y="72" on="1"/>
        <pt x="559" y="432" on="1"/>
        <pt x="567" y="464" on="1"/>
        <pt x="562" y="464" on="1"/>
        <pt x="357" y="0" on="1"/>
        <pt x="284" y="0" on="1"/>
        <pt x="211" y="460" on="1"/>
        <pt x="207" y="460" on="1"/>
        <pt x="207" y="433" on="1"/>
        <pt x="156" y="72" on="1"/>
        <pt x="227" y="58" on="1"/>
        <pt x="220" y="0" on="1"/>
        <pt x="-11" y="0" on="1"/>
        <pt x="-2" y="58" on="1"/>
      </contour>
    </TTGlyph>
    <TTGlyph name="N" xMin="-16" yMin="0" xMax="670" yMax="648">
      <contour>
        <pt x="64" y="72" on="1"/>
        <pt x="135" y="576" on="1"/>
        <pt x="65" y="590" on="1"/>
        <pt x="73" y="648" on="1"/>
        <pt x="266" y="648" on="1"/>
        <pt x="448" y="213" on="1"/>
        <pt x="450" y="197" on="1"/>
        <pt x="454" y="197" on="1"/>
        <pt x="454" y="213" on="1"/>
        <pt x="506" y="576" on="1"/>
        <pt x="436" y="590" on="1"/>
        <pt x="443" y="648" on="1"/>
        <pt x="670" y="648" on="1"/>
        <pt x="663" y="590" on="1"/>
        <pt x="592" y="576" on="1"/>
        <pt x="513" y="0" on="1"/>
        <pt x="399" y="0" on="1"/>
        <pt x="212" y="448" on="1"/>
        <pt x="211" y="463" on="1"/>
        <pt x="207" y="463" on="1"/>
        <pt x="151" y="72" on="1"/>
        <pt x="222" y="58" on="1"/>
        <pt x="215" y="0" on="1"/>
        <pt x="-16" y="0" on="1"/>
        <pt x="-7" y="58" on="1"/>
      </contour>
    </TTGlyph>
    <TTGlyph name="Nacute" xMin="-16" yMin="0" xMax="670" yMax="840">
      <contour>
        <pt x="281" y="722" on="1"/>
        <pt x="469" y="840" on="1"/>
        <pt x="507" y="819" on="0"/>
        <pt x="507" y="775" on="1"/>
        <pt x="507" y="760" on="0"/>
        <pt x="489" y="738" on="0"/>
        <pt x="462" y="729" on="1"/>
        <pt x="305" y="674" on="1"/>
      </contour>
      <contour>
        <pt x="64" y="72" on="1"/>
        <pt x="135" y="576" on="1"/>
        <pt x="65" y="590" on="1"/>
        <pt x="73" y="648" on="1"/>
        <pt x="266" y="648" on="1"/>
        <pt x="448" y="213" on="1"/>
        <pt x="450" y="197" on="1"/>
        <pt x="454" y="197" on="1"/>
        <pt x="454" y="213" on="1"/>
        <pt x="506" y="576" on="1"/>
        <pt x="436" y="590" on="1"/>
        <pt x="443" y="648" on="1"/>
        <pt x="670" y="648" on="1"/>
        <pt x="663" y="590" on="1"/>
        <pt x="592" y="576" on="1"/>
        <pt x="513" y="0" on="1"/>
        <pt x="399" y="0" on="1"/>
        <pt x="212" y="448" on="1"/>
        <pt x="211" y="463" on="1"/>
        <pt x="207" y="463" on="1"/>
        <pt x="151" y="72" on="1"/>
        <pt x="222" y="58" on="1"/>
        <pt x="215" y="0" on="1"/>
        <pt x="-16" y="0" on="1"/>
        <pt x="-7" y="58" on="1"/>
      </contour>
    </TTGlyph>
    <TTGlyph name="Nacute.loclPLK" xMin="-16" yMin="0" xMax="670" yMax="862">
      <contour>
        <pt x="482" y="862" on="1"/>
        <pt x="507" y="858" on="0"/>
        <pt x="542" y="819" on="0"/>
        <pt x="542" y="799" on="1"/>
        <pt x="542" y="779" on="0"/>
        <pt x="511" y="755" on="1"/>
        <pt x="392" y="663" on="1"/>
        <pt x="353" y="705" on="1"/>
      </contour>
      <contour>
        <pt x="64" y="72" on="1"/>
        <pt x="135" y="576" on="1"/>
        <pt x="65" y="590" on="1"/>
        <pt x="73" y="648" on="1"/>
        <pt x="266" y="648" on="1"/>
        <pt x="448" y="213" on="1"/>
        <pt x="450" y="197" on="1"/>
        <pt x="454" y="197" on="1"/>
        <pt x="454" y="213" on="1"/>
        <pt x="506" y="576" on="1"/>
        <pt x="436" y="590" on="1"/>
        <pt x="443" y="648" on="1"/>
        <pt x="670" y="648" on="1"/>
        <pt x="663" y="590" on="1"/>
        <pt x="592" y="576" on="1"/>
        <pt x="513" y="0" on="1"/>
        <pt x="399" y="0" on="1"/>
        <pt x="212" y="448" on="1"/>
        <pt x="211" y="463" on="1"/>
        <pt x="207" y="463" on="1"/>
        <pt x="151" y="72" on="1"/>
        <pt x="222" y="58" on="1"/>
        <pt x="215" y="0" on="1"/>
        <pt x="-16" y="0" on="1"/>
        <pt x="-7" y="58" on="1"/>
      </contour>
    </TTGlyph>
    <TTGlyph name="Ncaron" xMin="-16" yMin="0" xMax="670" yMax="839">
      <contour>
        <pt x="388" y="778" on="1"/>
        <pt x="512" y="837" on="1"/>
        <pt x="538" y="798" on="1"/>
        <pt x="448" y="724" on="1"/>
        <pt x="442" y="719" on="0"/>
        <pt x="403" y="687" on="0"/>
        <pt x="382" y="674" on="0"/>
        <pt x="376" y="674" on="1"/>
        <pt x="367" y="674" on="0"/>
        <pt x="346" y="690" on="0"/>
        <pt x="326" y="709" on="0"/>
        <pt x="323" y="712" on="1"/>
        <pt x="236" y="791" on="1"/>
        <pt x="275" y="839" on="1"/>
      </contour>
      <contour>
        <pt x="64" y="72" on="1"/>
        <pt x="135" y="576" on="1"/>
        <pt x="65" y="590" on="1"/>
        <pt x="73" y="648" on="1"/>
        <pt x="266" y="648" on="1"/>
        <pt x="448" y="213" on="1"/>
        <pt x="450" y="197" on="1"/>
        <pt x="454" y="197" on="1"/>
        <pt x="454" y="213" on="1"/>
        <pt x="506" y="576" on="1"/>
        <pt x="436" y="590" on="1"/>
        <pt x="443" y="648" on="1"/>
        <pt x="670" y="648" on="1"/>
        <pt x="663" y="590" on="1"/>
        <pt x="592" y="576" on="1"/>
        <pt x="513" y="0" on="1"/>
        <pt x="399" y="0" on="1"/>
        <pt x="212" y="448" on="1"/>
        <pt x="211" y="463" on="1"/>
        <pt x="207" y="463" on="1"/>
        <pt x="151" y="72" on="1"/>
        <pt x="222" y="58" on="1"/>
        <pt x="215" y="0" on="1"/>
        <pt x="-16" y="0" on="1"/>
        <pt x="-7" y="58" on="1"/>
      </contour>
    </TTGlyph>
    <TTGlyph name="Ncommaaccent" xMin="-16" yMin="-217" xMax="670" yMax="648">
      <contour>
        <pt x="64" y="72" on="1"/>
        <pt x="135" y="576" on="1"/>
        <pt x="65" y="590" on="1"/>
        <pt x="73" y="648" on="1"/>
        <pt x="266" y="648" on="1"/>
        <pt x="448" y="213" on="1"/>
        <pt x="450" y="197" on="1"/>
        <pt x="454" y="197" on="1"/>
        <pt x="454" y="213" on="1"/>
        <pt x="506" y="576" on="1"/>
        <pt x="436" y="590" on="1"/>
        <pt x="443" y="648" on="1"/>
        <pt x="670" y="648" on="1"/>
        <pt x="663" y="590" on="1"/>
        <pt x="592" y="576" on="1"/>
        <pt x="513" y="0" on="1"/>
        <pt x="399" y="0" on="1"/>
        <pt x="212" y="448" on="1"/>
        <pt x="211" y="463" on="1"/>
        <pt x="207" y="463" on="1"/>
        <pt x="151" y="72" on="1"/>
        <pt x="222" y="58" on="1"/>
        <pt x="215" y="0" on="1"/>
        <pt x="-16" y="0" on="1"/>
        <pt x="-7" y="58" on="1"/>
      </contour>
      <contour>
        <pt x="208" y="-183" on="0"/>
        <pt x="225" y="-162" on="0"/>
        <pt x="241" y="-126" on="0"/>
        <pt x="241" y="-105" on="1"/>
        <pt x="241" y="-93" on="0"/>
        <pt x="233" y="-71" on="0"/>
        <pt x="223" y="-59" on="0"/>
        <pt x="222" y="-57" on="1"/>
        <pt x="230" y="-43" on="0"/>
        <pt x="261" y="-24" on="0"/>
        <pt x="279" y="-24" on="1"/>
        <pt x="310" y="-24" on="0"/>
        <pt x="341" y="-59" on="0"/>
        <pt x="341" y="-83" on="1"/>
        <pt x="341" y="-123" on="0"/>
        <pt x="291" y="-181" on="0"/>
        <pt x="229" y="-217" on="0"/>
        <pt x="229" y="-215" on="1"/>
        <pt x="205" y="-186" on="1"/>
      </contour>
    </TTGlyph>
    <TTGlyph name="Ntilde" xMin="-16" yMin="0" xMax="670" yMax="825">
      <contour>
        <pt x="247" y="782" on="1"/>
        <pt x="263" y="803" on="0"/>
        <pt x="299" y="825" on="0"/>
        <pt x="314" y="825" on="1"/>
        <pt x="331" y="825" on="0"/>
        <pt x="360" y="818" on="0"/>
        <pt x="381" y="811" on="1"/>
        <pt x="486" y="776" on="1"/>
        <pt x="568" y="814" on="1"/>
        <pt x="597" y="781" on="1"/>
        <pt x="547" y="725" on="1"/>
        <pt x="509" y="682" on="0"/>
        <pt x="480" y="682" on="1"/>
        <pt x="463" y="682" on="0"/>
        <pt x="434" y="689" on="0"/>
        <pt x="413" y="696" on="1"/>
        <pt x="308" y="732" on="1"/>
        <pt x="226" y="694" on="1"/>
        <pt x="197" y="727" on="1"/>
      </contour>
      <contour>
        <pt x="64" y="72" on="1"/>
        <pt x="135" y="576" on="1"/>
        <pt x="65" y="590" on="1"/>
        <pt x="73" y="648" on="1"/>
        <pt x="266" y="648" on="1"/>
        <pt x="448" y="213" on="1"/>
        <pt x="450" y="197" on="1"/>
        <pt x="454" y="197" on="1"/>
        <pt x="454" y="213" on="1"/>
        <pt x="506" y="576" on="1"/>
        <pt x="436" y="590" on="1"/>
        <pt x="443" y="648" on="1"/>
        <pt x="670" y="648" on="1"/>
        <pt x="663" y="590" on="1"/>
        <pt x="592" y="576" on="1"/>
        <pt x="513" y="0" on="1"/>
        <pt x="399" y="0" on="1"/>
        <pt x="212" y="448" on="1"/>
        <pt x="211" y="463" on="1"/>
        <pt x="207" y="463" on="1"/>
        <pt x="151" y="72" on="1"/>
        <pt x="222" y="58" on="1"/>
        <pt x="215" y="0" on="1"/>
        <pt x="-16" y="0" on="1"/>
        <pt x="-7" y="58" on="1"/>
      </contour>
    </TTGlyph>
    <TTGlyph name="O" xMin="30" yMin="-11" xMax="625" yMax="660">
      <contour>
        <pt x="213" y="-11" on="0"/>
        <pt x="98" y="47" on="0"/>
        <pt x="30" y="163" on="0"/>
        <pt x="30" y="247" on="1"/>
        <pt x="30" y="379" on="0"/>
        <pt x="119" y="565" on="0"/>
        <pt x="270" y="660" on="0"/>
        <pt x="362" y="660" on="1"/>
        <pt x="454" y="660" on="0"/>
        <pt x="572" y="587" on="0"/>
        <pt x="625" y="470" on="0"/>
        <pt x="625" y="402" on="1"/>
        <pt x="625" y="277" on="0"/>
        <pt x="547" y="91" on="0"/>
        <pt x="393" y="-11" on="0"/>
        <pt x="283" y="-11" on="1"/>
      </contour>
      <contour>
        <pt x="365" y="55" on="0"/>
        <pt x="441" y="127" on="0"/>
        <pt x="476" y="282" on="0"/>
        <pt x="476" y="411" on="1"/>
        <pt x="476" y="513" on="0"/>
        <pt x="409" y="595" on="0"/>
        <pt x="351" y="595" on="1"/>
        <pt x="289" y="595" on="0"/>
        <pt x="214" y="523" on="0"/>
        <pt x="179" y="368" on="0"/>
        <pt x="179" y="239" on="1"/>
        <pt x="179" y="137" on="0"/>
        <pt x="245" y="55" on="0"/>
        <pt x="303" y="55" on="1"/>
      </contour>
    </TTGlyph>
    <TTGlyph name="OE" xMin="20" yMin="0" xMax="818" yMax="648">
      <contour>
        <pt x="151" y="0" on="0"/>
        <pt x="20" y="122" on="0"/>
        <pt x="20" y="247" on="1"/>
        <pt x="20" y="364" on="0"/>
        <pt x="106" y="547" on="0"/>
        <pt x="260" y="648" on="0"/>
        <pt x="357" y="648" on="1"/>
        <pt x="818" y="648" on="1"/>
        <pt x="790" y="464" on="1"/>
        <pt x="724" y="464" on="1"/>
        <pt x="724" y="579" on="1"/>
        <pt x="616" y="579" on="1"/>
        <pt x="558" y="572" on="1"/>
        <pt x="528" y="366" on="1"/>
        <pt x="642" y="366" on="1"/>
        <pt x="664" y="430" on="1"/>
        <pt x="724" y="430" on="1"/>
        <pt x="698" y="234" on="1"/>
        <pt x="639" y="234" on="1"/>
        <pt x="639" y="301" on="1"/>
        <pt x="519" y="301" on="1"/>
        <pt x="488" y="76" on="1"/>
        <pt x="567" y="69" on="1"/>
        <pt x="661" y="69" on="1"/>
        <pt x="701" y="180" on="1"/>
        <pt x="762" y="180" on="1"/>
        <pt x="740" y="0" on="1"/>
        <pt x="260" y="0" on="1"/>
      </contour>
      <contour>
        <pt x="423" y="576" on="1"/>
        <pt x="386" y="583" on="0"/>
        <pt x="344" y="583" on="1"/>
        <pt x="260" y="583" on="0"/>
        <pt x="169" y="422" on="0"/>
        <pt x="169" y="239" on="1"/>
        <pt x="169" y="173" on="0"/>
        <pt x="218" y="66" on="0"/>
        <pt x="293" y="66" on="1"/>
        <pt x="319" y="66" on="0"/>
        <pt x="346" y="71" on="1"/>
        <pt x="352" y="72" on="1"/>
      </contour>
    </TTGlyph>
    <TTGlyph name="Oacute" xMin="30" yMin="-11" xMax="625" yMax="840">
      <contour>
        <pt x="268" y="722" on="1"/>
        <pt x="456" y="840" on="1"/>
        <pt x="494" y="819" on="0"/>
        <pt x="494" y="775" on="1"/>
        <pt x="494" y="760" on="0"/>
        <pt x="476" y="738" on="0"/>
        <pt x="449" y="729" on="1"/>
        <pt x="292" y="674" on="1"/>
      </contour>
      <contour>
        <pt x="213" y="-11" on="0"/>
        <pt x="98" y="47" on="0"/>
        <pt x="30" y="163" on="0"/>
        <pt x="30" y="247" on="1"/>
        <pt x="30" y="379" on="0"/>
        <pt x="119" y="565" on="0"/>
        <pt x="270" y="660" on="0"/>
        <pt x="362" y="660" on="1"/>
        <pt x="454" y="660" on="0"/>
        <pt x="572" y="587" on="0"/>
        <pt x="625" y="470" on="0"/>
        <pt x="625" y="402" on="1"/>
        <pt x="625" y="277" on="0"/>
        <pt x="547" y="91" on="0"/>
        <pt x="393" y="-11" on="0"/>
        <pt x="283" y="-11" on="1"/>
      </contour>
      <contour>
        <pt x="365" y="55" on="0"/>
        <pt x="441" y="127" on="0"/>
        <pt x="476" y="282" on="0"/>
        <pt x="476" y="411" on="1"/>
        <pt x="476" y="513" on="0"/>
        <pt x="409" y="595" on="0"/>
        <pt x="351" y="595" on="1"/>
        <pt x="289" y="595" on="0"/>
        <pt x="214" y="523" on="0"/>
        <pt x="179" y="368" on="0"/>
        <pt x="179" y="239" on="1"/>
        <pt x="179" y="137" on="0"/>
        <pt x="245" y="55" on="0"/>
        <pt x="303" y="55" on="1"/>
      </contour>
    </TTGlyph>
    <TTGlyph name="Oacute.loclPLK" xMin="30" yMin="-11" xMax="625" yMax="862">
      <contour>
        <pt x="467" y="862" on="1"/>
        <pt x="492" y="858" on="0"/>
        <pt x="527" y="819" on="0"/>
        <pt x="527" y="799" on="1"/>
        <pt x="527" y="779" on="0"/>
        <pt x="496" y="755" on="1"/>
        <pt x="377" y="663" on="1"/>
        <pt x="338" y="705" on="1"/>
      </contour>
      <contour>
        <pt x="213" y="-11" on="0"/>
        <pt x="98" y="47" on="0"/>
        <pt x="30" y="163" on="0"/>
        <pt x="30" y="247" on="1"/>
        <pt x="30" y="379" on="0"/>
        <pt x="119" y="565" on="0"/>
        <pt x="270" y="660" on="0"/>
        <pt x="362" y="660" on="1"/>
        <pt x="454" y="660" on="0"/>
        <pt x="572" y="587" on="0"/>
        <pt x="625" y="470" on="0"/>
        <pt x="625" y="402" on="1"/>
        <pt x="625" y="277" on="0"/>
        <pt x="547" y="91" on="0"/>
        <pt x="393" y="-11" on="0"/>
        <pt x="283" y="-11" on="1"/>
      </contour>
      <contour>
        <pt x="365" y="55" on="0"/>
        <pt x="441" y="127" on="0"/>
        <pt x="476" y="282" on="0"/>
        <pt x="476" y="411" on="1"/>
        <pt x="476" y="513" on="0"/>
        <pt x="409" y="595" on="0"/>
        <pt x="351" y="595" on="1"/>
        <pt x="289" y="595" on="0"/>
        <pt x="214" y="523" on="0"/>
        <pt x="179" y="368" on="0"/>
        <pt x="179" y="239" on="1"/>
        <pt x="179" y="137" on="0"/>
        <pt x="245" y="55" on="0"/>
        <pt x="303" y="55" on="1"/>
      </contour>
    </TTGlyph>
    <TTGlyph name="Obreve" xMin="30" yMin="-11" xMax="625" yMax="839">
      <component glyphName=".ttfautohint" x="30" y="0" flags="0x0"/>
      <component glyphName="O" x="0" y="0" flags="0x0"/>
      <component glyphName="uni0306.case" x="464" y="0" flags="0x0"/>
    </TTGlyph>
    <TTGlyph name="Ocircumflex" xMin="30" yMin="-11" xMax="625" yMax="839">
      <contour>
        <pt x="312" y="789" on="1"/>
        <pt x="318" y="794" on="0"/>
        <pt x="357" y="826" on="0"/>
        <pt x="378" y="839" on="0"/>
        <pt x="384" y="839" on="1"/>
        <pt x="392" y="839" on="0"/>
        <pt x="411" y="825" on="0"/>
        <pt x="432" y="806" on="0"/>
        <pt x="437" y="801" on="1"/>
        <pt x="524" y="722" on="1"/>
        <pt x="485" y="674" on="1"/>
        <pt x="372" y="735" on="1"/>
        <pt x="248" y="676" on="1"/>
        <pt x="222" y="715" on="1"/>
      </contour>
      <contour>
        <pt x="213" y="-11" on="0"/>
        <pt x="98" y="47" on="0"/>
        <pt x="30" y="163" on="0"/>
        <pt x="30" y="247" on="1"/>
        <pt x="30" y="379" on="0"/>
        <pt x="119" y="565" on="0"/>
        <pt x="270" y="660" on="0"/>
        <pt x="362" y="660" on="1"/>
        <pt x="454" y="660" on="0"/>
        <pt x="572" y="587" on="0"/>
        <pt x="625" y="470" on="0"/>
        <pt x="625" y="402" on="1"/>
        <pt x="625" y="277" on="0"/>
        <pt x="547" y="91" on="0"/>
        <pt x="393" y="-11" on="0"/>
        <pt x="283" y="-11" on="1"/>
      </contour>
      <contour>
        <pt x="365" y="55" on="0"/>
        <pt x="441" y="127" on="0"/>
        <pt x="476" y="282" on="0"/>
        <pt x="476" y="411" on="1"/>
        <pt x="476" y="513" on="0"/>
        <pt x="409" y="595" on="0"/>
        <pt x="351" y="595" on="1"/>
        <pt x="289" y="595" on="0"/>
        <pt x="214" y="523" on="0"/>
        <pt x="179" y="368" on="0"/>
        <pt x="179" y="239" on="1"/>
        <pt x="179" y="137" on="0"/>
        <pt x="245" y="55" on="0"/>
        <pt x="303" y="55" on="1"/>
      </contour>
    </TTGlyph>
    <TTGlyph name="Odieresis" xMin="30" yMin="-11" xMax="625" yMax="832">
      <contour>
        <pt x="228" y="687" on="0"/>
        <pt x="193" y="724" on="0"/>
        <pt x="193" y="751" on="1"/>
        <pt x="193" y="783" on="0"/>
        <pt x="232" y="832" on="0"/>
        <pt x="267" y="832" on="1"/>
        <pt x="294" y="832" on="0"/>
        <pt x="330" y="796" on="0"/>
        <pt x="330" y="766" on="1"/>
        <pt x="330" y="734" on="0"/>
        <pt x="290" y="687" on="0"/>
        <pt x="255" y="687" on="1"/>
      </contour>
      <contour>
        <pt x="451" y="687" on="0"/>
        <pt x="416" y="724" on="0"/>
        <pt x="416" y="751" on="1"/>
        <pt x="416" y="783" on="0"/>
        <pt x="455" y="832" on="0"/>
        <pt x="490" y="832" on="1"/>
        <pt x="517" y="832" on="0"/>
        <pt x="553" y="796" on="0"/>
        <pt x="553" y="766" on="1"/>
        <pt x="553" y="734" on="0"/>
        <pt x="513" y="687" on="0"/>
        <pt x="478" y="687" on="1"/>
      </contour>
      <contour>
        <pt x="213" y="-11" on="0"/>
        <pt x="98" y="47" on="0"/>
        <pt x="30" y="163" on="0"/>
        <pt x="30" y="247" on="1"/>
        <pt x="30" y="379" on="0"/>
        <pt x="119" y="565" on="0"/>
        <pt x="270" y="660" on="0"/>
        <pt x="362" y="660" on="1"/>
        <pt x="454" y="660" on="0"/>
        <pt x="572" y="587" on="0"/>
        <pt x="625" y="470" on="0"/>
        <pt x="625" y="402" on="1"/>
        <pt x="625" y="277" on="0"/>
        <pt x="547" y="91" on="0"/>
        <pt x="393" y="-11" on="0"/>
        <pt x="283" y="-11" on="1"/>
      </contour>
      <contour>
        <pt x="365" y="55" on="0"/>
        <pt x="441" y="127" on="0"/>
        <pt x="476" y="282" on="0"/>
        <pt x="476" y="411" on="1"/>
        <pt x="476" y="513" on="0"/>
        <pt x="409" y="595" on="0"/>
        <pt x="351" y="595" on="1"/>
        <pt x="289" y="595" on="0"/>
        <pt x="214" y="523" on="0"/>
        <pt x="179" y="368" on="0"/>
        <pt x="179" y="239" on="1"/>
        <pt x="179" y="137" on="0"/>
        <pt x="245" y="55" on="0"/>
        <pt x="303" y="55" on="1"/>
      </contour>
    </TTGlyph>
    <TTGlyph name="Ograve" xMin="30" yMin="-11" xMax="625" yMax="840">
      <contour>
        <pt x="269" y="738" on="0"/>
        <pt x="251" y="759" on="0"/>
        <pt x="251" y="774" on="1"/>
        <pt x="251" y="800" on="0"/>
        <pt x="272" y="830" on="0"/>
        <pt x="289" y="840" on="1"/>
        <pt x="477" y="722" on="1"/>
        <pt x="453" y="674" on="1"/>
        <pt x="296" y="729" on="1"/>
      </contour>
      <contour>
        <pt x="213" y="-11" on="0"/>
        <pt x="98" y="47" on="0"/>
        <pt x="30" y="163" on="0"/>
        <pt x="30" y="247" on="1"/>
        <pt x="30" y="379" on="0"/>
        <pt x="119" y="565" on="0"/>
        <pt x="270" y="660" on="0"/>
        <pt x="362" y="660" on="1"/>
        <pt x="454" y="660" on="0"/>
        <pt x="572" y="587" on="0"/>
        <pt x="625" y="470" on="0"/>
        <pt x="625" y="402" on="1"/>
        <pt x="625" y="277" on="0"/>
        <pt x="547" y="91" on="0"/>
        <pt x="393" y="-11" on="0"/>
        <pt x="283" y="-11" on="1"/>
      </contour>
      <contour>
        <pt x="365" y="55" on="0"/>
        <pt x="441" y="127" on="0"/>
        <pt x="476" y="282" on="0"/>
        <pt x="476" y="411" on="1"/>
        <pt x="476" y="513" on="0"/>
        <pt x="409" y="595" on="0"/>
        <pt x="351" y="595" on="1"/>
        <pt x="289" y="595" on="0"/>
        <pt x="214" y="523" on="0"/>
        <pt x="179" y="368" on="0"/>
        <pt x="179" y="239" on="1"/>
        <pt x="179" y="137" on="0"/>
        <pt x="245" y="55" on="0"/>
        <pt x="303" y="55" on="1"/>
      </contour>
    </TTGlyph>
    <TTGlyph name="Ohorn" xMin="30" yMin="-11" xMax="794" yMax="729">
      <contour>
        <pt x="794" y="629" on="0"/>
        <pt x="713" y="539" on="0"/>
        <pt x="614" y="485" on="1"/>
        <pt x="625" y="448" on="0"/>
        <pt x="625" y="402" on="1"/>
        <pt x="625" y="277" on="0"/>
        <pt x="547" y="91" on="0"/>
        <pt x="393" y="-11" on="0"/>
        <pt x="283" y="-11" on="1"/>
        <pt x="213" y="-11" on="0"/>
        <pt x="98" y="47" on="0"/>
        <pt x="30" y="163" on="0"/>
        <pt x="30" y="247" on="1"/>
        <pt x="30" y="379" on="0"/>
        <pt x="119" y="565" on="0"/>
        <pt x="270" y="660" on="0"/>
        <pt x="362" y="660" on="1"/>
        <pt x="456" y="660" on="0"/>
        <pt x="574" y="584" on="0"/>
        <pt x="602" y="521" on="1"/>
        <pt x="646" y="548" on="0"/>
        <pt x="702" y="608" on="0"/>
        <pt x="702" y="637" on="1"/>
        <pt x="702" y="647" on="0"/>
        <pt x="695" y="660" on="0"/>
        <pt x="688" y="666" on="1"/>
        <pt x="688" y="681" on="1"/>
        <pt x="761" y="729" on="1"/>
        <pt x="762" y="728" on="0"/>
        <pt x="779" y="716" on="0"/>
        <pt x="794" y="686" on="0"/>
        <pt x="794" y="668" on="1"/>
      </contour>
      <contour>
        <pt x="365" y="55" on="0"/>
        <pt x="441" y="127" on="0"/>
        <pt x="476" y="282" on="0"/>
        <pt x="476" y="411" on="1"/>
        <pt x="476" y="513" on="0"/>
        <pt x="409" y="595" on="0"/>
        <pt x="351" y="595" on="1"/>
        <pt x="289" y="595" on="0"/>
        <pt x="214" y="523" on="0"/>
        <pt x="179" y="368" on="0"/>
        <pt x="179" y="239" on="1"/>
        <pt x="179" y="137" on="0"/>
        <pt x="245" y="55" on="0"/>
        <pt x="303" y="55" on="1"/>
      </contour>
    </TTGlyph>
    <TTGlyph name="Ohungarumlaut" xMin="30" yMin="-11" xMax="625" yMax="846">
      <contour>
        <pt x="309" y="846" on="1"/>
        <pt x="335" y="846" on="0"/>
        <pt x="379" y="811" on="0"/>
        <pt x="379" y="790" on="1"/>
        <pt x="379" y="771" on="0"/>
        <pt x="356" y="741" on="0"/>
        <pt x="334" y="727" on="1"/>
        <pt x="234" y="662" on="1"/>
        <pt x="196" y="696" on="1"/>
      </contour>
      <contour>
        <pt x="498" y="846" on="1"/>
        <pt x="524" y="846" on="0"/>
        <pt x="568" y="811" on="0"/>
        <pt x="568" y="790" on="1"/>
        <pt x="568" y="771" on="0"/>
        <pt x="545" y="741" on="0"/>
        <pt x="523" y="727" on="1"/>
        <pt x="423" y="662" on="1"/>
        <pt x="385" y="696" on="1"/>
      </contour>
      <contour>
        <pt x="213" y="-11" on="0"/>
        <pt x="98" y="47" on="0"/>
        <pt x="30" y="163" on="0"/>
        <pt x="30" y="247" on="1"/>
        <pt x="30" y="379" on="0"/>
        <pt x="119" y="565" on="0"/>
        <pt x="270" y="660" on="0"/>
        <pt x="362" y="660" on="1"/>
        <pt x="454" y="660" on="0"/>
        <pt x="572" y="587" on="0"/>
        <pt x="625" y="470" on="0"/>
        <pt x="625" y="402" on="1"/>
        <pt x="625" y="277" on="0"/>
        <pt x="547" y="91" on="0"/>
        <pt x="393" y="-11" on="0"/>
        <pt x="283" y="-11" on="1"/>
      </contour>
      <contour>
        <pt x="365" y="55" on="0"/>
        <pt x="441" y="127" on="0"/>
        <pt x="476" y="282" on="0"/>
        <pt x="476" y="411" on="1"/>
        <pt x="476" y="513" on="0"/>
        <pt x="409" y="595" on="0"/>
        <pt x="351" y="595" on="1"/>
        <pt x="289" y="595" on="0"/>
        <pt x="214" y="523" on="0"/>
        <pt x="179" y="368" on="0"/>
        <pt x="179" y="239" on="1"/>
        <pt x="179" y="137" on="0"/>
        <pt x="245" y="55" on="0"/>
        <pt x="303" y="55" on="1"/>
      </contour>
    </TTGlyph>
    <TTGlyph name="Omacron" xMin="30" yMin="-11" xMax="625" yMax="798">
      <contour>
        <pt x="550" y="798" on="1"/>
        <pt x="540" y="716" on="1"/>
        <pt x="190" y="716" on="1"/>
        <pt x="200" y="798" on="1"/>
      </contour>
      <contour>
        <pt x="213" y="-11" on="0"/>
        <pt x="98" y="47" on="0"/>
        <pt x="30" y="163" on="0"/>
        <pt x="30" y="247" on="1"/>
        <pt x="30" y="379" on="0"/>
        <pt x="119" y="565" on="0"/>
        <pt x="270" y="660" on="0"/>
        <pt x="362" y="660" on="1"/>
        <pt x="454" y="660" on="0"/>
        <pt x="572" y="587" on="0"/>
        <pt x="625" y="470" on="0"/>
        <pt x="625" y="402" on="1"/>
        <pt x="625" y="277" on="0"/>
        <pt x="547" y="91" on="0"/>
        <pt x="393" y="-11" on="0"/>
        <pt x="283" y="-11" on="1"/>
      </contour>
      <contour>
        <pt x="365" y="55" on="0"/>
        <pt x="441" y="127" on="0"/>
        <pt x="476" y="282" on="0"/>
        <pt x="476" y="411" on="1"/>
        <pt x="476" y="513" on="0"/>
        <pt x="409" y="595" on="0"/>
        <pt x="351" y="595" on="1"/>
        <pt x="289" y="595" on="0"/>
        <pt x="214" y="523" on="0"/>
        <pt x="179" y="368" on="0"/>
        <pt x="179" y="239" on="1"/>
        <pt x="179" y="137" on="0"/>
        <pt x="245" y="55" on="0"/>
        <pt x="303" y="55" on="1"/>
      </contour>
    </TTGlyph>
    <TTGlyph name="Oslash" xMin="30" yMin="-97" xMax="625" yMax="742">
      <contour>
        <pt x="90" y="55" on="0"/>
        <pt x="30" y="168" on="0"/>
        <pt x="30" y="247" on="1"/>
        <pt x="30" y="379" on="0"/>
        <pt x="119" y="565" on="0"/>
        <pt x="270" y="660" on="0"/>
        <pt x="362" y="660" on="1"/>
        <pt x="403" y="660" on="0"/>
        <pt x="432" y="653" on="1"/>
        <pt x="473" y="742" on="1"/>
        <pt x="535" y="712" on="1"/>
        <pt x="498" y="631" on="1"/>
        <pt x="563" y="599" on="0"/>
        <pt x="625" y="476" on="0"/>
        <pt x="625" y="402" on="1"/>
        <pt x="625" y="277" on="0"/>
        <pt x="547" y="91" on="0"/>
        <pt x="393" y="-11" on="0"/>
        <pt x="283" y="-11" on="1"/>
        <pt x="244" y="-11" on="0"/>
        <pt x="209" y="-2" on="1"/>
        <pt x="166" y="-97" on="1"/>
        <pt x="102" y="-66" on="1"/>
        <pt x="143" y="24" on="1"/>
      </contour>
      <contour>
        <pt x="378" y="595" on="0"/>
        <pt x="351" y="595" on="1"/>
        <pt x="289" y="595" on="0"/>
        <pt x="214" y="523" on="0"/>
        <pt x="179" y="368" on="0"/>
        <pt x="179" y="239" on="1"/>
        <pt x="179" y="173" on="0"/>
        <pt x="193" y="133" on="1"/>
        <pt x="401" y="586" on="1"/>
      </contour>
      <contour>
        <pt x="267" y="55" on="0"/>
        <pt x="303" y="55" on="1"/>
        <pt x="365" y="55" on="0"/>
        <pt x="441" y="127" on="0"/>
        <pt x="476" y="282" on="0"/>
        <pt x="476" y="411" on="1"/>
        <pt x="476" y="490" on="0"/>
        <pt x="454" y="534" on="1"/>
        <pt x="242" y="69" on="1"/>
      </contour>
    </TTGlyph>
    <TTGlyph name="Oslashacute" xMin="30" yMin="-97" xMax="625" yMax="840">
      <component glyphName=".ttfautohint" x="30" y="0" flags="0x0"/>
      <component glyphName="Oslash" x="0" y="0" flags="0x0"/>
      <component glyphName="acutecomb.case" x="384" y="0" flags="0x0"/>
    </TTGlyph>
    <TTGlyph name="Otilde" xMin="30" yMin="-11" xMax="625" yMax="825">
      <contour>
        <pt x="224" y="782" on="1"/>
        <pt x="240" y="803" on="0"/>
        <pt x="276" y="825" on="0"/>
        <pt x="291" y="825" on="1"/>
        <pt x="308" y="825" on="0"/>
        <pt x="337" y="818" on="0"/>
        <pt x="358" y="811" on="1"/>
        <pt x="463" y="776" on="1"/>
        <pt x="545" y="814" on="1"/>
        <pt x="574" y="781" on="1"/>
        <pt x="524" y="725" on="1"/>
        <pt x="486" y="682" on="0"/>
        <pt x="457" y="682" on="1"/>
        <pt x="440" y="682" on="0"/>
        <pt x="411" y="689" on="0"/>
        <pt x="390" y="696" on="1"/>
        <pt x="285" y="732" on="1"/>
        <pt x="203" y="694" on="1"/>
        <pt x="174" y="727" on="1"/>
      </contour>
      <contour>
        <pt x="213" y="-11" on="0"/>
        <pt x="98" y="47" on="0"/>
        <pt x="30" y="163" on="0"/>
        <pt x="30" y="247" on="1"/>
        <pt x="30" y="379" on="0"/>
        <pt x="119" y="565" on="0"/>
        <pt x="270" y="660" on="0"/>
        <pt x="362" y="660" on="1"/>
        <pt x="454" y="660" on="0"/>
        <pt x="572" y="587" on="0"/>
        <pt x="625" y="470" on="0"/>
        <pt x="625" y="402" on="1"/>
        <pt x="625" y="277" on="0"/>
        <pt x="547" y="91" on="0"/>
        <pt x="393" y="-11" on="0"/>
        <pt x="283" y="-11" on="1"/>
      </contour>
      <contour>
        <pt x="365" y="55" on="0"/>
        <pt x="441" y="127" on="0"/>
        <pt x="476" y="282" on="0"/>
        <pt x="476" y="411" on="1"/>
        <pt x="476" y="513" on="0"/>
        <pt x="409" y="595" on="0"/>
        <pt x="351" y="595" on="1"/>
        <pt x="289" y="595" on="0"/>
        <pt x="214" y="523" on="0"/>
        <pt x="179" y="368" on="0"/>
        <pt x="179" y="239" on="1"/>
        <pt x="179" y="137" on="0"/>
        <pt x="245" y="55" on="0"/>
        <pt x="303" y="55" on="1"/>
      </contour>
    </TTGlyph>
    <TTGlyph name="P" xMin="-13" yMin="0" xMax="539" yMax="648">
      <contour>
        <pt x="67" y="72" on="1"/>
        <pt x="138" y="576" on="1"/>
        <pt x="68" y="590" on="1"/>
        <pt x="76" y="648" on="1"/>
        <pt x="324" y="648" on="1"/>
        <pt x="431" y="648" on="0"/>
        <pt x="539" y="570" on="0"/>
        <pt x="539" y="482" on="1"/>
        <pt x="539" y="425" on="0"/>
        <pt x="487" y="325" on="0"/>
        <pt x="361" y="260" on="0"/>
        <pt x="257" y="260" on="1"/>
        <pt x="257" y="310" on="1"/>
        <pt x="332" y="320" on="0"/>
        <pt x="396" y="410" on="0"/>
        <pt x="396" y="485" on="1"/>
        <pt x="396" y="536" on="0"/>
        <pt x="350" y="579" on="0"/>
        <pt x="302" y="579" on="1"/>
        <pt x="291" y="579" on="0"/>
        <pt x="275" y="577" on="0"/>
        <pt x="273" y="576" on="1"/>
        <pt x="202" y="72" on="1"/>
        <pt x="292" y="58" on="1"/>
        <pt x="285" y="0" on="1"/>
        <pt x="-13" y="0" on="1"/>
        <pt x="-4" y="58" on="1"/>
      </contour>
    </TTGlyph>
    <TTGlyph name="Q" xMin="30" yMin="-187" xMax="625" yMax="660">
      <contour>
        <pt x="255" y="-10" on="1"/>
        <pt x="156" y="-1" on="0"/>
        <pt x="30" y="131" on="0"/>
        <pt x="30" y="247" on="1"/>
        <pt x="30" y="379" on="0"/>
        <pt x="119" y="565" on="0"/>
        <pt x="270" y="660" on="0"/>
        <pt x="362" y="660" on="1"/>
        <pt x="454" y="660" on="0"/>
        <pt x="572" y="587" on="0"/>
        <pt x="625" y="470" on="0"/>
        <pt x="625" y="402" on="1"/>
        <pt x="625" y="222" on="0"/>
        <pt x="466" y="2" on="0"/>
        <pt x="317" y="-10" on="1"/>
        <pt x="286" y="-42" on="1"/>
        <pt x="303" y="-44" on="0"/>
        <pt x="336" y="-52" on="1"/>
        <pt x="517" y="-94" on="1"/>
        <pt x="575" y="-63" on="1"/>
        <pt x="602" y="-91" on="1"/>
        <pt x="550" y="-159" on="1"/>
        <pt x="529" y="-187" on="0"/>
        <pt x="494" y="-187" on="1"/>
        <pt x="481" y="-187" on="0"/>
        <pt x="434" y="-176" on="0"/>
        <pt x="425" y="-174" on="1"/>
        <pt x="243" y="-133" on="1"/>
        <pt x="188" y="-158" on="1"/>
        <pt x="152" y="-112" on="1"/>
      </contour>
      <contour>
        <pt x="365" y="55" on="0"/>
        <pt x="441" y="127" on="0"/>
        <pt x="476" y="282" on="0"/>
        <pt x="476" y="411" on="1"/>
        <pt x="476" y="513" on="0"/>
        <pt x="409" y="595" on="0"/>
        <pt x="351" y="595" on="1"/>
        <pt x="289" y="595" on="0"/>
        <pt x="214" y="523" on="0"/>
        <pt x="179" y="368" on="0"/>
        <pt x="179" y="239" on="1"/>
        <pt x="179" y="137" on="0"/>
        <pt x="245" y="55" on="0"/>
        <pt x="303" y="55" on="1"/>
      </contour>
    </TTGlyph>
    <TTGlyph name="R" xMin="-13" yMin="0" xMax="544" yMax="648">
      <contour>
        <pt x="67" y="72" on="1"/>
        <pt x="138" y="576" on="1"/>
        <pt x="68" y="590" on="1"/>
        <pt x="76" y="648" on="1"/>
        <pt x="344" y="648" on="1"/>
        <pt x="526" y="648" on="0"/>
        <pt x="526" y="502" on="1"/>
        <pt x="526" y="427" on="0"/>
        <pt x="420" y="324" on="0"/>
        <pt x="343" y="299" on="1"/>
        <pt x="375" y="285" on="0"/>
        <pt x="409" y="234" on="0"/>
        <pt x="427" y="193" on="1"/>
        <pt x="479" y="73" on="1"/>
        <pt x="544" y="50" on="1"/>
        <pt x="538" y="0" on="1"/>
        <pt x="397" y="0" on="1"/>
        <pt x="377" y="0" on="0"/>
        <pt x="356" y="14" on="0"/>
        <pt x="350" y="33" on="1"/>
        <pt x="337" y="74" on="1"/>
        <pt x="291" y="185" on="1"/>
        <pt x="275" y="224" on="0"/>
        <pt x="247" y="273" on="0"/>
        <pt x="231" y="273" on="1"/>
        <pt x="201" y="66" on="1"/>
        <pt x="262" y="50" on="1"/>
        <pt x="256" y="0" on="1"/>
        <pt x="-13" y="0" on="1"/>
        <pt x="-4" y="58" on="1"/>
      </contour>
      <contour>
        <pt x="322" y="335" on="0"/>
        <pt x="385" y="430" on="0"/>
        <pt x="385" y="495" on="1"/>
        <pt x="385" y="534" on="0"/>
        <pt x="349" y="579" on="0"/>
        <pt x="309" y="579" on="1"/>
        <pt x="292" y="579" on="0"/>
        <pt x="275" y="576" on="0"/>
        <pt x="273" y="575" on="1"/>
        <pt x="239" y="335" on="1"/>
      </contour>
    </TTGlyph>
    <TTGlyph name="Racute" xMin="-16" yMin="0" xMax="541" yMax="840">
      <contour>
        <pt x="224" y="722" on="1"/>
        <pt x="412" y="840" on="1"/>
        <pt x="450" y="819" on="0"/>
        <pt x="450" y="775" on="1"/>
        <pt x="450" y="760" on="0"/>
        <pt x="432" y="738" on="0"/>
        <pt x="405" y="729" on="1"/>
        <pt x="248" y="674" on="1"/>
      </contour>
      <contour>
        <pt x="64" y="72" on="1"/>
        <pt x="135" y="576" on="1"/>
        <pt x="65" y="590" on="1"/>
        <pt x="73" y="648" on="1"/>
        <pt x="341" y="648" on="1"/>
        <pt x="523" y="648" on="0"/>
        <pt x="523" y="502" on="1"/>
        <pt x="523" y="427" on="0"/>
        <pt x="417" y="324" on="0"/>
        <pt x="340" y="299" on="1"/>
        <pt x="372" y="285" on="0"/>
        <pt x="406" y="234" on="0"/>
        <pt x="424" y="193" on="1"/>
        <pt x="476" y="73" on="1"/>
        <pt x="541" y="50" on="1"/>
        <pt x="535" y="0" on="1"/>
        <pt x="394" y="0" on="1"/>
        <pt x="374" y="0" on="0"/>
        <pt x="353" y="14" on="0"/>
        <pt x="347" y="33" on="1"/>
        <pt x="334" y="74" on="1"/>
        <pt x="288" y="185" on="1"/>
        <pt x="272" y="224" on="0"/>
        <pt x="244" y="273" on="0"/>
        <pt x="228" y="273" on="1"/>
        <pt x="198" y="66" on="1"/>
        <pt x="259" y="50" on="1"/>
        <pt x="253" y="0" on="1"/>
        <pt x="-16" y="0" on="1"/>
        <pt x="-7" y="58" on="1"/>
      </contour>
      <contour>
        <pt x="319" y="335" on="0"/>
        <pt x="382" y="430" on="0"/>
        <pt x="382" y="495" on="1"/>
        <pt x="382" y="534" on="0"/>
        <pt x="346" y="579" on="0"/>
        <pt x="306" y="579" on="1"/>
        <pt x="289" y="579" on="0"/>
        <pt x="272" y="576" on="0"/>
        <pt x="270" y="575" on="1"/>
        <pt x="236" y="335" on="1"/>
      </contour>
    </TTGlyph>
    <TTGlyph name="Rcaron" xMin="-16" yMin="0" xMax="541" yMax="839">
      <contour>
        <pt x="322" y="778" on="1"/>
        <pt x="446" y="837" on="1"/>
        <pt x="472" y="798" on="1"/>
        <pt x="382" y="724" on="1"/>
        <pt x="376" y="719" on="0"/>
        <pt x="337" y="687" on="0"/>
        <pt x="316" y="674" on="0"/>
        <pt x="310" y="674" on="1"/>
        <pt x="301" y="674" on="0"/>
        <pt x="280" y="690" on="0"/>
        <pt x="260" y="709" on="0"/>
        <pt x="257" y="712" on="1"/>
        <pt x="170" y="791" on="1"/>
        <pt x="209" y="839" on="1"/>
      </contour>
      <contour>
        <pt x="64" y="72" on="1"/>
        <pt x="135" y="576" on="1"/>
        <pt x="65" y="590" on="1"/>
        <pt x="73" y="648" on="1"/>
        <pt x="341" y="648" on="1"/>
        <pt x="523" y="648" on="0"/>
        <pt x="523" y="502" on="1"/>
        <pt x="523" y="427" on="0"/>
        <pt x="417" y="324" on="0"/>
        <pt x="340" y="299" on="1"/>
        <pt x="372" y="285" on="0"/>
        <pt x="406" y="234" on="0"/>
        <pt x="424" y="193" on="1"/>
        <pt x="476" y="73" on="1"/>
        <pt x="541" y="50" on="1"/>
        <pt x="535" y="0" on="1"/>
        <pt x="394" y="0" on="1"/>
        <pt x="374" y="0" on="0"/>
        <pt x="353" y="14" on="0"/>
        <pt x="347" y="33" on="1"/>
        <pt x="334" y="74" on="1"/>
        <pt x="288" y="185" on="1"/>
        <pt x="272" y="224" on="0"/>
        <pt x="244" y="273" on="0"/>
        <pt x="228" y="273" on="1"/>
        <pt x="198" y="66" on="1"/>
        <pt x="259" y="50" on="1"/>
        <pt x="253" y="0" on="1"/>
        <pt x="-16" y="0" on="1"/>
        <pt x="-7" y="58" on="1"/>
      </contour>
      <contour>
        <pt x="319" y="335" on="0"/>
        <pt x="382" y="430" on="0"/>
        <pt x="382" y="495" on="1"/>
        <pt x="382" y="534" on="0"/>
        <pt x="346" y="579" on="0"/>
        <pt x="306" y="579" on="1"/>
        <pt x="289" y="579" on="0"/>
        <pt x="272" y="576" on="0"/>
        <pt x="270" y="575" on="1"/>
        <pt x="236" y="335" on="1"/>
      </contour>
    </TTGlyph>
    <TTGlyph name="Rcommaaccent" xMin="-16" yMin="-217" xMax="541" yMax="648">
      <contour>
        <pt x="64" y="72" on="1"/>
        <pt x="135" y="576" on="1"/>
        <pt x="65" y="590" on="1"/>
        <pt x="73" y="648" on="1"/>
        <pt x="341" y="648" on="1"/>
        <pt x="523" y="648" on="0"/>
        <pt x="523" y="502" on="1"/>
        <pt x="523" y="427" on="0"/>
        <pt x="417" y="324" on="0"/>
        <pt x="340" y="299" on="1"/>
        <pt x="372" y="285" on="0"/>
        <pt x="406" y="234" on="0"/>
        <pt x="424" y="193" on="1"/>
        <pt x="476" y="73" on="1"/>
        <pt x="541" y="50" on="1"/>
        <pt x="535" y="0" on="1"/>
        <pt x="394" y="0" on="1"/>
        <pt x="374" y="0" on="0"/>
        <pt x="353" y="14" on="0"/>
        <pt x="347" y="33" on="1"/>
        <pt x="334" y="74" on="1"/>
        <pt x="288" y="185" on="1"/>
        <pt x="272" y="224" on="0"/>
        <pt x="244" y="273" on="0"/>
        <pt x="228" y="273" on="1"/>
        <pt x="198" y="66" on="1"/>
        <pt x="259" y="50" on="1"/>
        <pt x="253" y="0" on="1"/>
        <pt x="-16" y="0" on="1"/>
        <pt x="-7" y="58" on="1"/>
      </contour>
      <contour>
        <pt x="319" y="335" on="0"/>
        <pt x="382" y="430" on="0"/>
        <pt x="382" y="495" on="1"/>
        <pt x="382" y="534" on="0"/>
        <pt x="346" y="579" on="0"/>
        <pt x="306" y="579" on="1"/>
        <pt x="289" y="579" on="0"/>
        <pt x="272" y="576" on="0"/>
        <pt x="270" y="575" on="1"/>
        <pt x="236" y="335" on="1"/>
      </contour>
      <contour>
        <pt x="177" y="-183" on="0"/>
        <pt x="194" y="-162" on="0"/>
        <pt x="210" y="-126" on="0"/>
        <pt x="210" y="-105" on="1"/>
        <pt x="210" y="-93" on="0"/>
        <pt x="202" y="-71" on="0"/>
        <pt x="192" y="-59" on="0"/>
        <pt x="191" y="-57" on="1"/>
        <pt x="199" y="-43" on="0"/>
        <pt x="230" y="-24" on="0"/>
        <pt x="248" y="-24" on="1"/>
        <pt x="279" y="-24" on="0"/>
        <pt x="310" y="-59" on="0"/>
        <pt x="310" y="-83" on="1"/>
        <pt x="310" y="-123" on="0"/>
        <pt x="260" y="-181" on="0"/>
        <pt x="198" y="-217" on="0"/>
        <pt x="198" y="-215" on="1"/>
        <pt x="174" y="-186" on="1"/>
      </contour>
    </TTGlyph>
    <TTGlyph name="S" xMin="-5" yMin="-11" xMax="447" yMax="660">
      <contour>
        <pt x="85" y="211" on="1"/>
        <pt x="96" y="92" on="1"/>
        <pt x="96" y="91" on="0"/>
        <pt x="126" y="72" on="0"/>
        <pt x="180" y="56" on="0"/>
        <pt x="217" y="56" on="1"/>
        <pt x="254" y="56" on="0"/>
        <pt x="296" y="96" on="0"/>
        <pt x="296" y="124" on="1"/>
        <pt x="296" y="151" on="0"/>
        <pt x="286" y="184" on="0"/>
        <pt x="247" y="228" on="0"/>
        <pt x="203" y="267" on="1"/>
        <pt x="139" y="323" on="0"/>
        <pt x="82" y="381" on="0"/>
        <pt x="54" y="439" on="0"/>
        <pt x="54" y="479" on="1"/>
        <pt x="54" y="530" on="0"/>
        <pt x="104" y="613" on="0"/>
        <pt x="202" y="660" on="0"/>
        <pt x="272" y="660" on="1"/>
        <pt x="327" y="660" on="0"/>
        <pt x="421" y="647" on="0"/>
        <pt x="447" y="639" on="1"/>
        <pt x="429" y="459" on="1"/>
        <pt x="361" y="459" on="1"/>
        <pt x="351" y="567" on="1"/>
        <pt x="335" y="578" on="0"/>
        <pt x="275" y="595" on="0"/>
        <pt x="239" y="595" on="1"/>
        <pt x="198" y="595" on="0"/>
        <pt x="169" y="559" on="0"/>
        <pt x="169" y="531" on="1"/>
        <pt x="169" y="508" on="0"/>
        <pt x="208" y="459" on="0"/>
        <pt x="269" y="407" on="1"/>
        <pt x="317" y="365" on="0"/>
        <pt x="373" y="308" on="0"/>
        <pt x="412" y="237" on="0"/>
        <pt x="412" y="197" on="1"/>
        <pt x="412" y="134" on="0"/>
        <pt x="354" y="40" on="0"/>
        <pt x="250" y="-11" on="0"/>
        <pt x="184" y="-11" on="1"/>
        <pt x="120" y="-11" on="0"/>
        <pt x="17" y="18" on="0"/>
        <pt x="-5" y="33" on="1"/>
        <pt x="14" y="211" on="1"/>
      </contour>
    </TTGlyph>
    <TTGlyph name="Sacute" xMin="-5" yMin="-11" xMax="447" yMax="840">
      <contour>
        <pt x="188" y="722" on="1"/>
        <pt x="376" y="840" on="1"/>
        <pt x="414" y="819" on="0"/>
        <pt x="414" y="775" on="1"/>
        <pt x="414" y="760" on="0"/>
        <pt x="396" y="738" on="0"/>
        <pt x="369" y="729" on="1"/>
        <pt x="212" y="674" on="1"/>
      </contour>
      <contour>
        <pt x="85" y="211" on="1"/>
        <pt x="96" y="92" on="1"/>
        <pt x="96" y="91" on="0"/>
        <pt x="126" y="72" on="0"/>
        <pt x="180" y="56" on="0"/>
        <pt x="217" y="56" on="1"/>
        <pt x="254" y="56" on="0"/>
        <pt x="296" y="96" on="0"/>
        <pt x="296" y="124" on="1"/>
        <pt x="296" y="151" on="0"/>
        <pt x="286" y="184" on="0"/>
        <pt x="247" y="228" on="0"/>
        <pt x="203" y="267" on="1"/>
        <pt x="139" y="323" on="0"/>
        <pt x="82" y="381" on="0"/>
        <pt x="54" y="439" on="0"/>
        <pt x="54" y="479" on="1"/>
        <pt x="54" y="530" on="0"/>
        <pt x="104" y="613" on="0"/>
        <pt x="202" y="660" on="0"/>
        <pt x="272" y="660" on="1"/>
        <pt x="327" y="660" on="0"/>
        <pt x="421" y="647" on="0"/>
        <pt x="447" y="639" on="1"/>
        <pt x="429" y="459" on="1"/>
        <pt x="361" y="459" on="1"/>
        <pt x="351" y="567" on="1"/>
        <pt x="335" y="578" on="0"/>
        <pt x="275" y="595" on="0"/>
        <pt x="239" y="595" on="1"/>
        <pt x="198" y="595" on="0"/>
        <pt x="169" y="559" on="0"/>
        <pt x="169" y="531" on="1"/>
        <pt x="169" y="508" on="0"/>
        <pt x="208" y="459" on="0"/>
        <pt x="269" y="407" on="1"/>
        <pt x="317" y="365" on="0"/>
        <pt x="373" y="308" on="0"/>
        <pt x="412" y="237" on="0"/>
        <pt x="412" y="197" on="1"/>
        <pt x="412" y="134" on="0"/>
        <pt x="354" y="40" on="0"/>
        <pt x="250" y="-11" on="0"/>
        <pt x="184" y="-11" on="1"/>
        <pt x="120" y="-11" on="0"/>
        <pt x="17" y="18" on="0"/>
        <pt x="-5" y="33" on="1"/>
        <pt x="14" y="211" on="1"/>
      </contour>
    </TTGlyph>
    <TTGlyph name="Sacute.loclPLK" xMin="-5" yMin="-11" xMax="447" yMax="862">
      <contour>
        <pt x="384" y="862" on="1"/>
        <pt x="409" y="858" on="0"/>
        <pt x="444" y="819" on="0"/>
        <pt x="444" y="799" on="1"/>
        <pt x="444" y="779" on="0"/>
        <pt x="413" y="755" on="1"/>
        <pt x="294" y="663" on="1"/>
        <pt x="255" y="705" on="1"/>
      </contour>
      <contour>
        <pt x="85" y="211" on="1"/>
        <pt x="96" y="92" on="1"/>
        <pt x="96" y="91" on="0"/>
        <pt x="126" y="72" on="0"/>
        <pt x="180" y="56" on="0"/>
        <pt x="217" y="56" on="1"/>
        <pt x="254" y="56" on="0"/>
        <pt x="296" y="96" on="0"/>
        <pt x="296" y="124" on="1"/>
        <pt x="296" y="151" on="0"/>
        <pt x="286" y="184" on="0"/>
        <pt x="247" y="228" on="0"/>
        <pt x="203" y="267" on="1"/>
        <pt x="139" y="323" on="0"/>
        <pt x="82" y="381" on="0"/>
        <pt x="54" y="439" on="0"/>
        <pt x="54" y="479" on="1"/>
        <pt x="54" y="530" on="0"/>
        <pt x="104" y="613" on="0"/>
        <pt x="202" y="660" on="0"/>
        <pt x="272" y="660" on="1"/>
        <pt x="327" y="660" on="0"/>
        <pt x="421" y="647" on="0"/>
        <pt x="447" y="639" on="1"/>
        <pt x="429" y="459" on="1"/>
        <pt x="361" y="459" on="1"/>
        <pt x="351" y="567" on="1"/>
        <pt x="335" y="578" on="0"/>
        <pt x="275" y="595" on="0"/>
        <pt x="239" y="595" on="1"/>
        <pt x="198" y="595" on="0"/>
        <pt x="169" y="559" on="0"/>
        <pt x="169" y="531" on="1"/>
        <pt x="169" y="508" on="0"/>
        <pt x="208" y="459" on="0"/>
        <pt x="269" y="407" on="1"/>
        <pt x="317" y="365" on="0"/>
        <pt x="373" y="308" on="0"/>
        <pt x="412" y="237" on="0"/>
        <pt x="412" y="197" on="1"/>
        <pt x="412" y="134" on="0"/>
        <pt x="354" y="40" on="0"/>
        <pt x="250" y="-11" on="0"/>
        <pt x="184" y="-11" on="1"/>
        <pt x="120" y="-11" on="0"/>
        <pt x="17" y="18" on="0"/>
        <pt x="-5" y="33" on="1"/>
        <pt x="14" y="211" on="1"/>
      </contour>
    </TTGlyph>
    <TTGlyph name="Scaron" xMin="-5" yMin="-11" xMax="447" yMax="839">
      <contour>
        <pt x="288" y="778" on="1"/>
        <pt x="412" y="837" on="1"/>
        <pt x="438" y="798" on="1"/>
        <pt x="348" y="724" on="1"/>
        <pt x="342" y="719" on="0"/>
        <pt x="303" y="687" on="0"/>
        <pt x="282" y="674" on="0"/>
        <pt x="276" y="674" on="1"/>
        <pt x="267" y="674" on="0"/>
        <pt x="246" y="690" on="0"/>
        <pt x="226" y="709" on="0"/>
        <pt x="223" y="712" on="1"/>
        <pt x="136" y="791" on="1"/>
        <pt x="175" y="839" on="1"/>
      </contour>
      <contour>
        <pt x="85" y="211" on="1"/>
        <pt x="96" y="92" on="1"/>
        <pt x="96" y="91" on="0"/>
        <pt x="126" y="72" on="0"/>
        <pt x="180" y="56" on="0"/>
        <pt x="217" y="56" on="1"/>
        <pt x="254" y="56" on="0"/>
        <pt x="296" y="96" on="0"/>
        <pt x="296" y="124" on="1"/>
        <pt x="296" y="151" on="0"/>
        <pt x="286" y="184" on="0"/>
        <pt x="247" y="228" on="0"/>
        <pt x="203" y="267" on="1"/>
        <pt x="139" y="323" on="0"/>
        <pt x="82" y="381" on="0"/>
        <pt x="54" y="439" on="0"/>
        <pt x="54" y="479" on="1"/>
        <pt x="54" y="530" on="0"/>
        <pt x="104" y="613" on="0"/>
        <pt x="202" y="660" on="0"/>
        <pt x="272" y="660" on="1"/>
        <pt x="327" y="660" on="0"/>
        <pt x="421" y="647" on="0"/>
        <pt x="447" y="639" on="1"/>
        <pt x="429" y="459" on="1"/>
        <pt x="361" y="459" on="1"/>
        <pt x="351" y="567" on="1"/>
        <pt x="335" y="578" on="0"/>
        <pt x="275" y="595" on="0"/>
        <pt x="239" y="595" on="1"/>
        <pt x="198" y="595" on="0"/>
        <pt x="169" y="559" on="0"/>
        <pt x="169" y="531" on="1"/>
        <pt x="169" y="508" on="0"/>
        <pt x="208" y="459" on="0"/>
        <pt x="269" y="407" on="1"/>
        <pt x="317" y="365" on="0"/>
        <pt x="373" y="308" on="0"/>
        <pt x="412" y="237" on="0"/>
        <pt x="412" y="197" on="1"/>
        <pt x="412" y="134" on="0"/>
        <pt x="354" y="40" on="0"/>
        <pt x="250" y="-11" on="0"/>
        <pt x="184" y="-11" on="1"/>
        <pt x="120" y="-11" on="0"/>
        <pt x="17" y="18" on="0"/>
        <pt x="-5" y="33" on="1"/>
        <pt x="14" y="211" on="1"/>
      </contour>
    </TTGlyph>
    <TTGlyph name="Scedilla" xMin="-5" yMin="-194" xMax="447" yMax="660">
      <contour>
        <pt x="97" y="-121" on="0"/>
        <pt x="122" y="-131" on="0"/>
        <pt x="152" y="-136" on="0"/>
        <pt x="170" y="-136" on="1"/>
        <pt x="179" y="-136" on="0"/>
        <pt x="188" y="-128" on="0"/>
        <pt x="188" y="-122" on="1"/>
        <pt x="188" y="-115" on="0"/>
        <pt x="179" y="-106" on="0"/>
        <pt x="165" y="-99" on="1"/>
        <pt x="118" y="-76" on="1"/>
        <pt x="118" y="-51" on="1"/>
        <pt x="144" y="-9" on="1"/>
        <pt x="92" y="-4" on="0"/>
        <pt x="13" y="21" on="0"/>
        <pt x="-5" y="33" on="1"/>
        <pt x="14" y="211" on="1"/>
        <pt x="85" y="211" on="1"/>
        <pt x="96" y="92" on="1"/>
        <pt x="96" y="91" on="0"/>
        <pt x="126" y="72" on="0"/>
        <pt x="180" y="56" on="0"/>
        <pt x="217" y="56" on="1"/>
        <pt x="254" y="56" on="0"/>
        <pt x="296" y="96" on="0"/>
        <pt x="296" y="124" on="1"/>
        <pt x="296" y="151" on="0"/>
        <pt x="286" y="184" on="0"/>
        <pt x="247" y="228" on="0"/>
        <pt x="203" y="267" on="1"/>
        <pt x="139" y="323" on="0"/>
        <pt x="82" y="381" on="0"/>
        <pt x="54" y="439" on="0"/>
        <pt x="54" y="479" on="1"/>
        <pt x="54" y="530" on="0"/>
        <pt x="104" y="613" on="0"/>
        <pt x="202" y="660" on="0"/>
        <pt x="272" y="660" on="1"/>
        <pt x="327" y="660" on="0"/>
        <pt x="421" y="647" on="0"/>
        <pt x="447" y="639" on="1"/>
        <pt x="429" y="459" on="1"/>
        <pt x="361" y="459" on="1"/>
        <pt x="351" y="567" on="1"/>
        <pt x="335" y="578" on="0"/>
        <pt x="275" y="595" on="0"/>
        <pt x="239" y="595" on="1"/>
        <pt x="198" y="595" on="0"/>
        <pt x="169" y="559" on="0"/>
        <pt x="169" y="531" on="1"/>
        <pt x="169" y="508" on="0"/>
        <pt x="208" y="459" on="0"/>
        <pt x="269" y="407" on="1"/>
        <pt x="318" y="364" on="0"/>
        <pt x="373" y="308" on="0"/>
        <pt x="412" y="238" on="0"/>
        <pt x="412" y="197" on="1"/>
        <pt x="412" y="106" on="0"/>
        <pt x="294" y="-5" on="0"/>
        <pt x="199" y="-10" on="1"/>
        <pt x="199" y="-28" on="1"/>
        <pt x="233" y="-46" on="1"/>
        <pt x="258" y="-59" on="0"/>
        <pt x="285" y="-89" on="0"/>
        <pt x="285" y="-112" on="1"/>
        <pt x="285" y="-152" on="0"/>
        <pt x="228" y="-194" on="0"/>
        <pt x="185" y="-194" on="1"/>
        <pt x="110" y="-194" on="0"/>
        <pt x="68" y="-167" on="1"/>
        <pt x="94" y="-120" on="1"/>
      </contour>
    </TTGlyph>
    <TTGlyph name="Scircumflex" xMin="-5" yMin="-11" xMax="447" yMax="839">
      <component glyphName=".ttfautohint" x="0" y="0" flags="0x0"/>
      <component glyphName="S" x="0" y="0" flags="0x0"/>
      <component glyphName="uni0302.case" x="380" y="0" flags="0x0"/>
    </TTGlyph>
    <TTGlyph name="Scommaaccent" xMin="-5" yMin="-217" xMax="447" yMax="660">
      <contour>
        <pt x="85" y="211" on="1"/>
        <pt x="96" y="92" on="1"/>
        <pt x="96" y="91" on="0"/>
        <pt x="126" y="72" on="0"/>
        <pt x="180" y="56" on="0"/>
        <pt x="217" y="56" on="1"/>
        <pt x="254" y="56" on="0"/>
        <pt x="296" y="96" on="0"/>
        <pt x="296" y="124" on="1"/>
        <pt x="296" y="151" on="0"/>
        <pt x="286" y="184" on="0"/>
        <pt x="247" y="228" on="0"/>
        <pt x="203" y="267" on="1"/>
        <pt x="139" y="323" on="0"/>
        <pt x="82" y="381" on="0"/>
        <pt x="54" y="439" on="0"/>
        <pt x="54" y="479" on="1"/>
        <pt x="54" y="530" on="0"/>
        <pt x="104" y="613" on="0"/>
        <pt x="202" y="660" on="0"/>
        <pt x="272" y="660" on="1"/>
        <pt x="327" y="660" on="0"/>
        <pt x="421" y="647" on="0"/>
        <pt x="447" y="639" on="1"/>
        <pt x="429" y="459" on="1"/>
        <pt x="361" y="459" on="1"/>
        <pt x="351" y="567" on="1"/>
        <pt x="335" y="578" on="0"/>
        <pt x="275" y="595" on="0"/>
        <pt x="239" y="595" on="1"/>
        <pt x="198" y="595" on="0"/>
        <pt x="169" y="559" on="0"/>
        <pt x="169" y="531" on="1"/>
        <pt x="169" y="508" on="0"/>
        <pt x="208" y="459" on="0"/>
        <pt x="269" y="407" on="1"/>
        <pt x="317" y="365" on="0"/>
        <pt x="373" y="308" on="0"/>
        <pt x="412" y="237" on="0"/>
        <pt x="412" y="197" on="1"/>
        <pt x="412" y="134" on="0"/>
        <pt x="354" y="40" on="0"/>
        <pt x="250" y="-11" on="0"/>
        <pt x="184" y="-11" on="1"/>
        <pt x="120" y="-11" on="0"/>
        <pt x="17" y="18" on="0"/>
        <pt x="-5" y="33" on="1"/>
        <pt x="14" y="211" on="1"/>
      </contour>
      <contour>
        <pt x="106" y="-183" on="0"/>
        <pt x="123" y="-162" on="0"/>
        <pt x="139" y="-126" on="0"/>
        <pt x="139" y="-105" on="1"/>
        <pt x="139" y="-93" on="0"/>
        <pt x="131" y="-71" on="0"/>
        <pt x="121" y="-59" on="0"/>
        <pt x="120" y="-57" on="1"/>
        <pt x="128" y="-43" on="0"/>
        <pt x="159" y="-24" on="0"/>
        <pt x="177" y="-24" on="1"/>
        <pt x="208" y="-24" on="0"/>
        <pt x="239" y="-59" on="0"/>
        <pt x="239" y="-83" on="1"/>
        <pt x="239" y="-123" on="0"/>
        <pt x="189" y="-181" on="0"/>
        <pt x="127" y="-217" on="0"/>
        <pt x="127" y="-215" on="1"/>
        <pt x="103" y="-186" on="1"/>
      </contour>
    </TTGlyph>
    <TTGlyph name="T" xMin="26" yMin="0" xMax="561" yMax="648">
      <contour>
        <pt x="162" y="72" on="1"/>
        <pt x="234" y="579" on="1"/>
        <pt x="129" y="579" on="1"/>
        <pt x="92" y="464" on="1"/>
        <pt x="26" y="464" on="1"/>
        <pt x="46" y="648" on="1"/>
        <pt x="561" y="648" on="1"/>
        <pt x="533" y="464" on="1"/>
        <pt x="467" y="464" on="1"/>
        <pt x="467" y="579" on="1"/>
        <pt x="366" y="579" on="1"/>
        <pt x="296" y="72" on="1"/>
        <pt x="366" y="58" on="1"/>
        <pt x="358" y="0" on="1"/>
        <pt x="83" y="0" on="1"/>
        <pt x="91" y="58" on="1"/>
      </contour>
    </TTGlyph>
    <TTGlyph name="Tbar" xMin="26" yMin="0" xMax="561" yMax="648">
      <contour>
        <pt x="467" y="464" on="1"/>
        <pt x="467" y="579" on="1"/>
        <pt x="366" y="579" on="1"/>
        <pt x="337" y="366" on="1"/>
        <pt x="507" y="366" on="1"/>
        <pt x="497" y="299" on="1"/>
        <pt x="327" y="299" on="1"/>
        <pt x="296" y="72" on="1"/>
        <pt x="366" y="58" on="1"/>
        <pt x="358" y="0" on="1"/>
        <pt x="83" y="0" on="1"/>
        <pt x="91" y="58" on="1"/>
        <pt x="162" y="72" on="1"/>
        <pt x="194" y="299" on="1"/>
        <pt x="27" y="299" on="1"/>
        <pt x="37" y="366" on="1"/>
        <pt x="204" y="366" on="1"/>
        <pt x="234" y="579" on="1"/>
        <pt x="129" y="579" on="1"/>
        <pt x="92" y="464" on="1"/>
        <pt x="26" y="464" on="1"/>
        <pt x="46" y="648" on="1"/>
        <pt x="561" y="648" on="1"/>
        <pt x="533" y="464" on="1"/>
      </contour>
    </TTGlyph>
    <TTGlyph name="Tcaron" xMin="22" yMin="0" xMax="557" yMax="839">
      <contour>
        <pt x="320" y="778" on="1"/>
        <pt x="444" y="837" on="1"/>
        <pt x="470" y="798" on="1"/>
        <pt x="380" y="724" on="1"/>
        <pt x="374" y="719" on="0"/>
        <pt x="335" y="687" on="0"/>
        <pt x="314" y="674" on="0"/>
        <pt x="308" y="674" on="1"/>
        <pt x="299" y="674" on="0"/>
        <pt x="278" y="690" on="0"/>
        <pt x="258" y="709" on="0"/>
        <pt x="255" y="712" on="1"/>
        <pt x="168" y="791" on="1"/>
        <pt x="207" y="839" on="1"/>
      </contour>
      <contour>
        <pt x="158" y="72" on="1"/>
        <pt x="230" y="579" on="1"/>
        <pt x="125" y="579" on="1"/>
        <pt x="88" y="464" on="1"/>
        <pt x="22" y="464" on="1"/>
        <pt x="42" y="648" on="1"/>
        <pt x="557" y="648" on="1"/>
        <pt x="529" y="464" on="1"/>
        <pt x="463" y="464" on="1"/>
        <pt x="463" y="579" on="1"/>
        <pt x="362" y="579" on="1"/>
        <pt x="292" y="72" on="1"/>
        <pt x="362" y="58" on="1"/>
        <pt x="354" y="0" on="1"/>
        <pt x="79" y="0" on="1"/>
        <pt x="87" y="58" on="1"/>
      </contour>
    </TTGlyph>
    <TTGlyph name="Thorn" xMin="-15" yMin="0" xMax="516" yMax="648">
      <contour>
        <pt x="65" y="72" on="1"/>
        <pt x="136" y="576" on="1"/>
        <pt x="66" y="590" on="1"/>
        <pt x="74" y="648" on="1"/>
        <pt x="349" y="648" on="1"/>
        <pt x="341" y="590" on="1"/>
        <pt x="270" y="576" on="1"/>
        <pt x="261" y="517" on="1"/>
        <pt x="300" y="517" on="1"/>
        <pt x="406" y="517" on="0"/>
        <pt x="516" y="446" on="0"/>
        <pt x="516" y="375" on="1"/>
        <pt x="516" y="268" on="0"/>
        <pt x="393" y="144" on="0"/>
        <pt x="239" y="144" on="1"/>
        <pt x="209" y="144" on="1"/>
        <pt x="199" y="72" on="1"/>
        <pt x="269" y="58" on="1"/>
        <pt x="260" y="0" on="1"/>
        <pt x="-15" y="0" on="1"/>
        <pt x="-6" y="58" on="1"/>
      </contour>
      <contour>
        <pt x="239" y="203" on="1"/>
        <pt x="315" y="203" on="0"/>
        <pt x="373" y="278" on="0"/>
        <pt x="373" y="354" on="1"/>
        <pt x="373" y="406" on="0"/>
        <pt x="331" y="448" on="0"/>
        <pt x="284" y="448" on="1"/>
        <pt x="265" y="448" on="0"/>
        <pt x="251" y="446" on="1"/>
        <pt x="217" y="205" on="1"/>
      </contour>
    </TTGlyph>
    <TTGlyph name="U" xMin="48" yMin="-11" xMax="672" yMax="648">
      <contour>
        <pt x="48" y="590" on="1"/>
        <pt x="56" y="648" on="1"/>
        <pt x="331" y="648" on="1"/>
        <pt x="323" y="590" on="1"/>
        <pt x="252" y="576" on="1"/>
        <pt x="209" y="278" on="1"/>
        <pt x="197" y="199" on="0"/>
        <pt x="197" y="165" on="1"/>
        <pt x="197" y="114" on="0"/>
        <pt x="241" y="54" on="0"/>
        <pt x="302" y="54" on="1"/>
        <pt x="352" y="54" on="0"/>
        <pt x="413" y="93" on="0"/>
        <pt x="452" y="189" on="0"/>
        <pt x="465" y="278" on="1"/>
        <pt x="508" y="576" on="1"/>
        <pt x="438" y="590" on="1"/>
        <pt x="445" y="648" on="1"/>
        <pt x="672" y="648" on="1"/>
        <pt x="665" y="590" on="1"/>
        <pt x="594" y="576" on="1"/>
        <pt x="553" y="278" on="1"/>
        <pt x="538" y="170" on="0"/>
        <pt x="480" y="46" on="0"/>
        <pt x="371" y="-11" on="0"/>
        <pt x="280" y="-11" on="1"/>
        <pt x="161" y="-11" on="0"/>
        <pt x="67" y="84" on="0"/>
        <pt x="67" y="163" on="1"/>
        <pt x="67" y="211" on="0"/>
        <pt x="76" y="274" on="1"/>
        <pt x="118" y="576" on="1"/>
      </contour>
    </TTGlyph>
    <TTGlyph name="Uacute" xMin="48" yMin="-11" xMax="672" yMax="840">
      <contour>
        <pt x="298" y="722" on="1"/>
        <pt x="486" y="840" on="1"/>
        <pt x="524" y="819" on="0"/>
        <pt x="524" y="775" on="1"/>
        <pt x="524" y="760" on="0"/>
        <pt x="506" y="738" on="0"/>
        <pt x="479" y="729" on="1"/>
        <pt x="322" y="674" on="1"/>
      </contour>
      <contour>
        <pt x="48" y="590" on="1"/>
        <pt x="56" y="648" on="1"/>
        <pt x="331" y="648" on="1"/>
        <pt x="323" y="590" on="1"/>
        <pt x="252" y="576" on="1"/>
        <pt x="209" y="278" on="1"/>
        <pt x="197" y="199" on="0"/>
        <pt x="197" y="165" on="1"/>
        <pt x="197" y="114" on="0"/>
        <pt x="241" y="54" on="0"/>
        <pt x="302" y="54" on="1"/>
        <pt x="352" y="54" on="0"/>
        <pt x="413" y="93" on="0"/>
        <pt x="452" y="189" on="0"/>
        <pt x="465" y="278" on="1"/>
        <pt x="508" y="576" on="1"/>
        <pt x="438" y="590" on="1"/>
        <pt x="445" y="648" on="1"/>
        <pt x="672" y="648" on="1"/>
        <pt x="665" y="590" on="1"/>
        <pt x="594" y="576" on="1"/>
        <pt x="553" y="278" on="1"/>
        <pt x="538" y="170" on="0"/>
        <pt x="480" y="46" on="0"/>
        <pt x="371" y="-11" on="0"/>
        <pt x="280" y="-11" on="1"/>
        <pt x="161" y="-11" on="0"/>
        <pt x="67" y="84" on="0"/>
        <pt x="67" y="163" on="1"/>
        <pt x="67" y="211" on="0"/>
        <pt x="76" y="274" on="1"/>
        <pt x="118" y="576" on="1"/>
      </contour>
    </TTGlyph>
    <TTGlyph name="Ubreve" xMin="48" yMin="-11" xMax="672" yMax="839">
      <component glyphName=".ttfautohint" x="48" y="0" flags="0x0"/>
      <component glyphName="U" x="0" y="0" flags="0x0"/>
      <component glyphName="uni0306.case" x="478" y="0" flags="0x0"/>
    </TTGlyph>
    <TTGlyph name="Ucircumflex" xMin="48" yMin="-11" xMax="672" yMax="839">
      <contour>
        <pt x="335" y="789" on="1"/>
        <pt x="341" y="794" on="0"/>
        <pt x="380" y="826" on="0"/>
        <pt x="401" y="839" on="0"/>
        <pt x="407" y="839" on="1"/>
        <pt x="415" y="839" on="0"/>
        <pt x="434" y="825" on="0"/>
        <pt x="455" y="806" on="0"/>
        <pt x="460" y="801" on="1"/>
        <pt x="547" y="722" on="1"/>
        <pt x="508" y="674" on="1"/>
        <pt x="395" y="735" on="1"/>
        <pt x="271" y="676" on="1"/>
        <pt x="245" y="715" on="1"/>
      </contour>
      <contour>
        <pt x="48" y="590" on="1"/>
        <pt x="56" y="648" on="1"/>
        <pt x="331" y="648" on="1"/>
        <pt x="323" y="590" on="1"/>
        <pt x="252" y="576" on="1"/>
        <pt x="209" y="278" on="1"/>
        <pt x="197" y="199" on="0"/>
        <pt x="197" y="165" on="1"/>
        <pt x="197" y="114" on="0"/>
        <pt x="241" y="54" on="0"/>
        <pt x="302" y="54" on="1"/>
        <pt x="352" y="54" on="0"/>
        <pt x="413" y="93" on="0"/>
        <pt x="452" y="189" on="0"/>
        <pt x="465" y="278" on="1"/>
        <pt x="508" y="576" on="1"/>
        <pt x="438" y="590" on="1"/>
        <pt x="445" y="648" on="1"/>
        <pt x="672" y="648" on="1"/>
        <pt x="665" y="590" on="1"/>
        <pt x="594" y="576" on="1"/>
        <pt x="553" y="278" on="1"/>
        <pt x="538" y="170" on="0"/>
        <pt x="480" y="46" on="0"/>
        <pt x="371" y="-11" on="0"/>
        <pt x="280" y="-11" on="1"/>
        <pt x="161" y="-11" on="0"/>
        <pt x="67" y="84" on="0"/>
        <pt x="67" y="163" on="1"/>
        <pt x="67" y="211" on="0"/>
        <pt x="76" y="274" on="1"/>
        <pt x="118" y="576" on="1"/>
      </contour>
    </TTGlyph>
    <TTGlyph name="Udieresis" xMin="48" yMin="-11" xMax="672" yMax="832">
      <contour>
        <pt x="254" y="687" on="0"/>
        <pt x="219" y="724" on="0"/>
        <pt x="219" y="751" on="1"/>
        <pt x="219" y="783" on="0"/>
        <pt x="258" y="832" on="0"/>
        <pt x="293" y="832" on="1"/>
        <pt x="320" y="832" on="0"/>
        <pt x="356" y="796" on="0"/>
        <pt x="356" y="766" on="1"/>
        <pt x="356" y="734" on="0"/>
        <pt x="316" y="687" on="0"/>
        <pt x="281" y="687" on="1"/>
      </contour>
      <contour>
        <pt x="477" y="687" on="0"/>
        <pt x="442" y="724" on="0"/>
        <pt x="442" y="751" on="1"/>
        <pt x="442" y="783" on="0"/>
        <pt x="481" y="832" on="0"/>
        <pt x="516" y="832" on="1"/>
        <pt x="543" y="832" on="0"/>
        <pt x="579" y="796" on="0"/>
        <pt x="579" y="766" on="1"/>
        <pt x="579" y="734" on="0"/>
        <pt x="539" y="687" on="0"/>
        <pt x="504" y="687" on="1"/>
      </contour>
      <contour>
        <pt x="48" y="590" on="1"/>
        <pt x="56" y="648" on="1"/>
        <pt x="331" y="648" on="1"/>
        <pt x="323" y="590" on="1"/>
        <pt x="252" y="576" on="1"/>
        <pt x="209" y="278" on="1"/>
        <pt x="197" y="199" on="0"/>
        <pt x="197" y="165" on="1"/>
        <pt x="197" y="114" on="0"/>
        <pt x="241" y="54" on="0"/>
        <pt x="302" y="54" on="1"/>
        <pt x="352" y="54" on="0"/>
        <pt x="413" y="93" on="0"/>
        <pt x="452" y="189" on="0"/>
        <pt x="465" y="278" on="1"/>
        <pt x="508" y="576" on="1"/>
        <pt x="438" y="590" on="1"/>
        <pt x="445" y="648" on="1"/>
        <pt x="672" y="648" on="1"/>
        <pt x="665" y="590" on="1"/>
        <pt x="594" y="576" on="1"/>
        <pt x="553" y="278" on="1"/>
        <pt x="538" y="170" on="0"/>
        <pt x="480" y="46" on="0"/>
        <pt x="371" y="-11" on="0"/>
        <pt x="280" y="-11" on="1"/>
        <pt x="161" y="-11" on="0"/>
        <pt x="67" y="84" on="0"/>
        <pt x="67" y="163" on="1"/>
        <pt x="67" y="211" on="0"/>
        <pt x="76" y="274" on="1"/>
        <pt x="118" y="576" on="1"/>
      </contour>
    </TTGlyph>
    <TTGlyph name="Ugrave" xMin="48" yMin="-11" xMax="672" yMax="840">
      <contour>
        <pt x="299" y="738" on="0"/>
        <pt x="281" y="759" on="0"/>
        <pt x="281" y="774" on="1"/>
        <pt x="281" y="800" on="0"/>
        <pt x="302" y="830" on="0"/>
        <pt x="319" y="840" on="1"/>
        <pt x="507" y="722" on="1"/>
        <pt x="483" y="674" on="1"/>
        <pt x="326" y="729" on="1"/>
      </contour>
      <contour>
        <pt x="48" y="590" on="1"/>
        <pt x="56" y="648" on="1"/>
        <pt x="331" y="648" on="1"/>
        <pt x="323" y="590" on="1"/>
        <pt x="252" y="576" on="1"/>
        <pt x="209" y="278" on="1"/>
        <pt x="197" y="199" on="0"/>
        <pt x="197" y="165" on="1"/>
        <pt x="197" y="114" on="0"/>
        <pt x="241" y="54" on="0"/>
        <pt x="302" y="54" on="1"/>
        <pt x="352" y="54" on="0"/>
        <pt x="413" y="93" on="0"/>
        <pt x="452" y="189" on="0"/>
        <pt x="465" y="278" on="1"/>
        <pt x="508" y="576" on="1"/>
        <pt x="438" y="590" on="1"/>
        <pt x="445" y="648" on="1"/>
        <pt x="672" y="648" on="1"/>
        <pt x="665" y="590" on="1"/>
        <pt x="594" y="576" on="1"/>
        <pt x="553" y="278" on="1"/>
        <pt x="538" y="170" on="0"/>
        <pt x="480" y="46" on="0"/>
        <pt x="371" y="-11" on="0"/>
        <pt x="280" y="-11" on="1"/>
        <pt x="161" y="-11" on="0"/>
        <pt x="67" y="84" on="0"/>
        <pt x="67" y="163" on="1"/>
        <pt x="67" y="211" on="0"/>
        <pt x="76" y="274" on="1"/>
        <pt x="118" y="576" on="1"/>
      </contour>
    </TTGlyph>
    <TTGlyph name="Uhorn" xMin="48" yMin="-11" xMax="737" yMax="779">
      <contour>
        <pt x="737" y="617" on="0"/>
        <pt x="593" y="572" on="1"/>
        <pt x="553" y="278" on="1"/>
        <pt x="538" y="170" on="0"/>
        <pt x="480" y="46" on="0"/>
        <pt x="371" y="-11" on="0"/>
        <pt x="280" y="-11" on="1"/>
        <pt x="161" y="-11" on="0"/>
        <pt x="67" y="84" on="0"/>
        <pt x="67" y="163" on="1"/>
        <pt x="67" y="211" on="0"/>
        <pt x="76" y="274" on="1"/>
        <pt x="118" y="576" on="1"/>
        <pt x="48" y="590" on="1"/>
        <pt x="56" y="648" on="1"/>
        <pt x="331" y="648" on="1"/>
        <pt x="323" y="590" on="1"/>
        <pt x="252" y="576" on="1"/>
        <pt x="209" y="278" on="1"/>
        <pt x="197" y="199" on="0"/>
        <pt x="197" y="165" on="1"/>
        <pt x="197" y="114" on="0"/>
        <pt x="241" y="54" on="0"/>
        <pt x="302" y="54" on="1"/>
        <pt x="352" y="54" on="0"/>
        <pt x="413" y="93" on="0"/>
        <pt x="452" y="189" on="0"/>
        <pt x="465" y="278" on="1"/>
        <pt x="508" y="576" on="1"/>
        <pt x="438" y="590" on="1"/>
        <pt x="445" y="648" on="1"/>
        <pt x="576" y="648" on="1"/>
        <pt x="613" y="648" on="0"/>
        <pt x="645" y="665" on="0"/>
        <pt x="645" y="687" on="1"/>
        <pt x="645" y="697" on="0"/>
        <pt x="638" y="710" on="0"/>
        <pt x="631" y="716" on="1"/>
        <pt x="631" y="731" on="1"/>
        <pt x="704" y="779" on="1"/>
        <pt x="705" y="778" on="0"/>
        <pt x="722" y="766" on="0"/>
        <pt x="737" y="736" on="0"/>
        <pt x="737" y="718" on="1"/>
      </contour>
    </TTGlyph>
    <TTGlyph name="Uhungarumlaut" xMin="48" yMin="-11" xMax="672" yMax="846">
      <contour>
        <pt x="339" y="846" on="1"/>
        <pt x="365" y="846" on="0"/>
        <pt x="409" y="811" on="0"/>
        <pt x="409" y="790" on="1"/>
        <pt x="409" y="771" on="0"/>
        <pt x="386" y="741" on="0"/>
        <pt x="364" y="727" on="1"/>
        <pt x="264" y="662" on="1"/>
        <pt x="226" y="696" on="1"/>
      </contour>
      <contour>
        <pt x="528" y="846" on="1"/>
        <pt x="554" y="846" on="0"/>
        <pt x="598" y="811" on="0"/>
        <pt x="598" y="790" on="1"/>
        <pt x="598" y="771" on="0"/>
        <pt x="575" y="741" on="0"/>
        <pt x="553" y="727" on="1"/>
        <pt x="453" y="662" on="1"/>
        <pt x="415" y="696" on="1"/>
      </contour>
      <contour>
        <pt x="48" y="590" on="1"/>
        <pt x="56" y="648" on="1"/>
        <pt x="331" y="648" on="1"/>
        <pt x="323" y="590" on="1"/>
        <pt x="252" y="576" on="1"/>
        <pt x="209" y="278" on="1"/>
        <pt x="197" y="199" on="0"/>
        <pt x="197" y="165" on="1"/>
        <pt x="197" y="114" on="0"/>
        <pt x="241" y="54" on="0"/>
        <pt x="302" y="54" on="1"/>
        <pt x="352" y="54" on="0"/>
        <pt x="413" y="93" on="0"/>
        <pt x="452" y="189" on="0"/>
        <pt x="465" y="278" on="1"/>
        <pt x="508" y="576" on="1"/>
        <pt x="438" y="590" on="1"/>
        <pt x="445" y="648" on="1"/>
        <pt x="672" y="648" on="1"/>
        <pt x="665" y="590" on="1"/>
        <pt x="594" y="576" on="1"/>
        <pt x="553" y="278" on="1"/>
        <pt x="538" y="170" on="0"/>
        <pt x="480" y="46" on="0"/>
        <pt x="371" y="-11" on="0"/>
        <pt x="280" y="-11" on="1"/>
        <pt x="161" y="-11" on="0"/>
        <pt x="67" y="84" on="0"/>
        <pt x="67" y="163" on="1"/>
        <pt x="67" y="211" on="0"/>
        <pt x="76" y="274" on="1"/>
        <pt x="118" y="576" on="1"/>
      </contour>
    </TTGlyph>
    <TTGlyph name="Umacron" xMin="48" yMin="-11" xMax="672" yMax="798">
      <contour>
        <pt x="569" y="798" on="1"/>
        <pt x="559" y="716" on="1"/>
        <pt x="209" y="716" on="1"/>
        <pt x="219" y="798" on="1"/>
      </contour>
      <contour>
        <pt x="48" y="590" on="1"/>
        <pt x="56" y="648" on="1"/>
        <pt x="331" y="648" on="1"/>
        <pt x="323" y="590" on="1"/>
        <pt x="252" y="576" on="1"/>
        <pt x="209" y="278" on="1"/>
        <pt x="197" y="199" on="0"/>
        <pt x="197" y="165" on="1"/>
        <pt x="197" y="114" on="0"/>
        <pt x="241" y="54" on="0"/>
        <pt x="302" y="54" on="1"/>
        <pt x="352" y="54" on="0"/>
        <pt x="413" y="93" on="0"/>
        <pt x="452" y="189" on="0"/>
        <pt x="465" y="278" on="1"/>
        <pt x="508" y="576" on="1"/>
        <pt x="438" y="590" on="1"/>
        <pt x="445" y="648" on="1"/>
        <pt x="672" y="648" on="1"/>
        <pt x="665" y="590" on="1"/>
        <pt x="594" y="576" on="1"/>
        <pt x="553" y="278" on="1"/>
        <pt x="538" y="170" on="0"/>
        <pt x="480" y="46" on="0"/>
        <pt x="371" y="-11" on="0"/>
        <pt x="280" y="-11" on="1"/>
        <pt x="161" y="-11" on="0"/>
        <pt x="67" y="84" on="0"/>
        <pt x="67" y="163" on="1"/>
        <pt x="67" y="211" on="0"/>
        <pt x="76" y="274" on="1"/>
        <pt x="118" y="576" on="1"/>
      </contour>
    </TTGlyph>
    <TTGlyph name="Uogonek" xMin="48" yMin="-187" xMax="672" yMax="648">
      <contour>
        <pt x="288" y="-11" on="0"/>
        <pt x="280" y="-11" on="1"/>
        <pt x="161" y="-11" on="0"/>
        <pt x="67" y="84" on="0"/>
        <pt x="67" y="163" on="1"/>
        <pt x="67" y="211" on="0"/>
        <pt x="76" y="274" on="1"/>
        <pt x="118" y="576" on="1"/>
        <pt x="48" y="590" on="1"/>
        <pt x="56" y="648" on="1"/>
        <pt x="331" y="648" on="1"/>
        <pt x="323" y="590" on="1"/>
        <pt x="252" y="576" on="1"/>
        <pt x="209" y="278" on="1"/>
        <pt x="197" y="199" on="0"/>
        <pt x="197" y="165" on="1"/>
        <pt x="197" y="114" on="0"/>
        <pt x="241" y="54" on="0"/>
        <pt x="302" y="54" on="1"/>
        <pt x="352" y="54" on="0"/>
        <pt x="413" y="93" on="0"/>
        <pt x="452" y="189" on="0"/>
        <pt x="465" y="278" on="1"/>
        <pt x="508" y="576" on="1"/>
        <pt x="438" y="590" on="1"/>
        <pt x="445" y="648" on="1"/>
        <pt x="672" y="648" on="1"/>
        <pt x="665" y="590" on="1"/>
        <pt x="594" y="576" on="1"/>
        <pt x="553" y="278" on="1"/>
        <pt x="536" y="153" on="0"/>
        <pt x="460" y="24" on="0"/>
        <pt x="385" y="2" on="1"/>
        <pt x="330" y="-39" on="0"/>
        <pt x="330" y="-84" on="1"/>
        <pt x="330" y="-103" on="0"/>
        <pt x="347" y="-118" on="0"/>
        <pt x="365" y="-118" on="1"/>
        <pt x="386" y="-118" on="0"/>
        <pt x="417" y="-99" on="1"/>
        <pt x="441" y="-134" on="1"/>
        <pt x="441" y="-136" on="0"/>
        <pt x="410" y="-163" on="0"/>
        <pt x="361" y="-187" on="0"/>
        <pt x="332" y="-187" on="1"/>
        <pt x="288" y="-187" on="0"/>
        <pt x="235" y="-151" on="0"/>
        <pt x="235" y="-116" on="1"/>
        <pt x="235" y="-56" on="0"/>
        <pt x="304" y="-9" on="1"/>
        <pt x="303" y="-6" on="1"/>
      </contour>
    </TTGlyph>
    <TTGlyph name="Uring" xMin="48" yMin="-11" xMax="672" yMax="839">
      <contour>
        <pt x="291" y="765" on="0"/>
        <pt x="320" y="810" on="0"/>
        <pt x="374" y="839" on="0"/>
        <pt x="410" y="839" on="1"/>
        <pt x="506" y="839" on="0"/>
        <pt x="506" y="758" on="1"/>
        <pt x="506" y="720" on="0"/>
        <pt x="445" y="663" on="0"/>
        <pt x="389" y="663" on="1"/>
        <pt x="337" y="663" on="0"/>
        <pt x="291" y="702" on="0"/>
        <pt x="291" y="742" on="1"/>
      </contour>
      <contour>
        <pt x="414" y="710" on="0"/>
        <pt x="429" y="729" on="0"/>
        <pt x="429" y="759" on="1"/>
        <pt x="429" y="792" on="0"/>
        <pt x="401" y="792" on="1"/>
        <pt x="382" y="792" on="0"/>
        <pt x="367" y="771" on="0"/>
        <pt x="367" y="741" on="1"/>
        <pt x="367" y="710" on="0"/>
        <pt x="395" y="710" on="1"/>
      </contour>
      <contour>
        <pt x="48" y="590" on="1"/>
        <pt x="56" y="648" on="1"/>
        <pt x="331" y="648" on="1"/>
        <pt x="323" y="590" on="1"/>
        <pt x="252" y="576" on="1"/>
        <pt x="209" y="278" on="1"/>
        <pt x="197" y="199" on="0"/>
        <pt x="197" y="165" on="1"/>
        <pt x="197" y="114" on="0"/>
        <pt x="241" y="54" on="0"/>
        <pt x="302" y="54" on="1"/>
        <pt x="352" y="54" on="0"/>
        <pt x="413" y="93" on="0"/>
        <pt x="452" y="189" on="0"/>
        <pt x="465" y="278" on="1"/>
        <pt x="508" y="576" on="1"/>
        <pt x="438" y="590" on="1"/>
        <pt x="445" y="648" on="1"/>
        <pt x="672" y="648" on="1"/>
        <pt x="665" y="590" on="1"/>
        <pt x="594" y="576" on="1"/>
        <pt x="553" y="278" on="1"/>
        <pt x="538" y="170" on="0"/>
        <pt x="480" y="46" on="0"/>
        <pt x="371" y="-11" on="0"/>
        <pt x="280" y="-11" on="1"/>
        <pt x="161" y="-11" on="0"/>
        <pt x="67" y="84" on="0"/>
        <pt x="67" y="163" on="1"/>
        <pt x="67" y="211" on="0"/>
        <pt x="76" y="274" on="1"/>
        <pt x="118" y="576" on="1"/>
      </contour>
    </TTGlyph>
    <TTGlyph name="Utilde" xMin="48" yMin="-11" xMax="672" yMax="825">
      <component glyphName=".ttfautohint" x="48" y="0" flags="0x0"/>
      <component glyphName="U" x="0" y="0" flags="0x0"/>
      <component glyphName="tildecomb.case" x="517" y="0" flags="0x0"/>
    </TTGlyph>
    <TTGlyph name="V" xMin="6" yMin="-9" xMax="601" yMax="648">
      <contour>
        <pt x="6" y="590" on="1"/>
        <pt x="10" y="648" on="1"/>
        <pt x="282" y="648" on="1"/>
        <pt x="277" y="590" on="1"/>
        <pt x="213" y="580" on="1"/>
        <pt x="213" y="572" on="1"/>
        <pt x="275" y="196" on="1"/>
        <pt x="275" y="169" on="1"/>
        <pt x="279" y="169" on="1"/>
        <pt x="286" y="196" on="1"/>
        <pt x="452" y="573" on="1"/>
        <pt x="452" y="579" on="1"/>
        <pt x="375" y="590" on="1"/>
        <pt x="382" y="648" on="1"/>
        <pt x="601" y="648" on="1"/>
        <pt x="593" y="590" on="1"/>
        <pt x="536" y="576" on="1"/>
        <pt x="271" y="-9" on="1"/>
        <pt x="181" y="-9" on="1"/>
        <pt x="72" y="576" on="1"/>
      </contour>
    </TTGlyph>
    <TTGlyph name="W" xMin="4" yMin="-8" xMax="937" yMax="648">
      <contour>
        <pt x="4" y="598" on="1"/>
        <pt x="10" y="648" on="1"/>
        <pt x="289" y="648" on="1"/>
        <pt x="283" y="598" on="1"/>
        <pt x="212" y="584" on="1"/>
        <pt x="251" y="174" on="1"/>
        <pt x="251" y="145" on="1"/>
        <pt x="255" y="145" on="1"/>
        <pt x="262" y="174" on="1"/>
        <pt x="418" y="522" on="1"/>
        <pt x="409" y="586" on="1"/>
        <pt x="346" y="598" on="1"/>
        <pt x="352" y="648" on="1"/>
        <pt x="632" y="648" on="1"/>
        <pt x="626" y="598" on="1"/>
        <pt x="555" y="584" on="1"/>
        <pt x="555" y="568" on="1"/>
        <pt x="594" y="173" on="1"/>
        <pt x="594" y="146" on="1"/>
        <pt x="598" y="146" on="1"/>
        <pt x="605" y="173" on="1"/>
        <pt x="784" y="582" on="1"/>
        <pt x="714" y="598" on="1"/>
        <pt x="720" y="648" on="1"/>
        <pt x="937" y="648" on="1"/>
        <pt x="931" y="598" on="1"/>
        <pt x="876" y="587" on="1"/>
        <pt x="603" y="-8" on="1"/>
        <pt x="491" y="-8" on="1"/>
        <pt x="438" y="376" on="1"/>
        <pt x="259" y="-8" on="1"/>
        <pt x="148" y="-8" on="1"/>
        <pt x="67" y="586" on="1"/>
      </contour>
    </TTGlyph>
    <TTGlyph name="Wacute" xMin="4" yMin="-8" xMax="937" yMax="840">
      <component glyphName=".ttfautohint" x="4" y="0" flags="0x0"/>
      <component glyphName="W" x="0" y="0" flags="0x0"/>
      <component glyphName="acutecomb.case" x="588" y="0" flags="0x0"/>
    </TTGlyph>
    <TTGlyph name="Wcircumflex" xMin="4" yMin="-8" xMax="937" yMax="839">
      <component glyphName=".ttfautohint" x="4" y="0" flags="0x0"/>
      <component glyphName="W" x="0" y="0" flags="0x0"/>
      <component glyphName="uni0302.case" x="583" y="0" flags="0x0"/>
    </TTGlyph>
    <TTGlyph name="Wdieresis" xMin="4" yMin="-8" xMax="937" yMax="832">
      <component glyphName=".ttfautohint" x="4" y="0" flags="0x0"/>
      <component glyphName="W" x="0" y="0" flags="0x0"/>
      <component glyphName="uni0308.case" x="606" y="0" flags="0x0"/>
    </TTGlyph>
    <TTGlyph name="Wgrave" xMin="4" yMin="-8" xMax="937" yMax="840">
      <component glyphName=".ttfautohint" x="4" y="0" flags="0x0"/>
      <component glyphName="W" x="0" y="0" flags="0x0"/>
      <component glyphName="gravecomb.case" x="494" y="0" flags="0x0"/>
    </TTGlyph>
    <TTGlyph name="X" xMin="-55" yMin="0" xMax="606" yMax="648">
      <contour>
        <pt x="31" y="69" on="1"/>
        <pt x="224" y="317" on="1"/>
        <pt x="101" y="588" on="1"/>
        <pt x="48" y="598" on="1"/>
        <pt x="54" y="648" on="1"/>
        <pt x="326" y="648" on="1"/>
        <pt x="320" y="598" on="1"/>
        <pt x="259" y="584" on="1"/>
        <pt x="259" y="562" on="1"/>
        <pt x="321" y="420" on="1"/>
        <pt x="433" y="566" on="1"/>
        <pt x="433" y="584" on="1"/>
        <pt x="387" y="595" on="1"/>
        <pt x="395" y="648" on="1"/>
        <pt x="606" y="648" on="1"/>
        <pt x="600" y="594" on="1"/>
        <pt x="539" y="579" on="1"/>
        <pt x="355" y="343" on="1"/>
        <pt x="477" y="67" on="1"/>
        <pt x="536" y="50" on="1"/>
        <pt x="532" y="0" on="1"/>
        <pt x="267" y="0" on="1"/>
        <pt x="271" y="50" on="1"/>
        <pt x="331" y="66" on="1"/>
        <pt x="331" y="85" on="1"/>
        <pt x="261" y="238" on="1"/>
        <pt x="142" y="82" on="1"/>
        <pt x="142" y="64" on="1"/>
        <pt x="188" y="50" on="1"/>
        <pt x="182" y="0" on="1"/>
        <pt x="-55" y="0" on="1"/>
        <pt x="-48" y="50" on="1"/>
      </contour>
    </TTGlyph>
    <TTGlyph name="Y" xMin="11" yMin="0" xMax="556" yMax="648">
      <contour>
        <pt x="162" y="64" on="1"/>
        <pt x="187" y="257" on="1"/>
        <pt x="65" y="586" on="1"/>
        <pt x="11" y="596" on="1"/>
        <pt x="17" y="648" on="1"/>
        <pt x="278" y="648" on="1"/>
        <pt x="272" y="598" on="1"/>
        <pt x="208" y="584" on="1"/>
        <pt x="208" y="562" on="1"/>
        <pt x="279" y="345" on="1"/>
        <pt x="284" y="345" on="1"/>
        <pt x="404" y="576" on="1"/>
        <pt x="404" y="585" on="1"/>
        <pt x="342" y="598" on="1"/>
        <pt x="348" y="648" on="1"/>
        <pt x="556" y="648" on="1"/>
        <pt x="550" y="598" on="1"/>
        <pt x="496" y="586" on="1"/>
        <pt x="325" y="274" on="1"/>
        <pt x="296" y="64" on="1"/>
        <pt x="367" y="50" on="1"/>
        <pt x="361" y="0" on="1"/>
        <pt x="85" y="0" on="1"/>
        <pt x="91" y="50" on="1"/>
      </contour>
    </TTGlyph>
    <TTGlyph name="Y.loclGUA" xMin="48" yMin="-14" xMax="671" yMax="648">
      <contour>
        <pt x="671" y="648" on="1"/>
        <pt x="664" y="590" on="1"/>
        <pt x="593" y="576" on="1"/>
        <pt x="552" y="259" on="1"/>
        <pt x="540" y="164" on="0"/>
        <pt x="481" y="46" on="0"/>
        <pt x="361" y="-14" on="0"/>
        <pt x="261" y="-14" on="1"/>
        <pt x="204" y="-14" on="0"/>
        <pt x="89" y="2" on="0"/>
        <pt x="59" y="13" on="1"/>
        <pt x="83" y="193" on="1"/>
        <pt x="154" y="193" on="1"/>
        <pt x="168" y="68" on="1"/>
        <pt x="206" y="54" on="0"/>
        <pt x="268" y="54" on="1"/>
        <pt x="315" y="54" on="0"/>
        <pt x="370" y="82" on="0"/>
        <pt x="402" y="152" on="0"/>
        <pt x="413" y="219" on="1"/>
        <pt x="372" y="205" on="0"/>
        <pt x="311" y="205" on="1"/>
        <pt x="192" y="205" on="0"/>
        <pt x="98" y="300" on="0"/>
        <pt x="98" y="379" on="1"/>
        <pt x="98" y="414" on="0"/>
        <pt x="107" y="490" on="1"/>
        <pt x="118" y="576" on="1"/>
        <pt x="48" y="590" on="1"/>
        <pt x="56" y="648" on="1"/>
        <pt x="331" y="648" on="1"/>
        <pt x="323" y="590" on="1"/>
        <pt x="252" y="576" on="1"/>
        <pt x="240" y="494" on="1"/>
        <pt x="228" y="415" on="0"/>
        <pt x="228" y="381" on="1"/>
        <pt x="228" y="330" on="0"/>
        <pt x="272" y="270" on="0"/>
        <pt x="333" y="270" on="1"/>
        <pt x="392" y="270" on="0"/>
        <pt x="423" y="296" on="1"/>
        <pt x="459" y="576" on="1"/>
        <pt x="389" y="590" on="1"/>
        <pt x="396" y="648" on="1"/>
      </contour>
    </TTGlyph>
    <TTGlyph name="Yacute" xMin="11" yMin="0" xMax="556" yMax="840">
      <contour>
        <pt x="212" y="722" on="1"/>
        <pt x="400" y="840" on="1"/>
        <pt x="438" y="819" on="0"/>
        <pt x="438" y="775" on="1"/>
        <pt x="438" y="760" on="0"/>
        <pt x="420" y="738" on="0"/>
        <pt x="393" y="729" on="1"/>
        <pt x="236" y="674" on="1"/>
      </contour>
      <contour>
        <pt x="162" y="64" on="1"/>
        <pt x="187" y="257" on="1"/>
        <pt x="65" y="586" on="1"/>
        <pt x="11" y="596" on="1"/>
        <pt x="17" y="648" on="1"/>
        <pt x="278" y="648" on="1"/>
        <pt x="272" y="598" on="1"/>
        <pt x="208" y="584" on="1"/>
        <pt x="208" y="562" on="1"/>
        <pt x="279" y="345" on="1"/>
        <pt x="284" y="345" on="1"/>
        <pt x="404" y="576" on="1"/>
        <pt x="404" y="585" on="1"/>
        <pt x="342" y="598" on="1"/>
        <pt x="348" y="648" on="1"/>
        <pt x="556" y="648" on="1"/>
        <pt x="550" y="598" on="1"/>
        <pt x="496" y="586" on="1"/>
        <pt x="325" y="274" on="1"/>
        <pt x="296" y="64" on="1"/>
        <pt x="367" y="50" on="1"/>
        <pt x="361" y="0" on="1"/>
        <pt x="85" y="0" on="1"/>
        <pt x="91" y="50" on="1"/>
      </contour>
    </TTGlyph>
    <TTGlyph name="Yacute.loclGUA" xMin="48" yMin="-14" xMax="671" yMax="840">
      <component glyphName=".ttfautohint" x="48" y="0" flags="0x0"/>
      <component glyphName="Y.loclGUA" x="0" y="0" flags="0x0"/>
      <component glyphName="acutecomb.case" x="482" y="0" flags="0x0"/>
    </TTGlyph>
    <TTGlyph name="Ycircumflex" xMin="11" yMin="0" xMax="556" yMax="839">
      <component glyphName=".ttfautohint" x="11" y="0" flags="0x0"/>
      <component glyphName="Y" x="0" y="0" flags="0x0"/>
      <component glyphName="uni0302.case" x="414" y="0" flags="0x0"/>
    </TTGlyph>
    <TTGlyph name="Ycircumflex.loclGUA" xMin="48" yMin="-14" xMax="671" yMax="839">
      <component glyphName=".ttfautohint" x="48" y="0" flags="0x0"/>
      <component glyphName="Y.loclGUA" x="0" y="0" flags="0x0"/>
      <component glyphName="uni0302.case" x="477" y="0" flags="0x0"/>
    </TTGlyph>
    <TTGlyph name="Ydieresis" xMin="11" yMin="0" xMax="556" yMax="832">
      <contour>
        <pt x="170" y="687" on="0"/>
        <pt x="135" y="724" on="0"/>
        <pt x="135" y="751" on="1"/>
        <pt x="135" y="783" on="0"/>
        <pt x="174" y="832" on="0"/>
        <pt x="209" y="832" on="1"/>
        <pt x="236" y="832" on="0"/>
        <pt x="272" y="796" on="0"/>
        <pt x="272" y="766" on="1"/>
        <pt x="272" y="734" on="0"/>
        <pt x="232" y="687" on="0"/>
        <pt x="197" y="687" on="1"/>
      </contour>
      <contour>
        <pt x="393" y="687" on="0"/>
        <pt x="358" y="724" on="0"/>
        <pt x="358" y="751" on="1"/>
        <pt x="358" y="783" on="0"/>
        <pt x="397" y="832" on="0"/>
        <pt x="432" y="832" on="1"/>
        <pt x="459" y="832" on="0"/>
        <pt x="495" y="796" on="0"/>
        <pt x="495" y="766" on="1"/>
        <pt x="495" y="734" on="0"/>
        <pt x="455" y="687" on="0"/>
        <pt x="420" y="687" on="1"/>
      </contour>
      <contour>
        <pt x="162" y="64" on="1"/>
        <pt x="187" y="257" on="1"/>
        <pt x="65" y="586" on="1"/>
        <pt x="11" y="596" on="1"/>
        <pt x="17" y="648" on="1"/>
        <pt x="278" y="648" on="1"/>
        <pt x="272" y="598" on="1"/>
        <pt x="208" y="584" on="1"/>
        <pt x="208" y="562" on="1"/>
        <pt x="279" y="345" on="1"/>
        <pt x="284" y="345" on="1"/>
        <pt x="404" y="576" on="1"/>
        <pt x="404" y="585" on="1"/>
        <pt x="342" y="598" on="1"/>
        <pt x="348" y="648" on="1"/>
        <pt x="556" y="648" on="1"/>
        <pt x="550" y="598" on="1"/>
        <pt x="496" y="586" on="1"/>
        <pt x="325" y="274" on="1"/>
        <pt x="296" y="64" on="1"/>
        <pt x="367" y="50" on="1"/>
        <pt x="361" y="0" on="1"/>
        <pt x="85" y="0" on="1"/>
        <pt x="91" y="50" on="1"/>
      </contour>
    </TTGlyph>
    <TTGlyph name="Ydieresis.loclGUA" xMin="48" yMin="-14" xMax="671" yMax="832">
      <component glyphName=".ttfautohint" x="48" y="0" flags="0x0"/>
      <component glyphName="Y.loclGUA" x="0" y="0" flags="0x0"/>
      <component glyphName="uni0308.case" x="500" y="0" flags="0x0"/>
    </TTGlyph>
    <TTGlyph name="Ygrave" xMin="11" yMin="0" xMax="556" yMax="840">
      <component glyphName=".ttfautohint" x="11" y="0" flags="0x0"/>
      <component glyphName="Y" x="0" y="0" flags="0x0"/>
      <component glyphName="gravecomb.case" x="325" y="0" flags="0x0"/>
    </TTGlyph>
    <TTGlyph name="Ygrave.loclGUA" xMin="48" yMin="-14" xMax="671" yMax="840">
      <component glyphName=".ttfautohint" x="48" y="0" flags="0x0"/>
      <component glyphName="Y.loclGUA" x="0" y="0" flags="0x0"/>
      <component glyphName="gravecomb.case" x="388" y="0" flags="0x0"/>
    </TTGlyph>
    <TTGlyph name="Z" xMin="-8" yMin="0" xMax="535" yMax="648">
      <contour>
        <pt x="370" y="565" on="1"/>
        <pt x="362" y="579" on="1"/>
        <pt x="150" y="579" on="1"/>
        <pt x="107" y="468" on="1"/>
        <pt x="46" y="468" on="1"/>
        <pt x="72" y="648" on="1"/>
        <pt x="489" y="648" on="1"/>
        <pt x="535" y="576" on="1"/>
        <pt x="154" y="77" on="1"/>
        <pt x="158" y="69" on="1"/>
        <pt x="381" y="69" on="1"/>
        <pt x="420" y="180" on="1"/>
        <pt x="481" y="180" on="1"/>
        <pt x="458" y="0" on="1"/>
        <pt x="20" y="0" on="1"/>
        <pt x="-8" y="69" on="1"/>
      </contour>
    </TTGlyph>
    <TTGlyph name="Zacute" xMin="-8" yMin="0" xMax="535" yMax="840">
      <contour>
        <pt x="199" y="722" on="1"/>
        <pt x="387" y="840" on="1"/>
        <pt x="425" y="819" on="0"/>
        <pt x="425" y="775" on="1"/>
        <pt x="425" y="760" on="0"/>
        <pt x="407" y="738" on="0"/>
        <pt x="380" y="729" on="1"/>
        <pt x="223" y="674" on="1"/>
      </contour>
      <contour>
        <pt x="370" y="565" on="1"/>
        <pt x="362" y="579" on="1"/>
        <pt x="150" y="579" on="1"/>
        <pt x="107" y="468" on="1"/>
        <pt x="46" y="468" on="1"/>
        <pt x="72" y="648" on="1"/>
        <pt x="489" y="648" on="1"/>
        <pt x="535" y="576" on="1"/>
        <pt x="154" y="77" on="1"/>
        <pt x="158" y="69" on="1"/>
        <pt x="381" y="69" on="1"/>
        <pt x="420" y="180" on="1"/>
        <pt x="481" y="180" on="1"/>
        <pt x="458" y="0" on="1"/>
        <pt x="20" y="0" on="1"/>
        <pt x="-8" y="69" on="1"/>
      </contour>
    </TTGlyph>
    <TTGlyph name="Zacute.loclPLK" xMin="-8" yMin="0" xMax="535" yMax="862">
      <contour>
        <pt x="426" y="862" on="1"/>
        <pt x="451" y="858" on="0"/>
        <pt x="486" y="819" on="0"/>
        <pt x="486" y="799" on="1"/>
        <pt x="486" y="779" on="0"/>
        <pt x="455" y="755" on="1"/>
        <pt x="336" y="663" on="1"/>
        <pt x="297" y="705" on="1"/>
      </contour>
      <contour>
        <pt x="370" y="565" on="1"/>
        <pt x="362" y="579" on="1"/>
        <pt x="150" y="579" on="1"/>
        <pt x="107" y="468" on="1"/>
        <pt x="46" y="468" on="1"/>
        <pt x="72" y="648" on="1"/>
        <pt x="489" y="648" on="1"/>
        <pt x="535" y="576" on="1"/>
        <pt x="154" y="77" on="1"/>
        <pt x="158" y="69" on="1"/>
        <pt x="381" y="69" on="1"/>
        <pt x="420" y="180" on="1"/>
        <pt x="481" y="180" on="1"/>
        <pt x="458" y="0" on="1"/>
        <pt x="20" y="0" on="1"/>
        <pt x="-8" y="69" on="1"/>
      </contour>
    </TTGlyph>
    <TTGlyph name="Zcaron" xMin="-8" yMin="0" xMax="535" yMax="839">
      <contour>
        <pt x="304" y="778" on="1"/>
        <pt x="428" y="837" on="1"/>
        <pt x="454" y="798" on="1"/>
        <pt x="364" y="724" on="1"/>
        <pt x="358" y="719" on="0"/>
        <pt x="319" y="687" on="0"/>
        <pt x="298" y="674" on="0"/>
        <pt x="292" y="674" on="1"/>
        <pt x="283" y="674" on="0"/>
        <pt x="262" y="690" on="0"/>
        <pt x="242" y="709" on="0"/>
        <pt x="239" y="712" on="1"/>
        <pt x="152" y="791" on="1"/>
        <pt x="191" y="839" on="1"/>
      </contour>
      <contour>
        <pt x="370" y="565" on="1"/>
        <pt x="362" y="579" on="1"/>
        <pt x="150" y="579" on="1"/>
        <pt x="107" y="468" on="1"/>
        <pt x="46" y="468" on="1"/>
        <pt x="72" y="648" on="1"/>
        <pt x="489" y="648" on="1"/>
        <pt x="535" y="576" on="1"/>
        <pt x="154" y="77" on="1"/>
        <pt x="158" y="69" on="1"/>
        <pt x="381" y="69" on="1"/>
        <pt x="420" y="180" on="1"/>
        <pt x="481" y="180" on="1"/>
        <pt x="458" y="0" on="1"/>
        <pt x="20" y="0" on="1"/>
        <pt x="-8" y="69" on="1"/>
      </contour>
    </TTGlyph>
    <TTGlyph name="Zdotaccent" xMin="-8" yMin="0" xMax="535" yMax="832">
      <contour>
        <pt x="269" y="681" on="0"/>
        <pt x="233" y="720" on="0"/>
        <pt x="233" y="748" on="1"/>
        <pt x="233" y="781" on="0"/>
        <pt x="274" y="832" on="0"/>
        <pt x="310" y="832" on="1"/>
        <pt x="339" y="832" on="0"/>
        <pt x="376" y="794" on="0"/>
        <pt x="376" y="763" on="1"/>
        <pt x="376" y="730" on="0"/>
        <pt x="335" y="681" on="0"/>
        <pt x="298" y="681" on="1"/>
      </contour>
      <contour>
        <pt x="370" y="565" on="1"/>
        <pt x="362" y="579" on="1"/>
        <pt x="150" y="579" on="1"/>
        <pt x="107" y="468" on="1"/>
        <pt x="46" y="468" on="1"/>
        <pt x="72" y="648" on="1"/>
        <pt x="489" y="648" on="1"/>
        <pt x="535" y="576" on="1"/>
        <pt x="154" y="77" on="1"/>
        <pt x="158" y="69" on="1"/>
        <pt x="381" y="69" on="1"/>
        <pt x="420" y="180" on="1"/>
        <pt x="481" y="180" on="1"/>
        <pt x="458" y="0" on="1"/>
        <pt x="20" y="0" on="1"/>
        <pt x="-8" y="69" on="1"/>
      </contour>
    </TTGlyph>
    <TTGlyph name="a" xMin="25" yMin="-11" xMax="483" yMax="517">
      <contour>
        <pt x="216" y="-11" on="0"/>
        <pt x="142" y="-11" on="1"/>
        <pt x="25" y="-11" on="0"/>
        <pt x="25" y="150" on="1"/>
        <pt x="25" y="219" on="0"/>
        <pt x="80" y="391" on="0"/>
        <pt x="181" y="513" on="0"/>
        <pt x="245" y="513" on="1"/>
        <pt x="303" y="513" on="0"/>
        <pt x="369" y="479" on="1"/>
        <pt x="405" y="517" on="1"/>
        <pt x="481" y="517" on="1"/>
        <pt x="412" y="88" on="1"/>
        <pt x="483" y="88" on="1"/>
        <pt x="483" y="26" on="1"/>
        <pt x="483" y="25" on="0"/>
        <pt x="447" y="8" on="0"/>
        <pt x="389" y="-6" on="0"/>
        <pt x="353" y="-6" on="1"/>
        <pt x="315" y="-6" on="0"/>
        <pt x="276" y="20" on="0"/>
        <pt x="276" y="45" on="1"/>
        <pt x="276" y="73" on="0"/>
        <pt x="296" y="102" on="1"/>
        <pt x="293" y="104" on="1"/>
      </contour>
      <contour>
        <pt x="270" y="433" on="0"/>
        <pt x="222" y="433" on="1"/>
        <pt x="203" y="433" on="0"/>
        <pt x="201" y="430" on="1"/>
        <pt x="180" y="384" on="0"/>
        <pt x="156" y="248" on="0"/>
        <pt x="156" y="171" on="1"/>
        <pt x="156" y="136" on="0"/>
        <pt x="170" y="88" on="0"/>
        <pt x="183" y="88" on="1"/>
        <pt x="210" y="88" on="0"/>
        <pt x="271" y="141" on="0"/>
        <pt x="298" y="176" on="1"/>
        <pt x="331" y="370" on="1"/>
      </contour>
    </TTGlyph>
    <TTGlyph name="aacute" xMin="25" yMin="-11" xMax="483" yMax="743">
      <contour>
        <pt x="239" y="591" on="1"/>
        <pt x="388" y="743" on="1"/>
        <pt x="420" y="739" on="0"/>
        <pt x="450" y="705" on="0"/>
        <pt x="450" y="682" on="1"/>
        <pt x="450" y="658" on="0"/>
        <pt x="401" y="620" on="0"/>
        <pt x="364" y="600" on="1"/>
        <pt x="271" y="551" on="1"/>
      </contour>
      <contour>
        <pt x="216" y="-11" on="0"/>
        <pt x="142" y="-11" on="1"/>
        <pt x="25" y="-11" on="0"/>
        <pt x="25" y="150" on="1"/>
        <pt x="25" y="219" on="0"/>
        <pt x="80" y="391" on="0"/>
        <pt x="181" y="513" on="0"/>
        <pt x="245" y="513" on="1"/>
        <pt x="303" y="513" on="0"/>
        <pt x="369" y="479" on="1"/>
        <pt x="405" y="517" on="1"/>
        <pt x="481" y="517" on="1"/>
        <pt x="412" y="88" on="1"/>
        <pt x="483" y="88" on="1"/>
        <pt x="483" y="26" on="1"/>
        <pt x="483" y="25" on="0"/>
        <pt x="447" y="8" on="0"/>
        <pt x="389" y="-6" on="0"/>
        <pt x="353" y="-6" on="1"/>
        <pt x="315" y="-6" on="0"/>
        <pt x="276" y="20" on="0"/>
        <pt x="276" y="45" on="1"/>
        <pt x="276" y="73" on="0"/>
        <pt x="296" y="102" on="1"/>
        <pt x="293" y="104" on="1"/>
      </contour>
      <contour>
        <pt x="270" y="433" on="0"/>
        <pt x="222" y="433" on="1"/>
        <pt x="203" y="433" on="0"/>
        <pt x="201" y="430" on="1"/>
        <pt x="180" y="384" on="0"/>
        <pt x="156" y="248" on="0"/>
        <pt x="156" y="171" on="1"/>
        <pt x="156" y="136" on="0"/>
        <pt x="170" y="88" on="0"/>
        <pt x="183" y="88" on="1"/>
        <pt x="210" y="88" on="0"/>
        <pt x="271" y="141" on="0"/>
        <pt x="298" y="176" on="1"/>
        <pt x="331" y="370" on="1"/>
      </contour>
    </TTGlyph>
    <TTGlyph name="abreve" xMin="25" yMin="-11" xMax="484" yMax="729">
      <contour>
        <pt x="484" y="700" on="0"/>
        <pt x="446" y="626" on="0"/>
        <pt x="360" y="559" on="0"/>
        <pt x="290" y="559" on="1"/>
        <pt x="250" y="559" on="0"/>
        <pt x="188" y="596" on="0"/>
        <pt x="155" y="652" on="0"/>
        <pt x="155" y="679" on="1"/>
        <pt x="155" y="691" on="0"/>
        <pt x="161" y="701" on="0"/>
        <pt x="166" y="705" on="1"/>
        <pt x="173" y="711" on="0"/>
        <pt x="227" y="729" on="0"/>
        <pt x="235" y="729" on="1"/>
        <pt x="241" y="692" on="0"/>
        <pt x="283" y="648" on="0"/>
        <pt x="321" y="648" on="1"/>
        <pt x="356" y="648" on="0"/>
        <pt x="410" y="683" on="0"/>
        <pt x="443" y="723" on="0"/>
        <pt x="443" y="726" on="1"/>
        <pt x="484" y="709" on="1"/>
      </contour>
      <contour>
        <pt x="216" y="-11" on="0"/>
        <pt x="142" y="-11" on="1"/>
        <pt x="25" y="-11" on="0"/>
        <pt x="25" y="150" on="1"/>
        <pt x="25" y="219" on="0"/>
        <pt x="80" y="391" on="0"/>
        <pt x="181" y="513" on="0"/>
        <pt x="245" y="513" on="1"/>
        <pt x="303" y="513" on="0"/>
        <pt x="369" y="479" on="1"/>
        <pt x="405" y="517" on="1"/>
        <pt x="481" y="517" on="1"/>
        <pt x="412" y="88" on="1"/>
        <pt x="483" y="88" on="1"/>
        <pt x="483" y="26" on="1"/>
        <pt x="483" y="25" on="0"/>
        <pt x="447" y="8" on="0"/>
        <pt x="389" y="-6" on="0"/>
        <pt x="353" y="-6" on="1"/>
        <pt x="315" y="-6" on="0"/>
        <pt x="276" y="20" on="0"/>
        <pt x="276" y="45" on="1"/>
        <pt x="276" y="73" on="0"/>
        <pt x="296" y="102" on="1"/>
        <pt x="293" y="104" on="1"/>
      </contour>
      <contour>
        <pt x="270" y="433" on="0"/>
        <pt x="222" y="433" on="1"/>
        <pt x="203" y="433" on="0"/>
        <pt x="201" y="430" on="1"/>
        <pt x="180" y="384" on="0"/>
        <pt x="156" y="248" on="0"/>
        <pt x="156" y="171" on="1"/>
        <pt x="156" y="136" on="0"/>
        <pt x="170" y="88" on="0"/>
        <pt x="183" y="88" on="1"/>
        <pt x="210" y="88" on="0"/>
        <pt x="271" y="141" on="0"/>
        <pt x="298" y="176" on="1"/>
        <pt x="331" y="370" on="1"/>
      </contour>
    </TTGlyph>
    <TTGlyph name="acircumflex" xMin="25" yMin="-11" xMax="483" yMax="741">
      <contour>
        <pt x="236" y="682" on="1"/>
        <pt x="268" y="714" on="0"/>
        <pt x="301" y="741" on="0"/>
        <pt x="312" y="741" on="1"/>
        <pt x="324" y="741" on="0"/>
        <pt x="346" y="719" on="0"/>
        <pt x="361" y="697" on="1"/>
        <pt x="438" y="589" on="1"/>
        <pt x="400" y="553" on="1"/>
        <pt x="299" y="622" on="1"/>
        <pt x="175" y="557" on="1"/>
        <pt x="144" y="591" on="1"/>
      </contour>
      <contour>
        <pt x="216" y="-11" on="0"/>
        <pt x="142" y="-11" on="1"/>
        <pt x="25" y="-11" on="0"/>
        <pt x="25" y="150" on="1"/>
        <pt x="25" y="219" on="0"/>
        <pt x="80" y="391" on="0"/>
        <pt x="181" y="513" on="0"/>
        <pt x="245" y="513" on="1"/>
        <pt x="303" y="513" on="0"/>
        <pt x="369" y="479" on="1"/>
        <pt x="405" y="517" on="1"/>
        <pt x="481" y="517" on="1"/>
        <pt x="412" y="88" on="1"/>
        <pt x="483" y="88" on="1"/>
        <pt x="483" y="26" on="1"/>
        <pt x="483" y="25" on="0"/>
        <pt x="447" y="8" on="0"/>
        <pt x="389" y="-6" on="0"/>
        <pt x="353" y="-6" on="1"/>
        <pt x="315" y="-6" on="0"/>
        <pt x="276" y="20" on="0"/>
        <pt x="276" y="45" on="1"/>
        <pt x="276" y="73" on="0"/>
        <pt x="296" y="102" on="1"/>
        <pt x="293" y="104" on="1"/>
      </contour>
      <contour>
        <pt x="270" y="433" on="0"/>
        <pt x="222" y="433" on="1"/>
        <pt x="203" y="433" on="0"/>
        <pt x="201" y="430" on="1"/>
        <pt x="180" y="384" on="0"/>
        <pt x="156" y="248" on="0"/>
        <pt x="156" y="171" on="1"/>
        <pt x="156" y="136" on="0"/>
        <pt x="170" y="88" on="0"/>
        <pt x="183" y="88" on="1"/>
        <pt x="210" y="88" on="0"/>
        <pt x="271" y="141" on="0"/>
        <pt x="298" y="176" on="1"/>
        <pt x="331" y="370" on="1"/>
      </contour>
    </TTGlyph>
    <TTGlyph name="acute" xMin="49" yMin="551" xMax="260" yMax="743">
      <contour>
        <pt x="49" y="591" on="1"/>
        <pt x="198" y="743" on="1"/>
        <pt x="230" y="739" on="0"/>
        <pt x="260" y="705" on="0"/>
        <pt x="260" y="682" on="1"/>
        <pt x="260" y="657" on="0"/>
        <pt x="221" y="625" on="0"/>
        <pt x="174" y="600" on="1"/>
        <pt x="81" y="551" on="1"/>
      </contour>
    </TTGlyph>
    <TTGlyph name="acutecomb" xMin="-153" yMin="551" xMax="58" yMax="743">
      <contour>
        <pt x="-153" y="591" on="1"/>
        <pt x="-4" y="743" on="1"/>
        <pt x="28" y="739" on="0"/>
        <pt x="58" y="705" on="0"/>
        <pt x="58" y="682" on="1"/>
        <pt x="58" y="657" on="0"/>
        <pt x="19" y="625" on="0"/>
        <pt x="-28" y="600" on="1"/>
        <pt x="-121" y="551" on="1"/>
      </contour>
    </TTGlyph>
    <TTGlyph name="acutecomb.case" xMin="-154" yMin="674" xMax="72" yMax="840">
      <contour>
        <pt x="-154" y="722" on="1"/>
        <pt x="34" y="840" on="1"/>
        <pt x="72" y="819" on="0"/>
        <pt x="72" y="775" on="1"/>
        <pt x="72" y="760" on="0"/>
        <pt x="54" y="739" on="0"/>
        <pt x="27" y="729" on="1"/>
        <pt x="-130" y="674" on="1"/>
      </contour>
    </TTGlyph>
    <TTGlyph name="adieresis" xMin="25" yMin="-11" xMax="492" yMax="726">
      <contour>
        <pt x="182" y="576" on="0"/>
        <pt x="146" y="614" on="0"/>
        <pt x="146" y="642" on="1"/>
        <pt x="146" y="675" on="0"/>
        <pt x="186" y="726" on="0"/>
        <pt x="222" y="726" on="1"/>
        <pt x="251" y="726" on="0"/>
        <pt x="288" y="689" on="0"/>
        <pt x="288" y="657" on="1"/>
        <pt x="288" y="624" on="0"/>
        <pt x="248" y="576" on="0"/>
        <pt x="211" y="576" on="1"/>
      </contour>
      <contour>
        <pt x="386" y="576" on="0"/>
        <pt x="350" y="614" on="0"/>
        <pt x="350" y="642" on="1"/>
        <pt x="350" y="675" on="0"/>
        <pt x="390" y="726" on="0"/>
        <pt x="426" y="726" on="1"/>
        <pt x="455" y="726" on="0"/>
        <pt x="492" y="689" on="0"/>
        <pt x="492" y="657" on="1"/>
        <pt x="492" y="624" on="0"/>
        <pt x="452" y="576" on="0"/>
        <pt x="415" y="576" on="1"/>
      </contour>
      <contour>
        <pt x="216" y="-11" on="0"/>
        <pt x="142" y="-11" on="1"/>
        <pt x="25" y="-11" on="0"/>
        <pt x="25" y="150" on="1"/>
        <pt x="25" y="219" on="0"/>
        <pt x="80" y="391" on="0"/>
        <pt x="181" y="513" on="0"/>
        <pt x="245" y="513" on="1"/>
        <pt x="303" y="513" on="0"/>
        <pt x="369" y="479" on="1"/>
        <pt x="405" y="517" on="1"/>
        <pt x="481" y="517" on="1"/>
        <pt x="412" y="88" on="1"/>
        <pt x="483" y="88" on="1"/>
        <pt x="483" y="26" on="1"/>
        <pt x="483" y="25" on="0"/>
        <pt x="447" y="8" on="0"/>
        <pt x="389" y="-6" on="0"/>
        <pt x="353" y="-6" on="1"/>
        <pt x="315" y="-6" on="0"/>
        <pt x="276" y="20" on="0"/>
        <pt x="276" y="45" on="1"/>
        <pt x="276" y="73" on="0"/>
        <pt x="296" y="102" on="1"/>
        <pt x="293" y="104" on="1"/>
      </contour>
      <contour>
        <pt x="270" y="433" on="0"/>
        <pt x="222" y="433" on="1"/>
        <pt x="203" y="433" on="0"/>
        <pt x="201" y="430" on="1"/>
        <pt x="180" y="384" on="0"/>
        <pt x="156" y="248" on="0"/>
        <pt x="156" y="171" on="1"/>
        <pt x="156" y="136" on="0"/>
        <pt x="170" y="88" on="0"/>
        <pt x="183" y="88" on="1"/>
        <pt x="210" y="88" on="0"/>
        <pt x="271" y="141" on="0"/>
        <pt x="298" y="176" on="1"/>
        <pt x="331" y="370" on="1"/>
      </contour>
    </TTGlyph>
    <TTGlyph name="ae" xMin="28" yMin="-11" xMax="666" yMax="513">
      <contour>
        <pt x="409" y="114" on="0"/>
        <pt x="457" y="71" on="0"/>
        <pt x="509" y="71" on="1"/>
        <pt x="531" y="71" on="0"/>
        <pt x="577" y="87" on="0"/>
        <pt x="609" y="103" on="0"/>
        <pt x="613" y="106" on="1"/>
        <pt x="635" y="69" on="1"/>
        <pt x="635" y="66" on="0"/>
        <pt x="582" y="25" on="0"/>
        <pt x="492" y="-10" on="0"/>
        <pt x="434" y="-10" on="1"/>
        <pt x="368" y="-10" on="0"/>
        <pt x="296" y="36" on="0"/>
        <pt x="285" y="89" on="1"/>
        <pt x="214" y="-11" on="0"/>
        <pt x="145" y="-11" on="1"/>
        <pt x="28" y="-11" on="0"/>
        <pt x="28" y="150" on="1"/>
        <pt x="28" y="219" on="0"/>
        <pt x="83" y="391" on="0"/>
        <pt x="184" y="513" on="0"/>
        <pt x="248" y="513" on="1"/>
        <pt x="314" y="513" on="0"/>
        <pt x="401" y="468" on="1"/>
        <pt x="452" y="513" on="0"/>
        <pt x="517" y="513" on="1"/>
        <pt x="588" y="513" on="0"/>
        <pt x="666" y="451" on="0"/>
        <pt x="666" y="406" on="1"/>
        <pt x="666" y="341" on="0"/>
        <pt x="600" y="262" on="0"/>
        <pt x="492" y="221" on="0"/>
        <pt x="409" y="204" on="1"/>
        <pt x="409" y="169" on="1"/>
      </contour>
      <contour>
        <pt x="473" y="277" on="0"/>
        <pt x="527" y="312" on="0"/>
        <pt x="543" y="354" on="0"/>
        <pt x="543" y="388" on="1"/>
        <pt x="543" y="441" on="0"/>
        <pt x="498" y="441" on="1"/>
        <pt x="485" y="441" on="0"/>
        <pt x="462" y="434" on="0"/>
        <pt x="459" y="431" on="1"/>
        <pt x="454" y="427" on="0"/>
        <pt x="436" y="376" on="0"/>
        <pt x="419" y="300" on="0"/>
        <pt x="416" y="259" on="1"/>
      </contour>
      <contour>
        <pt x="282" y="208" on="0"/>
        <pt x="309" y="329" on="0"/>
        <pt x="335" y="379" on="1"/>
        <pt x="306" y="406" on="0"/>
        <pt x="249" y="433" on="0"/>
        <pt x="225" y="433" on="1"/>
        <pt x="206" y="433" on="0"/>
        <pt x="204" y="430" on="1"/>
        <pt x="183" y="384" on="0"/>
        <pt x="159" y="248" on="0"/>
        <pt x="159" y="171" on="1"/>
        <pt x="159" y="136" on="0"/>
        <pt x="173" y="88" on="0"/>
        <pt x="186" y="88" on="1"/>
        <pt x="226" y="88" on="0"/>
        <pt x="281" y="151" on="1"/>
      </contour>
    </TTGlyph>
    <TTGlyph name="aeacute" xMin="28" yMin="-11" xMax="666" yMax="743">
      <component glyphName=".ttfautohint" x="28" y="0" flags="0x0"/>
      <component glyphName="ae" x="0" y="0" flags="0x0"/>
      <component glyphName="acutecomb" x="508" y="0" flags="0x0"/>
    </TTGlyph>
    <TTGlyph name="agrave" xMin="25" yMin="-11" xMax="483" yMax="743">
      <contour>
        <pt x="248" y="620" on="0"/>
        <pt x="199" y="658" on="0"/>
        <pt x="199" y="682" on="1"/>
        <pt x="199" y="705" on="0"/>
        <pt x="229" y="739" on="0"/>
        <pt x="261" y="743" on="1"/>
        <pt x="410" y="591" on="1"/>
        <pt x="378" y="551" on="1"/>
        <pt x="285" y="600" on="1"/>
      </contour>
      <contour>
        <pt x="216" y="-11" on="0"/>
        <pt x="142" y="-11" on="1"/>
        <pt x="25" y="-11" on="0"/>
        <pt x="25" y="150" on="1"/>
        <pt x="25" y="219" on="0"/>
        <pt x="80" y="391" on="0"/>
        <pt x="181" y="513" on="0"/>
        <pt x="245" y="513" on="1"/>
        <pt x="303" y="513" on="0"/>
        <pt x="369" y="479" on="1"/>
        <pt x="405" y="517" on="1"/>
        <pt x="481" y="517" on="1"/>
        <pt x="412" y="88" on="1"/>
        <pt x="483" y="88" on="1"/>
        <pt x="483" y="26" on="1"/>
        <pt x="483" y="25" on="0"/>
        <pt x="447" y="8" on="0"/>
        <pt x="389" y="-6" on="0"/>
        <pt x="353" y="-6" on="1"/>
        <pt x="315" y="-6" on="0"/>
        <pt x="276" y="20" on="0"/>
        <pt x="276" y="45" on="1"/>
        <pt x="276" y="73" on="0"/>
        <pt x="296" y="102" on="1"/>
        <pt x="293" y="104" on="1"/>
      </contour>
      <contour>
        <pt x="270" y="433" on="0"/>
        <pt x="222" y="433" on="1"/>
        <pt x="203" y="433" on="0"/>
        <pt x="201" y="430" on="1"/>
        <pt x="180" y="384" on="0"/>
        <pt x="156" y="248" on="0"/>
        <pt x="156" y="171" on="1"/>
        <pt x="156" y="136" on="0"/>
        <pt x="170" y="88" on="0"/>
        <pt x="183" y="88" on="1"/>
        <pt x="210" y="88" on="0"/>
        <pt x="271" y="141" on="0"/>
        <pt x="298" y="176" on="1"/>
        <pt x="331" y="370" on="1"/>
      </contour>
    </TTGlyph>
    <TTGlyph name="amacron" xMin="25" yMin="-11" xMax="483" yMax="689">
      <contour>
        <pt x="477" y="689" on="1"/>
        <pt x="467" y="607" on="1"/>
        <pt x="137" y="607" on="1"/>
        <pt x="147" y="689" on="1"/>
      </contour>
      <contour>
        <pt x="216" y="-11" on="0"/>
        <pt x="142" y="-11" on="1"/>
        <pt x="25" y="-11" on="0"/>
        <pt x="25" y="150" on="1"/>
        <pt x="25" y="219" on="0"/>
        <pt x="80" y="391" on="0"/>
        <pt x="181" y="513" on="0"/>
        <pt x="245" y="513" on="1"/>
        <pt x="303" y="513" on="0"/>
        <pt x="369" y="479" on="1"/>
        <pt x="405" y="517" on="1"/>
        <pt x="481" y="517" on="1"/>
        <pt x="412" y="88" on="1"/>
        <pt x="483" y="88" on="1"/>
        <pt x="483" y="26" on="1"/>
        <pt x="483" y="25" on="0"/>
        <pt x="447" y="8" on="0"/>
        <pt x="389" y="-6" on="0"/>
        <pt x="353" y="-6" on="1"/>
        <pt x="315" y="-6" on="0"/>
        <pt x="276" y="20" on="0"/>
        <pt x="276" y="45" on="1"/>
        <pt x="276" y="73" on="0"/>
        <pt x="296" y="102" on="1"/>
        <pt x="293" y="104" on="1"/>
      </contour>
      <contour>
        <pt x="270" y="433" on="0"/>
        <pt x="222" y="433" on="1"/>
        <pt x="203" y="433" on="0"/>
        <pt x="201" y="430" on="1"/>
        <pt x="180" y="384" on="0"/>
        <pt x="156" y="248" on="0"/>
        <pt x="156" y="171" on="1"/>
        <pt x="156" y="136" on="0"/>
        <pt x="170" y="88" on="0"/>
        <pt x="183" y="88" on="1"/>
        <pt x="210" y="88" on="0"/>
        <pt x="271" y="141" on="0"/>
        <pt x="298" y="176" on="1"/>
        <pt x="331" y="370" on="1"/>
      </contour>
    </TTGlyph>
</ttFont>
